SplineFontDB: 3.2
FontName: FixtureItalic-Bold
FullName: Fixture Italic Bold
FamilyName: Fixture Italic Bold
Weight: Bold
Copyright: Copyright (c) 2018 by Alejandro Paul for Sudtipos. All rights reserved.
Version: 1.000
ItalicAngle: 0
UnderlinePosition: -150
UnderlineWidth: 50
Ascent: 800
Descent: 200
InvalidEm: 0
sfntRevision: 0x00010000
LayerCount: 2
Layer: 0 0 "Back" 1
Layer: 1 0 "Fore" 0
XUID: [1021 987 -239963225 11767466]
StyleMap: 0x0040
FSType: 8
OS2Version: 3
OS2_WeightWidthSlopeOnly: 0
OS2_UseTypoMetrics: 0
CreationTime: 1536610915
ModificationTime: 1685198478
PfmFamily: 81
TTFWeight: 700
TTFWidth: 5
LineGap: 0
VLineGap: 0
Panose: 0 0 8 0 0 0 0 0 0 0
OS2TypoAscent: 858
OS2TypoAOffset: 0
OS2TypoDescent: -158
OS2TypoDOffset: 0
OS2TypoLinegap: 184
OS2WinAscent: 1042
OS2WinAOffset: 0
OS2WinDescent: 158
OS2WinDOffset: 0
HheadAscent: 1042
HheadAOffset: 0
HheadDescent: -158
HheadDOffset: 0
OS2SubXSize: 650
OS2SubYSize: 600
OS2SubXOff: 0
OS2SubYOff: 75
OS2SupXSize: 650
OS2SupYSize: 600
OS2SupXOff: 0
OS2SupYOff: 350
OS2StrikeYSize: 50
OS2StrikeYPos: 304
OS2CapHeight: 708
OS2XHeight: 508
OS2Vendor: 'UKWN'
OS2CodePages: 20000093.00000000
OS2UnicodeRanges: 00000007.00000001.00000000.00000000
Lookup: 1 0 0 "'aalt' Access All Alternates in Latin lookup 0" { "'aalt' Access All Alternates in Latin lookup 0 subtable"  } ['aalt' ('DFLT' <'dflt' > 'latn' <'AZE ' 'CAT ' 'CRT ' 'KAZ ' 'MOL ' 'ROM ' 'TAT ' 'TRK ' 'dflt' > ) ]
Lookup: 3 0 0 "'aalt' Access All Alternates in Latin lookup 1" { "'aalt' Access All Alternates in Latin lookup 1 subtable"  } ['aalt' ('DFLT' <'dflt' > 'latn' <'AZE ' 'CAT ' 'CRT ' 'KAZ ' 'MOL ' 'ROM ' 'TAT ' 'TRK ' 'dflt' > ) ]
Lookup: 6 0 0 "'ccmp' Glyph Composition/Decomposition in Latin lookup 2" { "'ccmp' Glyph Composition/Decomposition in Latin lookup 2 contextual 0"  "'ccmp' Glyph Composition/Decomposition in Latin lookup 2 contextual 1"  } ['ccmp' ('DFLT' <'dflt' > 'latn' <'AZE ' 'CAT ' 'CRT ' 'KAZ ' 'MOL ' 'ROM ' 'TAT ' 'TRK ' 'dflt' > ) ]

StartChar: .notdef
Encoding: 65536 -1 0
Width: 508
GlyphClass: 1
Flags: W
LayerCount: 2
Fore
SplineSet
417 -158 m 1
 94 -158 l 1
 94 858 l 1
 417 858 l 1
 417 -158 l 1
171 790 m 1
 171 756 l 1
 237 756 l 1
 237 719 l 1
 170 719 l 1
 170 685 l 1
 338 685 l 1
 338 719 l 1
 271 719 l 1
 271 756 l 1
 338 756 l 1
 338 790 l 1
 171 790 l 1
170 659 m 1
 170 553 l 1
 338 553 l 1
 338 588 l 1
 271 588 l 1
 271 659 l 1
 170 659 l 1
237 588 m 1
 203 588 l 1
 203 624 l 1
 237 624 l 1
 237 588 l 1
170 526 m 1
 170 492 l 1
 237 492 l 1
 237 455 l 1
 170 455 l 1
 170 421 l 1
 271 421 l 1
 271 492 l 1
 338 492 l 1
 338 526 l 1
 170 526 l 1
305 465 m 1
 305 398 l 1
 170 398 l 1
 170 363 l 1
 338 363 l 1
 338 465 l 1
 305 465 l 1
237 341 m 1
 237 284 l 1
 271 284 l 1
 271 307 l 1
 305 307 l 1
 305 260 l 1
 203 260 l 1
 203 341 l 1
 170 341 l 1
 170 226 l 1
 338 226 l 1
 338 341 l 1
 237 341 l 1
170 165 m 1
 170 50 l 1
 338 50 l 1
 338 165 l 1
 170 165 l 1
305 84 m 1
 203 84 l 1
 203 132 l 1
 305 132 l 1
 305 84 l 1
170 27 m 1
 170 -7 l 1
 241 -7 l 1
 170 -54 l 1
 170 -88 l 1
 338 -88 l 1
 338 -54 l 1
 235 -54 l 1
 306 -7 l 1
 338 -7 l 1
 338 27 l 1
 170 27 l 1
EndSplineSet
EndChar

StartChar: exclam
Encoding: 33 33 2
Width: 278
GlyphClass: 2
Flags: W
LayerCount: 2
Fore
SplineSet
125 201 m 2
 160.000976562 443 l 1
 220.000976562 703 l 2
 220.000976562 704.333007812 220.66796875 705.333007812 222.000976562 706 c 0
 223.333984375 706.666992188 224.666992188 707 226 707 c 2
 379 707 l 2
 381.666992188 707 383 705.666992188 383 703 c 2
 322 443 l 1
 245 201 l 2
 245 197.666992188 243 196 239 196 c 2
 129 196 l 2
 125 196 123.666992188 197.666992188 125 201 c 2
60.0009765625 5 m 2
 94.0009765625 154 l 2
 95.333984375 156.666992188 97.333984375 158 100.000976562 158 c 2
 251.000976562 158 l 2
 254.333984375 158 255.333984375 156.666992188 254.000976562 154 c 2
 220.000976562 5 l 2
 218.66796875 1.6669921875 216.66796875 0 214.000976562 0 c 2
 64.0009765625 0 l 2
 60.0009765625 0 58.66796875 1.6669921875 60.0009765625 5 c 2
EndSplineSet
EndChar

StartChar: quotedbl
Encoding: 34 34 3
Width: 444
GlyphClass: 2
Flags: W
LayerCount: 2
Fore
SplineSet
154 420 m 2
 169.000976562 575 l 1
 199.000976562 704 l 2
 199.000976562 705.333007812 199.66796875 706.333007812 201.000976562 707 c 0
 202.333984375 707.666992188 203.666992188 708 205 708 c 2
 353 708 l 2
 356.333007812 708 357.333007812 706.666992188 356 704 c 2
 327 575 l 1
 270 420 l 2
 267.333007812 417.333007812 265.333007812 416 264 416 c 2
 158 416 l 2
 155.333007812 416 154 417.333007812 154 420 c 2
368.000976562 420 m 2
 383.001953125 575 l 1
 413.001953125 704 l 2
 413.001953125 705.333007812 413.668945312 706.333007812 415.001953125 707 c 0
 416.334960938 707.666992188 417.66796875 708 419.000976562 708 c 2
 567.000976562 708 l 2
 570.333984375 708 571.333984375 706.666992188 570.000976562 704 c 2
 541.000976562 575 l 1
 484.000976562 420 l 2
 481.333984375 417.333007812 479.333984375 416 478.000976562 416 c 2
 372.000976562 416 l 2
 369.333984375 416 368.000976562 417.333007812 368.000976562 420 c 2
EndSplineSet
EndChar

StartChar: numbersign
Encoding: 35 35 4
Width: 590
GlyphClass: 2
Flags: W
LayerCount: 2
Fore
SplineSet
103 279 m 2
 104.333007812 282.333007812 106.333007812 284 109 284 c 2
 177 284 l 1
 205 405 l 1
 137 405 l 2
 133.666992188 405 132.666992188 406.666992188 134 410 c 2
 158 517 l 2
 159.333007812 520.333007812 161.333007812 522 164 522 c 2
 232 522 l 1
 254 616 l 2
 254 619.333007812 256 621 260 621 c 2
 377 621 l 2
 381 621 382.333007812 619.333007812 381 616 c 2
 359 522 l 1
 472 522 l 1
 494 616 l 2
 494 619.333007812 496 621 500 621 c 2
 617 621 l 2
 621 621 622.333007812 619.333007812 621 616 c 2
 599 522 l 1
 667 522 l 2
 669.666992188 522 671 520.333007812 671 517 c 2
 646 410 l 2
 646 406.666992188 644 405 640 405 c 2
 572 405 l 1
 544 284 l 1
 612 284 l 2
 616 284 617.333007812 282.333007812 616 279 c 2
 591 173 l 2
 591 169.666992188 589 168 585 168 c 2
 518 168 l 1
 495 71 l 2
 495 67.6669921875 493 66 489 66 c 2
 372 66 l 2
 368 66 366.666992188 67.6669921875 368 71 c 2
 390 168 l 1
 278 168 l 1
 255 71 l 2
 255 67.6669921875 253 66 249 66 c 2
 132 66 l 2
 128 66 126.666992188 67.6669921875 128 71 c 2
 150 168 l 1
 83 168 l 2
 79 168 77.6669921875 169.666992188 79 173 c 2
 103 279 l 2
416 278 m 1
 446 412 l 1
 334 412 l 1
 303 278 l 1
 416 278 l 1
EndSplineSet
EndChar

StartChar: dollar
Encoding: 36 36 5
Width: 623
GlyphClass: 2
Flags: W
LayerCount: 2
Fore
SplineSet
657 654 m 0
 684.333007812 633.333007812 698 602.997070312 698 562.997070312 c 0
 698 547.6640625 696 530.997070312 692 512.997070312 c 2
 679 459.997070312 l 2
 679 456.6640625 677 454.997070312 673 454.997070312 c 2
 513 454.997070312 l 2
 510.333007812 454.997070312 509 456.6640625 509 459.997070312 c 2
 521 509.997070312 l 2
 522.333007812 516.6640625 523 521.997070312 523 525.997070312 c 0
 523 553.997070312 496.333007812 567.997070312 443 567.997070312 c 0
 409.666992188 567.997070312 384.833984375 563.997070312 368.500976562 555.997070312 c 0
 352.16796875 547.997070312 342.334960938 536.330078125 339.001953125 520.997070312 c 2
 332.001953125 491.997070312 l 2
 331.334960938 489.330078125 331.001953125 485.997070312 331.001953125 481.997070312 c 0
 331.001953125 467.330078125 339.168945312 455.997070312 355.501953125 447.997070312 c 0
 371.834960938 439.997070312 401.001953125 430.330078125 443.001953125 418.997070312 c 0
 487.001953125 408.997070312 522.334960938 398.830078125 549.001953125 388.497070312 c 0
 575.668945312 378.1640625 596.501953125 364.331054688 611.501953125 346.998046875 c 0
 626.501953125 329.665039062 634.001953125 307.33203125 634.001953125 279.999023438 c 0
 634.001953125 266.666015625 632.001953125 251.999023438 628.001953125 235.999023438 c 2
 616.001953125 182.999023438 l 2
 593.334960938 83.666015625 513.66796875 27.666015625 377.000976562 14.9990234375 c 1
 357.000976562 -74.0009765625 l 2
 355.66796875 -77.333984375 353.66796875 -79.0009765625 351.000976562 -79.0009765625 c 2
 240.000976562 -79.0009765625 l 2
 236.000976562 -79.0009765625 234.66796875 -77.333984375 236.000976562 -74.0009765625 c 2
 256.000976562 13.9990234375 l 1
 200.000976562 18.666015625 158.000976562 31.3330078125 130.000976562 52 c 0
 102.000976562 72.6669921875 88.0009765625 103.333984375 88.0009765625 144.000976562 c 0
 88.0009765625 160.66796875 90.0009765625 178.334960938 94.0009765625 197.001953125 c 2
 108.000976562 258.001953125 l 2
 109.333984375 261.334960938 111.666992188 263.001953125 115 263.001953125 c 2
 275 263.001953125 l 2
 278.333007812 263.001953125 279.333007812 261.334960938 278 258.001953125 c 2
 265 200.001953125 l 2
 263.666992188 195.334960938 263 189.334960938 263 182.001953125 c 0
 263 167.334960938 269.166992188 156.334960938 281.5 149.001953125 c 0
 293.833007812 141.668945312 314.333007812 138.001953125 343 138.001953125 c 0
 376.333007812 138.001953125 401 142.334960938 417 151.001953125 c 0
 433 159.668945312 443 172.001953125 447 188.001953125 c 2
 456 225.001953125 l 1
 458 237.001953125 l 2
 458 248.334960938 453.666992188 257.834960938 445 265.501953125 c 0
 436.333007812 273.168945312 426 279.3359375 414 284.002929688 c 0
 402 288.669921875 381 296.002929688 351 306.002929688 c 0
 302.333007812 317.3359375 265.166015625 327.668945312 239.499023438 337.001953125 c 0
 213.83203125 346.334960938 193.33203125 359.001953125 177.999023438 375.001953125 c 0
 162.666015625 391.001953125 154.999023438 412.668945312 154.999023438 440.001953125 c 0
 154.999023438 455.334960938 156.666015625 469.66796875 159.999023438 483.000976562 c 2
 169.999023438 527.000976562 l 2
 192.666015625 625.000976562 273.333007812 680.333984375 412 693.000976562 c 1
 432 780.000976562 l 2
 433.333007812 783.333984375 435.333007812 785.000976562 438 785.000976562 c 2
 550 785.000976562 l 2
 552.666992188 785.000976562 554 783.333984375 554 780.000976562 c 2
 534 692.000976562 l 1
 588.666992188 687.333984375 629.666992188 674.666992188 657 654 c 0
EndSplineSet
EndChar

StartChar: percent
Encoding: 37 37 6
Width: 985
GlyphClass: 2
Flags: W
LayerCount: 2
Fore
SplineSet
168.5 334 m 0
 143.5 351.333007812 131.000976562 376.665039062 131.000976562 409.998046875 c 0
 131.000976562 422.665039062 132.333984375 434.665039062 135.000976562 445.998046875 c 2
 165.000976562 575.998046875 l 2
 175.66796875 621.331054688 199.000976562 655.831054688 235.000976562 679.498046875 c 0
 271.000976562 703.165039062 315.66796875 714.998046875 369.000976562 714.998046875 c 0
 416.333984375 714.998046875 452.666992188 706.331054688 478 688.998046875 c 0
 503.333007812 671.665039062 516 646.33203125 516 612.999023438 c 0
 516 602.999023438 514.333007812 590.666015625 511 575.999023438 c 2
 481 445.999023438 l 2
 470.333007812 400.666015625 447.333007812 366.333007812 412 343 c 0
 376.666992188 319.666992188 331 308 275 308 c 0
 229 308 193.5 316.666992188 168.5 334 c 0
270.000976562 1.4990234375 m 0
 269.333984375 2.4990234375 269.333984375 3.666015625 270.000976562 4.9990234375 c 2
 744.000976562 700.999023438 l 2
 746.000976562 704.33203125 748.333984375 705.999023438 751.000976562 705.999023438 c 2
 863.000976562 705.999023438 l 2
 866.333984375 705.999023438 867.333984375 704.33203125 866.000976562 700.999023438 c 2
 392.000976562 4.9990234375 l 2
 391.333984375 4.33203125 390.500976562 3.33203125 389.500976562 1.9990234375 c 0
 388.500976562 0.666015625 387.333984375 -0.0009765625 386.000976562 -0.0009765625 c 2
 273.000976562 -0.0009765625 l 2
 271.66796875 -0.0009765625 270.66796875 0.4990234375 270.000976562 1.4990234375 c 0
341.500976562 406.499023438 m 0
 353.16796875 416.166015625 361.333984375 430.999023438 366.000976562 450.999023438 c 2
 394.000976562 570.999023438 l 2
 396.000976562 578.999023438 397.000976562 585.999023438 397.000976562 591.999023438 c 0
 397.000976562 605.33203125 393.16796875 614.999023438 385.500976562 620.999023438 c 0
 377.833984375 626.999023438 366.000976562 629.999023438 350.000976562 629.999023438 c 0
 312.000976562 629.999023438 288.66796875 610.33203125 280.000976562 570.999023438 c 2
 252.000976562 450.999023438 l 2
 250.000976562 442.999023438 249.000976562 436.33203125 249.000976562 430.999023438 c 0
 249.000976562 404.999023438 264.333984375 391.999023438 295.000976562 391.999023438 c 0
 314.333984375 391.999023438 329.833984375 396.83203125 341.500976562 406.499023438 c 0
661.5 17.9990234375 m 0
 636.5 35.33203125 624.000976562 60.666015625 624.000976562 93.9990234375 c 0
 624.000976562 106.666015625 625.333984375 118.666015625 628.000976562 129.999023438 c 2
 658.000976562 260.999023438 l 2
 668.000976562 306.33203125 691.000976562 340.665039062 727.000976562 363.998046875 c 0
 763.000976562 387.331054688 808.000976562 398.998046875 862.000976562 398.998046875 c 0
 909.333984375 398.998046875 945.666992188 390.498046875 971 373.498046875 c 0
 996.333007812 356.498046875 1009 331.331054688 1009 297.998046875 c 0
 1009 287.998046875 1007.33300781 275.665039062 1004 260.998046875 c 2
 973 129.998046875 l 2
 962.333007812 84.6650390625 939.5 50.33203125 904.5 26.9990234375 c 0
 869.5 3.666015625 824 -8.0009765625 768 -8.0009765625 c 0
 722 -8.0009765625 686.5 0.666015625 661.5 17.9990234375 c 0
834.500976562 90.5 m 0
 846.16796875 100.166992188 854.333984375 115 859.000976562 135 c 2
 887.000976562 256 l 2
 889.000976562 264 890.000976562 271 890.000976562 277 c 0
 890.000976562 302.333007812 874.333984375 315 843.000976562 315 c 0
 805.000976562 315 781.66796875 295.333007812 773.000976562 256 c 2
 745.000976562 135 l 2
 743.000976562 127 742.000976562 120.333007812 742.000976562 115 c 0
 742.000976562 89 757.333984375 76 788.000976562 76 c 0
 807.333984375 76 822.833984375 80.8330078125 834.500976562 90.5 c 0
EndSplineSet
EndChar

StartChar: ampersand
Encoding: 38 38 7
Width: 701
GlyphClass: 2
Flags: W
LayerCount: 2
Fore
SplineSet
701 259 m 2
 689.666992188 211.666992188 670.002929688 170.333984375 642.002929688 135.000976562 c 1
 653.3359375 131.66796875 664.668945312 130.000976562 676.001953125 130.000976562 c 2
 715.001953125 130.000976562 l 2
 718.334960938 130.000976562 719.334960938 128.333984375 718.001953125 125.000976562 c 2
 691.001953125 5.0009765625 l 2
 689.668945312 1.66796875 687.668945312 0.0009765625 685.001953125 0.0009765625 c 2
 610.001953125 0.0009765625 l 2
 568.001953125 0.0009765625 534.001953125 10.333984375 508.001953125 31.0009765625 c 1
 448.001953125 3.66796875 381.334960938 -9.9990234375 308.001953125 -9.9990234375 c 0
 228.001953125 -9.9990234375 167.668945312 0.16796875 127.001953125 20.5009765625 c 0
 86.3349609375 40.833984375 66.001953125 74.333984375 66.001953125 121.000976562 c 0
 66.001953125 135.000976562 68.001953125 150.333984375 72.001953125 167.000976562 c 2
 86.001953125 228.000976562 l 2
 94.6689453125 265.333984375 113.668945312 296.166992188 143.001953125 320.5 c 0
 172.334960938 344.833007812 210.001953125 365 256.001953125 381 c 1
 236.001953125 410.333007812 226.001953125 439.666015625 226.001953125 468.999023438 c 0
 226.001953125 479.666015625 227.668945312 492.666015625 231.001953125 507.999023438 c 2
 240.001953125 549.999023438 l 2
 252.668945312 604.666015625 282.168945312 646.166015625 328.501953125 674.499023438 c 0
 374.834960938 702.83203125 434.66796875 716.999023438 508.000976562 716.999023438 c 0
 568.66796875 716.999023438 615.500976562 706.83203125 648.500976562 686.499023438 c 0
 681.500976562 666.166015625 698.000976562 636.333007812 698.000976562 597 c 0
 698.000976562 586.333007812 696.333984375 573.666015625 693.000976562 558.999023438 c 2
 687.000976562 530.999023438 l 2
 676.333984375 486.999023438 653.333984375 451.83203125 618.000976562 425.499023438 c 0
 582.66796875 399.166015625 534.000976562 376.333007812 472.000976562 357 c 1
 551.000976562 240 l 1
 552.333984375 242 553.666992188 246.333007812 555 253 c 2
 577 351 l 2
 578.333007812 354.333007812 580.333007812 356 583 356 c 2
 718 356 l 2
 722 356 723.333007812 354.333007812 722 351 c 2
 701 259 l 2
396.002929688 491 m 0
 396.002929688 479.666992188 398.502929688 469.166992188 403.502929688 459.5 c 0
 408.502929688 449.833007812 416.002929688 438.333007812 426.002929688 425 c 1
 477.3359375 444.333007812 507.002929688 471 515.002929688 505 c 2
 524.002929688 544 l 2
 525.3359375 549.333007812 526.002929688 553.333007812 526.002929688 556 c 0
 526.002929688 566 522.002929688 573.833007812 514.002929688 579.5 c 0
 506.002929688 585.166992188 494.002929688 588 478.002929688 588 c 0
 437.3359375 588 413.3359375 572.666992188 406.002929688 542 c 2
 398.002929688 507 l 2
 396.669921875 499 396.002929688 493.666992188 396.002929688 491 c 0
247.002929688 175 m 0
 247.002929688 136.333007812 280.668945312 117 348.001953125 117 c 0
 375.334960938 117 403.001953125 121.333007812 431.001953125 130 c 1
 306.001953125 311 l 1
 293.334960938 301.666992188 283.334960938 291.833984375 276.001953125 281.500976562 c 0
 268.668945312 271.16796875 263.3359375 258.66796875 260.002929688 244.000976562 c 2
 249.002929688 195.000976562 l 2
 247.669921875 190.333984375 247.002929688 183.666992188 247.002929688 175 c 0
EndSplineSet
EndChar

StartChar: quotesingle
Encoding: 39 39 8
Width: 234
GlyphClass: 2
Flags: W
LayerCount: 2
Fore
SplineSet
154 419 m 2
 169.000976562 574 l 1
 199.000976562 703 l 2
 199.000976562 704.333007812 199.66796875 705.333007812 201.000976562 706 c 0
 202.333984375 706.666992188 203.666992188 707 205 707 c 2
 353 707 l 2
 356.333007812 707 357.333007812 705.666992188 356 703 c 2
 327 574 l 1
 270 419 l 2
 267.333007812 416.333007812 265.333007812 415 264 415 c 2
 158 415 l 2
 155.333007812 415 154 416.333007812 154 419 c 2
EndSplineSet
EndChar

StartChar: parenleft
Encoding: 40 40 9
Width: 378
GlyphClass: 2
Flags: W
LayerCount: 2
Fore
SplineSet
127.5 -134 m 0
 89.1669921875 -101.333007812 69.998046875 -50.33203125 69.998046875 19.0009765625 c 0
 69.998046875 53.0009765625 74.998046875 91.333984375 84.998046875 134.000976562 c 2
 171.998046875 512.000976562 l 2
 196.665039062 620.000976562 239.998046875 699.833984375 301.998046875 751.500976562 c 0
 363.998046875 803.16796875 437.331054688 829.334960938 521.998046875 830.001953125 c 0
 525.998046875 830.001953125 527.331054688 828.334960938 525.998046875 825.001953125 c 2
 498.998046875 706.001953125 l 2
 497.665039062 702.668945312 495.665039062 701.001953125 492.998046875 701.001953125 c 0
 456.998046875 700.334960938 424.331054688 684.16796875 394.998046875 652.500976562 c 0
 365.665039062 620.833984375 343.33203125 572.000976562 327.999023438 506.000976562 c 2
 243.999023438 141.000976562 l 2
 235.999023438 106.333984375 231.999023438 76.6669921875 231.999023438 52 c 0
 231.999023438 15.3330078125 239.83203125 -11.5 255.499023438 -28.5 c 0
 271.166015625 -45.5 291.999023438 -54 317.999023438 -54 c 0
 321.999023438 -54 323.33203125 -55.6669921875 321.999023438 -59 c 2
 294.999023438 -178 l 2
 293.666015625 -181.333007812 291.333007812 -183 288 -183 c 0
 219.333007812 -183 165.833007812 -166.666992188 127.5 -134 c 0
EndSplineSet
EndChar

StartChar: parenright
Encoding: 41 41 10
Width: 378
GlyphClass: 2
Flags: W
LayerCount: 2
Fore
SplineSet
4 -178 m 2
 32.0009765625 -59.0009765625 l 2
 32.0009765625 -55.66796875 34.0009765625 -54.0009765625 38.0009765625 -54.0009765625 c 0
 73.333984375 -54.0009765625 105.666992188 -38.5009765625 135 -7.5009765625 c 0
 164.333007812 23.4990234375 187 72.9990234375 203 140.999023438 c 2
 287 505.999023438 l 2
 294.333007812 535.999023438 298 564.33203125 298 590.999023438 c 0
 298 627.666015625 290.333007812 654.999023438 275 672.999023438 c 0
 259.666992188 690.999023438 238.666992188 700.33203125 212 700.999023438 c 0
 208 700.999023438 206.666992188 702.666015625 208 705.999023438 c 2
 236 824.999023438 l 2
 236 828.33203125 238 829.999023438 242 829.999023438 c 0
 310 829.33203125 363.333007812 812.33203125 402 778.999023438 c 0
 440.666992188 745.666015625 460 694.333007812 460 625 c 0
 460 591.666992188 455 554 445 512 c 2
 358 134 l 2
 332.666992188 24 289.5 -56.3330078125 228.5 -107 c 0
 167.5 -157.666992188 94 -183 8 -183 c 0
 4 -183 2.6669921875 -181.333007812 4 -178 c 2
EndSplineSet
EndChar

StartChar: asterisk
Encoding: 42 42 11
Width: 456
GlyphClass: 2
Flags: W
LayerCount: 2
Fore
SplineSet
551.5 589 m 0
 550.5 587.666992188 549.33203125 586.665039062 547.999023438 585.998046875 c 2
 444.999023438 531.998046875 l 1
 523.999023438 476.998046875 l 2
 525.999023438 474.998046875 525.666015625 472.665039062 522.999023438 469.998046875 c 2
 458.999023438 396.998046875 l 2
 458.33203125 395.665039062 457.33203125 394.83203125 455.999023438 394.499023438 c 0
 454.666015625 394.166015625 453.333007812 394.333007812 452 395 c 2
 380 445 l 1
 358 350 l 2
 356.666992188 346.666992188 354.333984375 345 351.000976562 345 c 2
 264.000976562 345 l 2
 260.66796875 345 259.66796875 346.666992188 261.000976562 350 c 2
 283.000976562 446 l 1
 187.000976562 395 l 2
 186.333984375 394.333007812 185.333984375 394 184.000976562 394 c 0
 182.66796875 394 181.66796875 394.666992188 181.000976562 396 c 2
 149.000976562 470 l 2
 149.000976562 472.666992188 150.333984375 475 153.000976562 477 c 2
 255.000976562 530 l 1
 177.000976562 584 l 2
 176.333984375 584.666992188 176.000976562 585.833984375 176.000976562 587.500976562 c 0
 176.000976562 589.16796875 176.66796875 590.66796875 178.000976562 592.000976562 c 2
 243.000976562 665.000976562 l 2
 243.66796875 666.333984375 244.500976562 667.166992188 245.500976562 667.5 c 0
 246.500976562 667.833007812 247.66796875 667.666015625 249.000976562 666.999023438 c 2
 322.000976562 615.999023438 l 1
 344.000976562 711.999023438 l 2
 345.333984375 715.33203125 347.333984375 716.999023438 350.000976562 716.999023438 c 2
 437.000976562 716.999023438 l 2
 441.000976562 716.999023438 442.333984375 715.33203125 441.000976562 711.999023438 c 2
 419.000976562 616.999023438 l 1
 515.000976562 666.999023438 l 2
 518.333984375 668.999023438 520.666992188 668.666015625 522 665.999023438 c 2
 552 592.999023438 l 2
 552.666992188 591.666015625 552.5 590.333007812 551.5 589 c 0
EndSplineSet
EndChar

StartChar: plus
Encoding: 43 43 12
Width: 540
GlyphClass: 2
Flags: W
LayerCount: 2
Fore
SplineSet
578 403 m 2
 552 292 l 2
 550.666992188 288.666992188 548.666992188 287 546 287 c 2
 396 287 l 1
 362 138 l 2
 362 134.666992188 360 133 356 133 c 2
 245 133 l 2
 241 133 239.666992188 134.666992188 241 138 c 2
 275 287 l 1
 127 287 l 2
 123 287 121.666992188 288.666992188 123 292 c 2
 149 403 l 2
 149 406.333007812 151 408 155 408 c 2
 304 408 l 1
 338 557 l 2
 339.333007812 560.333007812 341.333007812 562 344 562 c 2
 455 562 l 2
 459 562 460.333007812 560.333007812 459 557 c 2
 425 408 l 1
 574 408 l 2
 576.666992188 408 578 406.333007812 578 403 c 2
EndSplineSet
EndChar

StartChar: comma
Encoding: 44 44 13
Width: 268
GlyphClass: 2
Flags: W
LayerCount: 2
Fore
SplineSet
41 -105 m 2
 52.9970703125 -54 l 2
 54.330078125 -50.6669921875 56.330078125 -49 58.9970703125 -49 c 2
 104.997070312 -49 l 2
 115.6640625 -49 123.331054688 -47.3330078125 127.998046875 -44 c 0
 132.665039062 -40.6669921875 135.998046875 -34.6669921875 137.998046875 -26 c 2
 143.998046875 0 l 1
 69.998046875 0 l 2
 65.998046875 0 64.6650390625 1.6669921875 65.998046875 5 c 2
 100.998046875 153 l 2
 100.998046875 156.333007812 102.998046875 158 106.998046875 158 c 2
 259.998046875 158 l 2
 261.331054688 158 262.331054688 157.5 262.998046875 156.5 c 0
 263.665039062 155.5 263.665039062 154.333007812 262.998046875 153 c 2
 218.998046875 -39 l 2
 213.665039062 -62.3330078125 202.83203125 -80 186.499023438 -92 c 0
 170.166015625 -104 150.333007812 -110 127 -110 c 2
 45 -110 l 2
 42.3330078125 -110 41 -108.333007812 41 -105 c 2
EndSplineSet
EndChar

StartChar: hyphen
Encoding: 45 45 14
Width: 430
GlyphClass: 2
Flags: W
LayerCount: 2
Fore
SplineSet
106 220 m 2
 132 331 l 2
 133.333007812 334.333007812 135.333007812 336 138 336 c 2
 447 336 l 2
 451 336 452.333007812 334.333007812 451 331 c 2
 425 220 l 2
 423.666992188 216.666992188 421.666992188 215 419 215 c 2
 110 215 l 2
 106 215 104.666992188 216.666992188 106 220 c 2
EndSplineSet
EndChar

StartChar: period
Encoding: 46 46 15
Width: 243
GlyphClass: 2
Flags: W
LayerCount: 2
Fore
SplineSet
41 5 m 2
 76 154 l 2
 76 155.333007812 76.5 156.333007812 77.5 157 c 0
 78.5 157.666992188 79.6669921875 158 81 158 c 2
 234 158 l 2
 235.333007812 158 236.5 157.666992188 237.5 157 c 0
 238.5 156.333007812 238.666992188 155.333007812 238 154 c 2
 204 5 l 2
 202.666992188 1.6669921875 200.666992188 0 198 0 c 2
 45 0 l 2
 41 0 39.6669921875 1.6669921875 41 5 c 2
EndSplineSet
EndChar

StartChar: slash
Encoding: 47 47 16
Width: 519
GlyphClass: 2
Flags: W
LayerCount: 2
Fore
SplineSet
-17 -115 m 2
 557 795 l 2
 559 798.333007812 561 800 563 800 c 2
 690 800 l 2
 693.333007812 800 694 798.333007812 692 795 c 2
 119 -115 l 2
 117 -118.333007812 115 -120 113 -120 c 2
 -14 -120 l 2
 -17.3330078125 -120 -18.3330078125 -118.333007812 -17 -115 c 2
EndSplineSet
Substitution2: "'frac' Diagonal Fractions in Latin lookup 16 subtable" fraction
Substitution2: "'aalt' Access All Alternates in Latin lookup 0 subtable" fraction
EndChar

StartChar: zero
Encoding: 48 48 17
Width: 663
GlyphClass: 2
Flags: W
LayerCount: 2
Fore
SplineSet
160 33.5 m 0
 119.333007812 62.5 99 106.665039062 99 165.998046875 c 0
 99 186.665039062 102 209.998046875 108 235.998046875 c 2
 163 471.998046875 l 2
 181.666992188 553.998046875 220.5 615.331054688 279.5 655.998046875 c 0
 338.5 696.665039062 410.666992188 716.998046875 496 716.998046875 c 0
 570 716.998046875 627 702.831054688 667 674.498046875 c 0
 707 646.165039062 727 602.998046875 727 544.998046875 c 0
 727 523.665039062 724 499.33203125 718 471.999023438 c 2
 663 235.999023438 l 2
 644.333007812 152.666015625 606 90.8330078125 548 50.5 c 0
 490 10.1669921875 416.666992188 -10 328 -10 c 0
 256.666992188 -10 200.666992188 4.5 160 33.5 c 0
495 241.998046875 m 2
 546 465.999023438 l 2
 550 481.999023438 552 496.666015625 552 509.999023438 c 0
 552 558.666015625 523.333007812 582.999023438 466 582.999023438 c 0
 394.666992188 582.999023438 349.666992188 543.999023438 331 465.999023438 c 2
 280 241.999023438 l 2
 276.666992188 225.33203125 275 211.665039062 275 200.998046875 c 0
 275 150.331054688 303.333007812 124.998046875 360 124.998046875 c 0
 432 124.998046875 477 163.998046875 495 241.998046875 c 2
EndSplineSet
Substitution2: "'frac' Diagonal Fractions in Latin lookup 17 subtable" zero.numr
Substitution2: "'dnom' Denominators in Latin lookup 15 subtable" zero.dnom
Substitution2: "'numr' Numerators in Latin lookup 14 subtable" zero.numr
Substitution2: "'sups' Superscript in Latin lookup 13 subtable" uni2070
Substitution2: "'sinf' Scientific Inferiors in Latin lookup 12 subtable" uni2080
Substitution2: "'subs' Subscript in Latin lookup 11 subtable" uni2080
AlternateSubs2: "'aalt' Access All Alternates in Latin lookup 1 subtable" uni2080 uni2070 zero.numr zero.dnom
EndChar

StartChar: one
Encoding: 49 49 18
Width: 361
GlyphClass: 2
Flags: W
LayerCount: 2
Fore
SplineSet
122 5 m 2
 236 499 l 1
 135 499 l 2
 131.666992188 499 130.666992188 500.666992188 132 504 c 2
 160 627 l 2
 161.333007812 630.333007812 163.333007812 632 166 632 c 2
 211 632 l 2
 248.333007812 632 271 650.333007812 279 687 c 2
 284 703 l 2
 284 706.333007812 286 708 290 708 c 2
 450 708 l 2
 452.666992188 708 454 706.333007812 454 703 c 2
 292 5 l 2
 290.666992188 1.6669921875 288.666992188 0 286 0 c 2
 126 0 l 2
 122 0 120.666992188 1.6669921875 122 5 c 2
EndSplineSet
Substitution2: "'frac' Diagonal Fractions in Latin lookup 17 subtable" one.numr
Substitution2: "'dnom' Denominators in Latin lookup 15 subtable" one.dnom
Substitution2: "'numr' Numerators in Latin lookup 14 subtable" one.numr
Substitution2: "'sups' Superscript in Latin lookup 13 subtable" uni00B9
Substitution2: "'sinf' Scientific Inferiors in Latin lookup 12 subtable" uni2081
Substitution2: "'subs' Subscript in Latin lookup 11 subtable" uni2081
AlternateSubs2: "'aalt' Access All Alternates in Latin lookup 1 subtable" uni2081 uni00B9 one.numr one.dnom
EndChar

StartChar: two
Encoding: 50 50 19
Width: 636
GlyphClass: 2
Flags: W
LayerCount: 2
Fore
SplineSet
654 687.5 m 0
 693.333007812 667.166992188 712.998046875 634.665039062 712.998046875 589.998046875 c 0
 712.998046875 574.665039062 711.331054688 560.33203125 707.998046875 546.999023438 c 2
 695.998046875 497.999023438 l 2
 687.998046875 463.999023438 670.998046875 433.999023438 644.998046875 407.999023438 c 0
 618.998046875 381.999023438 589.831054688 359.999023438 557.498046875 341.999023438 c 0
 525.165039062 323.999023438 483.998046875 303.666015625 433.998046875 280.999023438 c 0
 377.331054688 254.999023438 334.831054688 232.83203125 306.498046875 214.499023438 c 0
 278.165039062 196.166015625 261.33203125 174.999023438 255.999023438 150.999023438 c 2
 251.999023438 133.999023438 l 1
 445.999023438 133.999023438 l 1
 473.999023438 253.999023438 l 2
 475.33203125 257.33203125 477.33203125 258.999023438 479.999023438 258.999023438 c 2
 632.999023438 258.999023438 l 2
 636.999023438 258.999023438 638.33203125 257.33203125 636.999023438 253.999023438 c 2
 578.999023438 4.9990234375 l 2
 577.666015625 1.666015625 575.666015625 -0.0009765625 572.999023438 -0.0009765625 c 2
 50.9990234375 -0.0009765625 l 1
 78.9990234375 119.999023438 l 2
 89.666015625 165.33203125 110.333007812 204.83203125 141 238.499023438 c 0
 171.666992188 272.166015625 205.166992188 299.666015625 241.5 320.999023438 c 0
 277.833007812 342.33203125 323.333007812 365.999023438 378 391.999023438 c 0
 426.666992188 414.666015625 462.5 433.166015625 485.5 447.499023438 c 0
 508.5 461.83203125 522 478.33203125 526 496.999023438 c 2
 535 534.999023438 l 2
 536.333007812 541.666015625 537 546.333007812 537 549 c 0
 537 561 530.333007812 569.833007812 517 575.5 c 0
 503.666992188 581.166992188 481 584 449 584 c 0
 415 584 390.166992188 579.333007812 374.5 570 c 0
 358.833007812 560.666992188 348.333007812 545 343 523 c 2
 328 455 l 2
 326.666992188 451.666992188 324.333984375 450 321.000976562 450 c 2
 161.000976562 450 l 2
 157.66796875 450 156.66796875 451.666992188 158.000976562 455 c 2
 177.000976562 541 l 2
 191.66796875 603 224.500976562 648 275.500976562 676 c 0
 326.500976562 704 394.333984375 718 479.000976562 718 c 0
 556.333984375 718 614.666992188 707.833007812 654 687.5 c 0
EndSplineSet
Substitution2: "'frac' Diagonal Fractions in Latin lookup 17 subtable" two.numr
Substitution2: "'dnom' Denominators in Latin lookup 15 subtable" two.dnom
Substitution2: "'numr' Numerators in Latin lookup 14 subtable" two.numr
Substitution2: "'sups' Superscript in Latin lookup 13 subtable" uni00B2
Substitution2: "'sinf' Scientific Inferiors in Latin lookup 12 subtable" uni2082
Substitution2: "'subs' Subscript in Latin lookup 11 subtable" uni2082
AlternateSubs2: "'aalt' Access All Alternates in Latin lookup 1 subtable" uni2082 uni00B2 two.numr two.dnom
EndChar

StartChar: three
Encoding: 51 51 20
Width: 632
GlyphClass: 2
Flags: W
LayerCount: 2
Fore
SplineSet
83 127 m 0
 83 141 85.0029296875 156.33203125 89.0029296875 172.999023438 c 2
 107.002929688 253.999023438 l 2
 108.3359375 257.33203125 110.668945312 258.999023438 114.001953125 258.999023438 c 2
 274.001953125 258.999023438 l 2
 277.334960938 258.999023438 278.334960938 257.33203125 277.001953125 253.999023438 c 2
 262.001953125 185.999023438 l 2
 260.668945312 181.33203125 260.001953125 174.999023438 260.001953125 166.999023438 c 0
 260.001953125 152.33203125 266.001953125 141.499023438 278.001953125 134.499023438 c 0
 290.001953125 127.499023438 310.668945312 123.999023438 340.001953125 123.999023438 c 0
 378.668945312 123.999023438 406.168945312 128.166015625 422.501953125 136.499023438 c 0
 438.834960938 144.83203125 449.001953125 158.33203125 453.001953125 176.999023438 c 2
 469.001953125 245.999023438 l 2
 470.334960938 253.999023438 471.001953125 258.999023438 471.001953125 260.999023438 c 0
 471.001953125 272.999023438 465.834960938 281.33203125 455.501953125 285.999023438 c 0
 445.168945312 290.666015625 427.668945312 292.999023438 403.001953125 292.999023438 c 2
 313.001953125 292.999023438 l 2
 309.668945312 292.999023438 308.668945312 294.666015625 310.001953125 297.999023438 c 2
 336.001953125 413.999023438 l 2
 337.334960938 417.999023438 339.66796875 419.999023438 343.000976562 419.999023438 c 2
 430.000976562 419.999023438 l 2
 456.66796875 419.999023438 476.000976562 423.33203125 488.000976562 429.999023438 c 0
 500.000976562 436.666015625 508.000976562 448.666015625 512.000976562 465.999023438 c 2
 528.000976562 533.999023438 l 2
 529.333984375 540.666015625 530.000976562 545.666015625 530.000976562 548.999023438 c 0
 530.000976562 560.999023438 523.66796875 569.83203125 511.000976562 575.499023438 c 0
 498.333984375 581.166015625 476.333984375 583.999023438 445.000976562 583.999023438 c 0
 414.333984375 583.999023438 391.166992188 578.83203125 375.5 568.499023438 c 0
 359.833007812 558.166015625 349.666015625 543.333007812 344.999023438 524 c 2
 328.999023438 456 l 2
 327.666015625 452.666992188 325.666015625 451 322.999023438 451 c 2
 162.999023438 451 l 2
 158.999023438 451 157.666015625 452.666992188 158.999023438 456 c 2
 177.999023438 537 l 2
 191.999023438 597.666992188 224.499023438 643 275.499023438 673 c 0
 326.499023438 703 392.999023438 718 474.999023438 718 c 0
 552.999023438 718 611.166015625 708 649.499023438 688 c 0
 687.83203125 668 706.999023438 636.333007812 706.999023438 593 c 0
 706.999023438 577 705.33203125 562.666992188 701.999023438 550 c 2
 686.999023438 485 l 2
 670.999023438 418.333007812 631.666015625 378 568.999023438 364 c 1
 567.999023438 356 l 1
 617.33203125 346.666992188 641.999023438 320 641.999023438 276 c 0
 641.999023438 266 640.33203125 253.333007812 636.999023438 238 c 2
 619.999023438 164 l 2
 605.999023438 104 573.83203125 60 523.499023438 32 c 0
 473.166015625 4 402.333007812 -10 311 -10 c 0
 159 -10 83 35.6669921875 83 127 c 0
EndSplineSet
Substitution2: "'frac' Diagonal Fractions in Latin lookup 17 subtable" three.numr
Substitution2: "'dnom' Denominators in Latin lookup 15 subtable" three.dnom
Substitution2: "'numr' Numerators in Latin lookup 14 subtable" three.numr
Substitution2: "'sups' Superscript in Latin lookup 13 subtable" uni00B3
Substitution2: "'sinf' Scientific Inferiors in Latin lookup 12 subtable" uni2083
Substitution2: "'subs' Subscript in Latin lookup 11 subtable" uni2083
AlternateSubs2: "'aalt' Access All Alternates in Latin lookup 1 subtable" uni2083 uni00B3 three.numr three.dnom
EndChar

StartChar: four
Encoding: 52 52 21
Width: 626
GlyphClass: 2
Flags: W
LayerCount: 2
Fore
SplineSet
355 5 m 2
 391 158 l 1
 56 158 l 1
 83 271 l 1
 470 703 l 2
 472 706.333007812 474.666992188 708 478 708 c 2
 683 708 l 2
 685.666992188 708 687 706.333007812 687 703 c 2
 591 289 l 1
 667 289 l 2
 668.333007812 289 669.5 288.666992188 670.5 288 c 0
 671.5 287.333007812 671.666992188 286.333007812 671 285 c 2
 643 163 l 2
 641.666992188 159.666992188 639.666992188 158 637 158 c 2
 561 158 l 1
 525 5 l 2
 523.666992188 1.6669921875 521.666992188 0 519 0 c 2
 359 0 l 2
 355 0 353.666992188 1.6669921875 355 5 c 2
421 289 m 1
 443 384 l 2
 449 410.666992188 458.333007812 441.666992188 471 477 c 0
 483.666992188 512.333007812 494.666992188 541.333007812 504 564 c 1
 494 564 l 1
 256 289 l 1
 421 289 l 1
EndSplineSet
Substitution2: "'frac' Diagonal Fractions in Latin lookup 17 subtable" four.numr
Substitution2: "'dnom' Denominators in Latin lookup 15 subtable" four.dnom
Substitution2: "'numr' Numerators in Latin lookup 14 subtable" four.numr
Substitution2: "'sups' Superscript in Latin lookup 13 subtable" uni2074
Substitution2: "'sinf' Scientific Inferiors in Latin lookup 12 subtable" uni2084
Substitution2: "'subs' Subscript in Latin lookup 11 subtable" uni2084
AlternateSubs2: "'aalt' Access All Alternates in Latin lookup 1 subtable" uni2084 uni2074 four.numr four.dnom
EndChar

StartChar: five
Encoding: 53 53 22
Width: 629
GlyphClass: 2
Flags: W
LayerCount: 2
Fore
SplineSet
723 699 m 2
 695.99609375 582 l 2
 694.663085938 576.666992188 692.330078125 574 688.997070312 574 c 2
 362.997070312 574 l 1
 326.997070312 418 l 1
 333.997070312 418 l 1
 372.6640625 459.333007812 431.331054688 480 509.998046875 480 c 0
 561.331054688 480 599.831054688 471.666992188 625.498046875 455 c 0
 651.165039062 438.333007812 663.998046875 410 663.998046875 370 c 0
 663.998046875 351.333007812 660.998046875 329.333007812 654.998046875 304 c 2
 628.998046875 191 l 2
 598.331054688 57.6669921875 495.998046875 -9 321.998046875 -9 c 0
 248.665039062 -9 192.83203125 3.1669921875 154.499023438 27.5 c 0
 116.166015625 51.8330078125 96.9990234375 88 96.9990234375 136 c 0
 96.9990234375 152.666992188 98.666015625 168 101.999023438 182 c 2
 117.999023438 250 l 2
 117.999023438 253.333007812 119.999023438 255 123.999023438 255 c 2
 283.999023438 255 l 2
 286.666015625 255 287.999023438 253.333007812 287.999023438 250 c 2
 273.999023438 189 l 2
 272.666015625 184.333007812 271.999023438 178.333007812 271.999023438 171 c 0
 271.999023438 139 298.33203125 123 350.999023438 123 c 0
 382.999023438 123 407.666015625 128.5 424.999023438 139.5 c 0
 442.33203125 150.5 453.999023438 168 459.999023438 192 c 2
 482.999023438 296 l 2
 484.33203125 300.666992188 484.999023438 306.666992188 484.999023438 314 c 0
 484.999023438 329.333007812 478.83203125 340.5 466.499023438 347.5 c 0
 454.166015625 354.5 433.999023438 358 405.999023438 358 c 0
 374.666015625 358 350.333007812 354 333 346 c 0
 315.666992188 338 305.666992188 327.666992188 303 315 c 2
 301 309 l 2
 301 305.666992188 299 304 295 304 c 2
 135 304 l 2
 132.333007812 304 131 305.666992188 131 309 c 2
 223 703 l 2
 223 706.333007812 225 708 229 708 c 2
 720 708 l 2
 723.333007812 708 724.333007812 705 723 699 c 2
EndSplineSet
Substitution2: "'frac' Diagonal Fractions in Latin lookup 17 subtable" five.numr
Substitution2: "'dnom' Denominators in Latin lookup 15 subtable" five.dnom
Substitution2: "'numr' Numerators in Latin lookup 14 subtable" five.numr
Substitution2: "'sups' Superscript in Latin lookup 13 subtable" uni2075
Substitution2: "'sinf' Scientific Inferiors in Latin lookup 12 subtable" uni2085
Substitution2: "'subs' Subscript in Latin lookup 11 subtable" uni2085
AlternateSubs2: "'aalt' Access All Alternates in Latin lookup 1 subtable" uni2085 uni2075 five.numr five.dnom
EndChar

StartChar: six
Encoding: 54 54 23
Width: 658
GlyphClass: 2
Flags: W
LayerCount: 2
Fore
SplineSet
664 682 m 0
 703.333007812 658 723.002929688 621.999023438 723.002929688 573.999023438 c 0
 723.002929688 559.33203125 721.002929688 543.999023438 717.002929688 527.999023438 c 2
 700.002929688 456.999023438 l 2
 700.002929688 453.666015625 698.002929688 451.999023438 694.002929688 451.999023438 c 2
 534.002929688 451.999023438 l 2
 531.3359375 451.999023438 530.002929688 453.666015625 530.002929688 456.999023438 c 2
 544.002929688 515.999023438 l 2
 545.3359375 523.999023438 546.002929688 529.666015625 546.002929688 532.999023438 c 0
 546.002929688 566.999023438 519.3359375 583.999023438 466.002929688 583.999023438 c 0
 430.002929688 583.999023438 401.169921875 574.499023438 379.502929688 555.499023438 c 0
 357.8359375 536.499023438 342.002929688 504.999023438 332.002929688 460.999023438 c 2
 309.002929688 361.999023438 l 1
 317.002929688 361.999023438 l 1
 339.002929688 381.999023438 363.8359375 397.33203125 391.502929688 407.999023438 c 0
 419.169921875 418.666015625 456.336914062 423.999023438 503.00390625 423.999023438 c 0
 555.670898438 423.999023438 595.670898438 415.499023438 623.00390625 398.499023438 c 0
 650.336914062 381.499023438 664.00390625 353.666015625 664.00390625 314.999023438 c 0
 664.00390625 300.999023438 662.00390625 284.999023438 658.00390625 266.999023438 c 2
 638.00390625 177.999023438 l 2
 623.336914062 114.666015625 589.169921875 67.4990234375 535.502929688 36.4990234375 c 0
 481.8359375 5.4990234375 412.668945312 -10.0009765625 328.001953125 -10.0009765625 c 0
 256.001953125 -10.0009765625 199.834960938 3.33203125 159.501953125 29.9990234375 c 0
 119.168945312 56.666015625 99.001953125 99.3330078125 99.001953125 158 c 0
 99.001953125 179.333007812 102.001953125 203 108.001953125 229 c 2
 165.001953125 474 l 2
 184.334960938 558 222.66796875 619.666992188 280.000976562 659 c 0
 337.333984375 698.333007812 409.000976562 718 495.000976562 718 c 0
 568.333984375 718 624.666992188 706 664 682 c 0
285.002929688 258.999023438 m 1
 271.00390625 199.000976562 l 2
 269.00390625 191.000976562 268.00390625 183.66796875 268.00390625 177.000976562 c 0
 268.00390625 139.66796875 297.670898438 121.000976562 357.00390625 121.000976562 c 0
 391.00390625 121.000976562 416.836914062 125.66796875 434.50390625 135.000976562 c 0
 452.170898438 144.333984375 463.337890625 159.666992188 468.004882812 181 c 2
 486.004882812 256 l 2
 486.671875 258.666992188 487.004882812 262 487.004882812 266 c 0
 487.004882812 279.333007812 480.171875 289 466.504882812 295 c 0
 452.837890625 301 431.004882812 304 401.004882812 304 c 0
 366.337890625 304 339.170898438 299.666992188 319.50390625 291 c 0
 299.836914062 282.333007812 288.669921875 271.666015625 286.002929688 258.999023438 c 1
 285.002929688 258.999023438 l 1
EndSplineSet
Substitution2: "'frac' Diagonal Fractions in Latin lookup 17 subtable" six.numr
Substitution2: "'dnom' Denominators in Latin lookup 15 subtable" six.dnom
Substitution2: "'numr' Numerators in Latin lookup 14 subtable" six.numr
Substitution2: "'sups' Superscript in Latin lookup 13 subtable" uni2076
Substitution2: "'sinf' Scientific Inferiors in Latin lookup 12 subtable" uni2086
Substitution2: "'subs' Subscript in Latin lookup 11 subtable" uni2086
AlternateSubs2: "'aalt' Access All Alternates in Latin lookup 1 subtable" uni2086 uni2076 six.numr six.dnom
EndChar

StartChar: seven
Encoding: 55 55 24
Width: 583
GlyphClass: 2
Flags: W
LayerCount: 2
Fore
SplineSet
717 703 m 2
 690.000976562 585.998046875 l 2
 682.000976562 550.665039062 668.833984375 517.33203125 650.500976562 485.999023438 c 0
 632.16796875 454.666015625 612.334960938 426.666015625 591.001953125 401.999023438 c 0
 569.668945312 377.33203125 541.001953125 345.999023438 505.001953125 307.999023438 c 0
 471.668945312 273.33203125 445.168945312 244.499023438 425.501953125 221.499023438 c 0
 405.834960938 198.499023438 387.66796875 173.33203125 371.000976562 145.999023438 c 0
 354.333984375 118.666015625 342.666992188 89.9990234375 336 59.9990234375 c 2
 323 4.9990234375 l 2
 321.666992188 1.666015625 319.666992188 -0.0009765625 317 -0.0009765625 c 2
 142 -0.0009765625 l 2
 138 -0.0009765625 136.666992188 1.666015625 138 4.9990234375 c 2
 152 63.9990234375 l 2
 160.666992188 101.999023438 176.166992188 138.83203125 198.5 174.499023438 c 0
 220.833007812 210.166015625 245.333007812 242.333007812 272 271 c 0
 298.666992188 299.666992188 332.333984375 333.666992188 373.000976562 373 c 0
 415.66796875 414.333007812 447.66796875 447.5 469.000976562 472.5 c 0
 490.333984375 497.5 503.666992188 521.333007812 509 544 c 2
 515 573 l 1
 327 573 l 1
 300 456 l 2
 300 452.666992188 298 451 294 451 c 2
 139 451 l 2
 136.333007812 451 135 452.666992188 135 456 c 2
 193 703 l 2
 193 706.333007812 195 708 199 708 c 2
 713 708 l 2
 715.666992188 708 717 706.333007812 717 703 c 2
EndSplineSet
Substitution2: "'frac' Diagonal Fractions in Latin lookup 17 subtable" seven.numr
Substitution2: "'dnom' Denominators in Latin lookup 15 subtable" seven.dnom
Substitution2: "'numr' Numerators in Latin lookup 14 subtable" seven.numr
Substitution2: "'sups' Superscript in Latin lookup 13 subtable" uni2077
Substitution2: "'sinf' Scientific Inferiors in Latin lookup 12 subtable" uni2087
Substitution2: "'subs' Subscript in Latin lookup 11 subtable" uni2087
AlternateSubs2: "'aalt' Access All Alternates in Latin lookup 1 subtable" uni2087 uni2077 seven.numr seven.dnom
EndChar

StartChar: eight
Encoding: 56 56 25
Width: 633
GlyphClass: 2
Flags: W
LayerCount: 2
Fore
SplineSet
140 21 m 0
 100.666992188 41.6669921875 81 74 81 118 c 0
 81 129.333007812 82.6669921875 143.333007812 86 160 c 2
 103 236 l 2
 118.333007812 304 161.333007812 344 232 356 c 1
 233 364 l 1
 185 375.333007812 161 403 161 447 c 0
 161 457.666992188 162.666992188 469.666992188 166 483 c 2
 181 549 l 2
 206.333007812 661.666992188 306.333007812 718 481 718 c 0
 558.333007812 718 616.166015625 707.833007812 654.499023438 687.5 c 0
 692.83203125 667.166992188 711.999023438 635.666992188 711.999023438 593 c 0
 711.999023438 579.666992188 709.999023438 565 705.999023438 549 c 2
 690.999023438 483 l 2
 675.666015625 417.666992188 635.333007812 378 570 364 c 1
 568 356 l 1
 618.666992188 346.666992188 644 319.333984375 644 274.000976562 c 0
 644 263.333984375 642.333007812 250.666992188 639 236 c 2
 621 160 l 2
 607.666992188 100.666992188 575.666992188 57.5 525 30.5 c 0
 474.333007812 3.5 404 -10 314 -10 c 0
 237.333007812 -10 179.333007812 0.3330078125 140 21 c 0
489 429.5 m 0
 504.333007812 436.5 513.66796875 448.666015625 517.000976562 465.999023438 c 2
 533.000976562 534.999023438 l 2
 534.333984375 541.666015625 535.000976562 546.333007812 535.000976562 549 c 0
 535.000976562 561.666992188 528.66796875 571 516.000976562 577 c 0
 503.333984375 583 482.000976562 586 452.000976562 586 c 0
 418.000976562 586 393.000976562 582 377.000976562 574 c 0
 361.000976562 566 351.000976562 553 347.000976562 535 c 2
 332.000976562 466 l 2
 330.66796875 459.333007812 330.000976562 455 330.000976562 453 c 0
 330.000976562 441 336.333984375 432.333007812 349.000976562 427 c 0
 361.66796875 421.666992188 383.000976562 418.666992188 413.000976562 418 c 0
 448.333984375 418.666992188 473.666992188 422.5 489 429.5 c 0
424.501953125 132.999023438 m 0
 440.834960938 140.999023438 450.669921875 153.999023438 454.002929688 171.999023438 c 2
 471.002929688 243.999023438 l 2
 472.3359375 250.666015625 473.002929688 255.333007812 473.002929688 258 c 0
 473.002929688 271.333007812 466.3359375 280.666015625 453.002929688 285.999023438 c 0
 439.669921875 291.33203125 417.002929688 293.999023438 385.002929688 293.999023438 c 0
 347.669921875 293.999023438 321.169921875 290.33203125 305.502929688 282.999023438 c 0
 289.8359375 275.666015625 279.668945312 262.666015625 275.001953125 243.999023438 c 2
 259.001953125 171.999023438 l 2
 257.668945312 165.33203125 257.001953125 160.999023438 257.001953125 158.999023438 c 0
 257.001953125 146.33203125 263.834960938 136.83203125 277.501953125 130.499023438 c 0
 291.168945312 124.166015625 313.668945312 120.999023438 345.001953125 120.999023438 c 0
 381.668945312 120.999023438 408.168945312 124.999023438 424.501953125 132.999023438 c 0
EndSplineSet
Substitution2: "'frac' Diagonal Fractions in Latin lookup 17 subtable" eight.numr
Substitution2: "'dnom' Denominators in Latin lookup 15 subtable" eight.dnom
Substitution2: "'numr' Numerators in Latin lookup 14 subtable" eight.numr
Substitution2: "'sups' Superscript in Latin lookup 13 subtable" uni2078
Substitution2: "'sinf' Scientific Inferiors in Latin lookup 12 subtable" uni2088
Substitution2: "'subs' Subscript in Latin lookup 11 subtable" uni2088
AlternateSubs2: "'aalt' Access All Alternates in Latin lookup 1 subtable" uni2088 uni2078 eight.numr eight.dnom
EndChar

StartChar: nine
Encoding: 57 57 26
Width: 646
GlyphClass: 2
Flags: W
LayerCount: 2
Fore
SplineSet
652.5 678 m 0
 692.833007812 651.333007812 713 609 713 551 c 0
 713 529 710 505 704 479 c 2
 649 241 l 2
 629.666992188 156.333007812 591.166992188 93.3330078125 533.5 52 c 0
 475.833007812 10.6669921875 404.666015625 -10 319.999023438 -10 c 0
 246.666015625 -10 190.333007812 2 151 26 c 0
 111.666992188 50 92 86 92 134 c 0
 92 148.666992188 94 164 98 180 c 2
 115 254 l 2
 116.333007812 257.333007812 118.666015625 259 121.999023438 259 c 2
 281.999023438 259 l 2
 285.33203125 259 286.33203125 257.333007812 284.999023438 254 c 2
 270.999023438 192 l 2
 269.666015625 184 268.999023438 178.333007812 268.999023438 175 c 0
 268.999023438 139 295.666015625 121 348.999023438 121 c 0
 384.33203125 121 412.499023438 131 433.499023438 151 c 0
 454.499023438 171 469.999023438 202.666992188 479.999023438 246 c 2
 502.999023438 345 l 1
 495.999023438 345 l 1
 474.666015625 325 449.666015625 309.666992188 420.999023438 299 c 0
 392.33203125 288.333007812 354.999023438 283 308.999023438 283 c 0
 202.33203125 283 148.999023438 320.666992188 148.999023438 396 c 0
 148.999023438 412 150.666015625 427 153.999023438 441 c 2
 174.999023438 529 l 2
 189.666015625 593 223.833007812 640.5 277.5 671.5 c 0
 331.166992188 702.5 400.333984375 718 485.000976562 718 c 0
 556.333984375 718 612.166992188 704.666992188 652.5 678 c 0
544 531 m 0
 544 549.666992188 536.833007812 563.5 522.5 572.5 c 0
 508.166992188 581.5 486 586 456 586 c 0
 422 586 396 581.333007812 378 572 c 0
 360 562.666992188 348.666992188 547.333984375 344 526.000976562 c 2
 327 451.000976562 l 2
 326.333007812 448.333984375 326 444.666992188 326 440 c 0
 326 427.333007812 332.833007812 418 346.5 412 c 0
 360.166992188 406 382 403 412 403 c 0
 446 403 473 407.5 493 416.5 c 0
 513 425.5 524.333007812 436.333007812 527 449 c 2
 541 509 l 2
 543 517 544 524.333007812 544 531 c 0
EndSplineSet
Substitution2: "'frac' Diagonal Fractions in Latin lookup 17 subtable" nine.numr
Substitution2: "'dnom' Denominators in Latin lookup 15 subtable" nine.dnom
Substitution2: "'numr' Numerators in Latin lookup 14 subtable" nine.numr
Substitution2: "'sups' Superscript in Latin lookup 13 subtable" uni2079
Substitution2: "'sinf' Scientific Inferiors in Latin lookup 12 subtable" uni2089
Substitution2: "'subs' Subscript in Latin lookup 11 subtable" uni2089
AlternateSubs2: "'aalt' Access All Alternates in Latin lookup 1 subtable" uni2089 uni2079 nine.numr nine.dnom
EndChar

StartChar: colon
Encoding: 58 58 27
Width: 258
GlyphClass: 2
Flags: W
LayerCount: 2
Fore
SplineSet
49 5 m 2
 84 154 l 2
 84 155.333007812 84.5 156.333007812 85.5 157 c 0
 86.5 157.666992188 87.6669921875 158 89 158 c 2
 242 158 l 2
 243.333007812 158 244.5 157.666992188 245.5 157 c 0
 246.5 156.333007812 246.666992188 155.333007812 246 154 c 2
 212 5 l 2
 210.666992188 1.6669921875 208.666992188 0 206 0 c 2
 53 0 l 2
 49 0 47.6669921875 1.6669921875 49 5 c 2
129 355 m 2
 164 504 l 2
 164 505.333007812 164.5 506.333007812 165.5 507 c 0
 166.5 507.666992188 167.666992188 508 169 508 c 2
 322 508 l 2
 323.333007812 508 324.5 507.666992188 325.5 507 c 0
 326.5 506.333007812 326.666992188 505.333007812 326 504 c 2
 292 355 l 2
 290.666992188 351.666992188 288.666992188 350 286 350 c 2
 133 350 l 2
 129 350 127.666992188 351.666992188 129 355 c 2
EndSplineSet
EndChar

StartChar: semicolon
Encoding: 59 59 28
Width: 258
GlyphClass: 2
Flags: W
LayerCount: 2
Fore
SplineSet
49 -105 m 2
 60.9970703125 -54 l 2
 62.330078125 -50.6669921875 64.330078125 -49 66.9970703125 -49 c 2
 112.997070312 -49 l 2
 123.6640625 -49 131.331054688 -47.3330078125 135.998046875 -44 c 0
 140.665039062 -40.6669921875 143.998046875 -34.6669921875 145.998046875 -26 c 2
 151.998046875 0 l 1
 77.998046875 0 l 2
 73.998046875 0 72.6650390625 1.6669921875 73.998046875 5 c 2
 108.998046875 153 l 2
 108.998046875 156.333007812 110.998046875 158 114.998046875 158 c 2
 267.998046875 158 l 2
 269.331054688 158 270.331054688 157.5 270.998046875 156.5 c 0
 271.665039062 155.5 271.665039062 154.333007812 270.998046875 153 c 2
 226.998046875 -39 l 2
 221.665039062 -62.3330078125 210.83203125 -80 194.499023438 -92 c 0
 178.166015625 -104 158.333007812 -110 135 -110 c 2
 53 -110 l 2
 50.3330078125 -110 49 -108.333007812 49 -105 c 2
128.997070312 355 m 2
 163.997070312 504 l 2
 163.997070312 505.333007812 164.497070312 506.333007812 165.497070312 507 c 0
 166.497070312 507.666992188 167.6640625 508 168.997070312 508 c 2
 321.997070312 508 l 2
 323.330078125 508 324.497070312 507.666992188 325.497070312 507 c 0
 326.497070312 506.333007812 326.6640625 505.333007812 325.997070312 504 c 2
 291.997070312 355 l 2
 290.6640625 351.666992188 288.6640625 350 285.997070312 350 c 2
 132.997070312 350 l 2
 128.997070312 350 127.6640625 351.666992188 128.997070312 355 c 2
EndSplineSet
EndChar

StartChar: less
Encoding: 60 60 29
Width: 398
GlyphClass: 2
Flags: W
LayerCount: 2
Fore
SplineSet
495 605.5 m 0
 497 604.5 497.666992188 602.666015625 497 599.999023438 c 2
 464 454.999023438 l 2
 464 453.666015625 463 452.333007812 461 451 c 2
 271 346 l 1
 413 243 l 2
 413.666992188 242.333007812 414 241 414 239 c 2
 381 95 l 2
 380.333007812 92.3330078125 378.666015625 90.5 375.999023438 89.5 c 0
 373.33203125 88.5 371.33203125 88.6669921875 369.999023438 90 c 2
 88.9990234375 300 l 2
 87.666015625 301.333007812 87.3330078125 302.333007812 88 303 c 2
 108 393 l 1
 111 396 l 1
 489 605 l 2
 491 606.333007812 493 606.5 495 605.5 c 0
EndSplineSet
EndChar

StartChar: equal
Encoding: 61 61 30
Width: 540
GlyphClass: 2
Flags: W
LayerCount: 2
Fore
SplineSet
144 386 m 2
 170 497 l 2
 171.333007812 500.333007812 173.333007812 502 176 502 c 2
 596 502 l 2
 599.333007812 502 600.333007812 500.333007812 599 497 c 2
 573 386 l 2
 573 382.666992188 571 381 567 381 c 2
 148 381 l 2
 145.333007812 381 144 382.666992188 144 386 c 2
95 174 m 2
 121 285 l 2
 122.333007812 288.333007812 124.333007812 290 127 290 c 2
 547 290 l 2
 550.333007812 290 551.333007812 288.333007812 550 285 c 2
 525 174 l 2
 523.666992188 170.666992188 521.666992188 169 519 169 c 2
 99 169 l 2
 96.3330078125 169 95 170.666992188 95 174 c 2
EndSplineSet
EndChar

StartChar: greater
Encoding: 62 62 31
Width: 398
GlyphClass: 2
Flags: W
LayerCount: 2
Fore
SplineSet
471 393 m 2
 449.999023438 303 l 2
 449.999023438 302.333007812 449.33203125 301.333007812 447.999023438 300 c 2
 68.9990234375 90 l 2
 66.9990234375 88.6669921875 64.9990234375 88.5 62.9990234375 89.5 c 0
 60.9990234375 90.5 60.33203125 92.3330078125 60.9990234375 95 c 2
 93.9990234375 239 l 2
 93.9990234375 239.666992188 94.9990234375 241 96.9990234375 243 c 2
 286.999023438 346 l 1
 144.999023438 451 l 2
 144.33203125 451.666992188 143.999023438 453 143.999023438 455 c 2
 176.999023438 600 l 2
 177.666015625 602.666992188 179.333007812 604.5 182 605.5 c 0
 184.666992188 606.5 186.666992188 606.333007812 188 605 c 2
 470 396 l 2
 470.666992188 395.333007812 471 394.333007812 471 393 c 2
EndSplineSet
EndChar

StartChar: question
Encoding: 63 63 32
Width: 591
GlyphClass: 2
Flags: W
LayerCount: 2
Fore
SplineSet
215 199 m 2
 216.998046875 208.000976562 l 2
 224.998046875 242.66796875 238.165039062 272.16796875 256.498046875 296.500976562 c 0
 274.831054688 320.833984375 294.331054688 340.166992188 314.998046875 354.5 c 0
 335.665039062 368.833007812 362.33203125 385 394.999023438 403 c 0
 426.999023438 420.333007812 451.166015625 435.5 467.499023438 448.5 c 0
 483.83203125 461.5 494.33203125 477.666992188 498.999023438 497 c 2
 506.999023438 535 l 2
 508.33203125 541.666992188 508.999023438 546.333984375 508.999023438 549.000976562 c 0
 508.999023438 561.000976562 502.499023438 570.000976562 489.499023438 576.000976562 c 0
 476.499023438 582.000976562 454.33203125 585.000976562 422.999023438 585.000976562 c 0
 390.33203125 585.000976562 365.999023438 580.000976562 349.999023438 570.000976562 c 0
 333.999023438 560.000976562 323.33203125 544.333984375 317.999023438 523.000976562 c 2
 302.999023438 455.000976562 l 2
 301.666015625 451.66796875 299.333007812 450.000976562 296 450.000976562 c 2
 136 450.000976562 l 2
 132.666992188 450.000976562 131.666992188 451.66796875 133 455.000976562 c 2
 152 541.000976562 l 2
 180 659.000976562 279.666992188 718.000976562 451 718.000976562 c 0
 607 718.000976562 685 674.66796875 685 588.000976562 c 0
 685 577.333984375 683.333007812 563.666992188 680 547 c 2
 669 498 l 2
 661 464.666992188 647.666992188 436.166992188 629 412.5 c 0
 610.333007812 388.833007812 590 369.666015625 568 354.999023438 c 0
 546 340.33203125 518 323.999023438 484 305.999023438 c 0
 449.333007812 286.666015625 424 270.833007812 408 258.5 c 0
 392 246.166992188 381.666992188 231 377 213 c 2
 374 199 l 2
 374 195.666992188 372 194 368 194 c 2
 219 194 l 2
 215 194 213.666992188 195.666992188 215 199 c 2
169.998046875 5.0009765625 m 2
 203.998046875 151.000976562 l 2
 205.331054688 154.333984375 207.331054688 156.000976562 209.998046875 156.000976562 c 2
 359.998046875 156.000976562 l 2
 363.998046875 156.000976562 365.331054688 154.333984375 363.998046875 151.000976562 c 2
 329.998046875 5.0009765625 l 2
 328.665039062 1.66796875 326.998046875 0.0009765625 324.998046875 0.0009765625 c 2
 173.998046875 0.0009765625 l 2
 169.998046875 0.0009765625 168.665039062 1.66796875 169.998046875 5.0009765625 c 2
EndSplineSet
EndChar

StartChar: at
Encoding: 64 64 33
Width: 968
GlyphClass: 2
Flags: W
LayerCount: 2
Fore
SplineSet
922.5 648.5 m 0
 985.5 610.166992188 1016.99609375 550.668945312 1016.99609375 470.001953125 c 0
 1016.99609375 445.334960938 1013.32910156 416.334960938 1005.99609375 383.001953125 c 2
 964.99609375 207.001953125 l 2
 948.329101562 135.001953125 915.829101562 82.001953125 867.49609375 48.001953125 c 0
 819.163085938 14.001953125 764.663085938 -2.998046875 703.99609375 -2.998046875 c 0
 657.329101562 -2.998046875 622.829101562 2.1689453125 600.49609375 12.501953125 c 0
 578.163085938 22.8349609375 566.330078125 40.001953125 564.997070312 64.001953125 c 1
 552.997070312 64.001953125 l 1
 523.6640625 18.6689453125 475.6640625 -3.998046875 408.997070312 -3.998046875 c 0
 371.6640625 -3.998046875 343.6640625 4.6689453125 324.997070312 22.001953125 c 0
 306.330078125 39.3349609375 296.997070312 64.66796875 296.997070312 98.0009765625 c 0
 296.997070312 116.000976562 299.330078125 134.333984375 303.997070312 153.000976562 c 2
 341.997070312 318.000976562 l 2
 352.6640625 367.333984375 373.331054688 405.833984375 403.998046875 433.500976562 c 0
 434.665039062 461.16796875 475.665039062 475.000976562 526.998046875 475.000976562 c 0
 565.665039062 475.000976562 592.33203125 468.500976562 606.999023438 455.500976562 c 0
 621.666015625 442.500976562 630.999023438 427.000976562 634.999023438 409.000976562 c 1
 640.999023438 409.000976562 l 1
 652.999023438 462.000976562 l 2
 652.999023438 463.333984375 653.499023438 464.500976562 654.499023438 465.500976562 c 0
 655.499023438 466.500976562 656.666015625 467.000976562 657.999023438 467.000976562 c 2
 796.999023438 467.000976562 l 2
 800.33203125 467.000976562 801.33203125 465.333984375 799.999023438 462.000976562 c 2
 726.999023438 146.000976562 l 2
 725.666015625 136.66796875 724.999023438 130.66796875 724.999023438 128.000976562 c 0
 724.999023438 120.66796875 726.999023438 115.16796875 730.999023438 111.500976562 c 0
 734.999023438 107.833984375 741.999023438 106.000976562 751.999023438 106.000976562 c 0
 771.33203125 106.000976562 788.83203125 114.16796875 804.499023438 130.500976562 c 0
 820.166015625 146.833984375 832.333007812 172.666992188 841 208 c 2
 882 383 l 2
 887.333007812 406.333007812 890 426.333007812 890 443 c 0
 890 499.666992188 867.166992188 539.833984375 821.5 563.500976562 c 0
 775.833007812 587.16796875 711.666015625 599.000976562 628.999023438 599.000976562 c 0
 414.999023438 599.000976562 288.999023438 516.333984375 250.999023438 351.000976562 c 2
 203.999023438 147.000976562 l 2
 197.33203125 115.66796875 193.999023438 90.66796875 193.999023438 72.0009765625 c 0
 193.999023438 12.0009765625 215.83203125 -31.4990234375 259.499023438 -58.4990234375 c 0
 303.166015625 -85.4990234375 366.333007812 -98.9990234375 449 -98.9990234375 c 2
 792 -98.9990234375 l 2
 794.666992188 -98.9990234375 796 -100.666015625 796 -103.999023438 c 2
 773 -200.999023438 l 2
 773 -204.33203125 771 -205.999023438 767 -205.999023438 c 2
 424 -205.999023438 l 2
 308.666992188 -205.999023438 220.5 -185.999023438 159.5 -145.999023438 c 0
 98.5 -105.999023438 68 -42.9990234375 68 43.0009765625 c 0
 68 77.0009765625 72.3330078125 112.66796875 81 150.000976562 c 2
 127 349.000976562 l 2
 155.666992188 474.333984375 216.5 565.166992188 309.5 621.5 c 0
 402.5 677.833007812 517.333007812 706 654 706 c 0
 770 706 859.5 686.833007812 922.5 648.5 c 0
583.99609375 164.001953125 m 1
 615.99609375 302.001953125 l 2
 616.663085938 305.334960938 616.99609375 310.334960938 616.99609375 317.001953125 c 0
 616.99609375 349.668945312 599.663085938 366.001953125 564.99609375 366.001953125 c 0
 520.99609375 366.001953125 493.663085938 343.001953125 482.99609375 297.001953125 c 2
 454.99609375 171.001953125 l 2
 452.99609375 163.001953125 451.99609375 156.001953125 451.99609375 150.001953125 c 0
 451.99609375 120.001953125 469.663085938 105.001953125 504.99609375 105.001953125 c 0
 543.663085938 105.001953125 569.99609375 124.668945312 583.99609375 164.001953125 c 1
EndSplineSet
EndChar

StartChar: A
Encoding: 65 65 34
Width: 619
GlyphClass: 2
Flags: W
AnchorPoint: "Anchor-5" 0 0 basechar 0
AnchorPoint: "Anchor-4" 474 708 basechar 0
AnchorPoint: "Anchor-3" 536 5 basechar 0
AnchorPoint: "Anchor-2" 311 0 basechar 0
LayerCount: 2
Fore
SplineSet
613 5 m 2
 613 1.6669921875 611 0 607 0 c 2
 443 0 l 2
 440.333007812 0 439 1.6669921875 439 5 c 2
 435 138 l 1
 249 138 l 1
 184 5 l 2
 182 1.6669921875 180 0 178 0 c 2
 14 0 l 2
 12.6669921875 0 11.5 0.5 10.5 1.5 c 0
 9.5 2.5 9.3330078125 3.6669921875 10 5 c 2
 349 703 l 2
 350.333007812 706.333007812 352.333007812 708 355 708 c 2
 594 708 l 2
 596 708 597.166992188 707.333007812 597.5 706 c 0
 597.833007812 704.666992188 598 703.666992188 598 703 c 2
 613 5 l 2
431 267 m 1
 428 378 l 2
 428.666992188 405.333007812 431.5 439.5 436.5 480.5 c 0
 441.5 521.5 446 552.333007812 450 573 c 1
 437 573 l 1
 431.666992188 553.666992188 421.666992188 523.5 407 482.5 c 0
 392.333007812 441.5 379.333007812 407 368 379 c 2
 313 267 l 1
 431 267 l 1
EndSplineSet
Substitution2: "Single Substitution lookup 25 subtable" ordfeminine
Substitution2: "'aalt' Access All Alternates in Latin lookup 0 subtable" ordfeminine
EndChar

StartChar: B
Encoding: 66 66 35
Width: 721
GlyphClass: 2
Flags: W
AnchorPoint: "Anchor-5" 0 0 basechar 0
AnchorPoint: "Anchor-4" 480 708 basechar 0
AnchorPoint: "Anchor-3" 0 0 basechar 0
AnchorPoint: "Anchor-2" 317 0 basechar 0
LayerCount: 2
Fore
SplineSet
668.5 682.5 m 0
 698.833007812 665.5 714 638.333007812 714 601 c 0
 714 587 712 572 708 556 c 2
 693 490 l 2
 685 455.333007812 669.333007812 426.5 646 403.5 c 0
 622.666992188 380.5 596 367 566 363 c 1
 564 356 l 1
 589.333007812 352.666992188 609.833007812 343.666992188 625.5 329 c 0
 641.166992188 314.333007812 649 295 649 271 c 0
 649 262.333007812 648 253 646 243 c 2
 627 161 l 2
 614.333007812 105 586.833007812 64.1669921875 544.5 38.5 c 0
 502.166992188 12.8330078125 444 0 370 0 c 2
 75 0 l 2
 71 0 69.6669921875 1.6669921875 71 5 c 2
 233 703 l 2
 233 706.333007812 235 708 239 708 c 2
 529 708 l 2
 591.666992188 708 638.166992188 699.5 668.5 682.5 c 0
537 545 m 0
 537 555.666992188 533.33203125 563.5 525.999023438 568.5 c 0
 518.666015625 573.5 506.333007812 576 489 576 c 2
 373 576 l 1
 337 418 l 1
 455 418 l 2
 474.333007812 418 489 421.666992188 499 429 c 0
 509 436.333007812 516 448.333007812 520 465 c 2
 535 529 l 2
 536.333007812 537 537 542.333007812 537 545 c 0
478.999023438 265 m 0
 478.999023438 275 475.331054688 282.333007812 467.998046875 287 c 0
 460.665039062 291.666992188 449.33203125 294 433.999023438 294 c 2
 307.999023438 294 l 1
 269.999023438 132 l 1
 393.999023438 132 l 2
 413.999023438 132 429.33203125 136 439.999023438 144 c 0
 450.666015625 152 457.666015625 163.666992188 460.999023438 179 c 2
 476.999023438 248 l 2
 478.33203125 252 478.999023438 257.666992188 478.999023438 265 c 0
EndSplineSet
EndChar

StartChar: C
Encoding: 67 67 36
Width: 734
GlyphClass: 2
Flags: W
AnchorPoint: "Anchor-5" 0 0 basechar 0
AnchorPoint: "Anchor-4" 492 708 basechar 0
AnchorPoint: "Anchor-3" 0 0 basechar 0
AnchorPoint: "Anchor-2" 329 0 basechar 0
LayerCount: 2
Fore
SplineSet
160 33 m 0
 119.333007812 61.6669921875 98.998046875 105.666015625 98.998046875 164.999023438 c 0
 98.998046875 186.999023438 101.998046875 211.33203125 107.998046875 237.999023438 c 2
 161.998046875 469.999023438 l 2
 181.998046875 553.999023438 221.165039062 616.166015625 279.498046875 656.499023438 c 0
 337.831054688 696.83203125 410.331054688 716.999023438 496.998046875 716.999023438 c 0
 571.665039062 716.999023438 629.498046875 703.999023438 670.498046875 677.999023438 c 0
 711.498046875 651.999023438 731.998046875 613.999023438 731.998046875 563.999023438 c 0
 731.998046875 549.33203125 729.998046875 533.33203125 725.998046875 515.999023438 c 2
 706.998046875 433.999023438 l 2
 705.665039062 430.666015625 703.665039062 428.999023438 700.998046875 428.999023438 c 2
 539.998046875 428.999023438 l 2
 535.998046875 428.999023438 534.665039062 430.666015625 535.998046875 433.999023438 c 2
 552.998046875 507.999023438 l 2
 554.331054688 515.999023438 554.998046875 521.33203125 554.998046875 523.999023438 c 0
 554.998046875 541.999023438 547.831054688 556.33203125 533.498046875 566.999023438 c 0
 519.165039062 577.666015625 497.33203125 582.999023438 467.999023438 582.999023438 c 0
 394.666015625 582.999023438 349.333007812 544.666015625 332 467.999023438 c 2
 279 239.999023438 l 2
 275.666992188 223.33203125 274 209.999023438 274 199.999023438 c 0
 274 149.999023438 303.333007812 124.999023438 362 124.999023438 c 0
 396 124.999023438 423.333007812 132.33203125 444 146.999023438 c 0
 464.666992188 161.666015625 477.333984375 180.333007812 482.000976562 203 c 2
 502.000976562 286 l 2
 502.000976562 289.333007812 504.000976562 291 508.000976562 291 c 2
 669.000976562 291 l 2
 673.000976562 291 674.333984375 289.333007812 673.000976562 286 c 2
 652.000976562 195 l 2
 636.66796875 128.333007812 600.66796875 77.5 544.000976562 42.5 c 0
 487.333984375 7.5 416.000976562 -10 330.000976562 -10 c 0
 257.333984375 -10 200.666992188 4.3330078125 160 33 c 0
EndSplineSet
EndChar

StartChar: D
Encoding: 68 68 37
Width: 730
GlyphClass: 2
Flags: W
AnchorPoint: "Anchor-5" 246 354 basechar 0
AnchorPoint: "Anchor-4" 473 708 basechar 0
AnchorPoint: "Anchor-3" 0 0 basechar 0
AnchorPoint: "Anchor-2" 330 0 basechar 0
LayerCount: 2
Fore
SplineSet
723 542 m 0
 723 520.666992188 720 497 714 471 c 2
 660 237 l 2
 624 79 512.666992188 0 326 0 c 2
 75 0 l 2
 71 0 69.6669921875 1.6669921875 71 5 c 2
 233 703 l 2
 233 706.333007812 235 708 239 708 c 2
 490 708 l 2
 645.333007812 708 723 652.666992188 723 542 c 0
547 504 m 0
 547 528 539.830078125 545.666992188 525.497070312 557 c 0
 511.1640625 568.333007812 489.331054688 574 459.998046875 574 c 2
 372.998046875 574 l 1
 270.998046875 134 l 1
 357.998046875 134 l 2
 394.665039062 134 423.83203125 142.833007812 445.499023438 160.5 c 0
 467.166015625 178.166992188 482.333007812 206 491 244 c 2
 542 464 l 2
 545.333007812 476.666992188 547 490 547 504 c 0
EndSplineSet
EndChar

StartChar: E
Encoding: 69 69 38
Width: 680
GlyphClass: 2
Flags: W
AnchorPoint: "Anchor-5" 0 0 basechar 0
AnchorPoint: "Anchor-4" 446 708 basechar 0
AnchorPoint: "Anchor-3" 385 3 basechar 0
AnchorPoint: "Anchor-2" 273 0 basechar 0
LayerCount: 2
Fore
SplineSet
667 703 m 2
 637.999023438 580 l 2
 637.999023438 576 635.999023438 574 631.999023438 574 c 2
 372.999023438 574 l 1
 337.999023438 425 l 1
 577.999023438 425 l 2
 580.666015625 425 581.999023438 423.333007812 581.999023438 420 c 2
 553.999023438 299 l 2
 552.666015625 295.666992188 550.333007812 294 547 294 c 2
 308 294 l 1
 271 134 l 1
 530 134 l 2
 534 134 535.333007812 132.333007812 534 129 c 2
 506 5 l 2
 504.666992188 1.6669921875 502.666992188 0 500 0 c 2
 75 0 l 2
 71 0 69.6669921875 1.6669921875 71 5 c 2
 233 703 l 2
 233 706.333007812 235 708 239 708 c 2
 663 708 l 2
 665.666992188 708 667 706.333007812 667 703 c 2
EndSplineSet
EndChar

StartChar: F
Encoding: 70 70 39
Width: 675
GlyphClass: 2
Flags: HW
AnchorPoint: "Anchor-5" 0 0 basechar 0
AnchorPoint: "Anchor-4" 432 708 basechar 0
AnchorPoint: "Anchor-3" 0 0 basechar 0
AnchorPoint: "Anchor-2" 269 0 basechar 0
LayerCount: 2
Fore
SplineSet
667 701 m 2
 638 580 l 2
 638 576 636 574 632 574 c 2
 373 574 l 1
 338 422 l 1
 577 422 l 2
 579.666992188 422 581 420 581 416 c 2
 553 297 l 2
 551.666992188 293 549.666992188 291 547 291 c 2
 307 291 l 1
 241 5 l 2
 239.666992188 1.6669921875 237.666992188 0 235 0 c 2
 75 0 l 2
 71 0 69.6669921875 1.6669921875 71 5 c 2
 233 703 l 2
 233 706.333007812 235 708 239 708 c 2
 663 708 l 2
 665.666992188 708 667 705.666992188 667 701 c 2
EndSplineSet
EndChar

StartChar: G
Encoding: 71 71 40
Width: 745
GlyphClass: 2
Flags: W
AnchorPoint: "Anchor-5" 0 0 basechar 0
AnchorPoint: "Anchor-4" 501 708 basechar 0
AnchorPoint: "Anchor-3" 0 0 basechar 0
AnchorPoint: "Anchor-2" 339 0 basechar 0
LayerCount: 2
Fore
SplineSet
674.5 680 m 0
 715.5 655.333007812 736 618.998046875 736 570.998046875 c 0
 736 556.331054688 734 540.998046875 730 524.998046875 c 2
 714 452.998046875 l 2
 712.666992188 449.665039062 710.666992188 447.998046875 708 447.998046875 c 2
 546 447.998046875 l 2
 542.666992188 447.998046875 541.666992188 449.665039062 543 452.998046875 c 2
 557 516.998046875 l 2
 558.333007812 523.665039062 559 528.665039062 559 531.998046875 c 0
 559 547.998046875 552 560.498046875 538 569.498046875 c 0
 524 578.498046875 502.333007812 582.998046875 473 582.998046875 c 0
 397.666992188 582.998046875 351.333984375 544.665039062 334.000976562 467.998046875 c 2
 282.000976562 241.998046875 l 2
 278.66796875 226.665039062 277.000976562 213.998046875 277.000976562 203.998046875 c 0
 277.000976562 151.998046875 308.000976562 125.998046875 370.000976562 125.998046875 c 0
 403.333984375 125.998046875 430.166992188 132.831054688 450.5 146.498046875 c 0
 470.833007812 160.165039062 483.666015625 179.33203125 488.999023438 203.999023438 c 2
 506.999023438 282.999023438 l 1
 415.999023438 282.999023438 l 2
 412.666015625 282.999023438 411.666015625 285.33203125 412.999023438 289.999023438 c 2
 437.999023438 399.999023438 l 2
 439.33203125 405.33203125 441.665039062 407.999023438 444.998046875 407.999023438 c 2
 697.998046875 407.999023438 l 2
 699.331054688 407.999023438 700.498046875 407.33203125 701.498046875 405.999023438 c 0
 702.498046875 404.666015625 702.665039062 402.999023438 701.998046875 400.999023438 c 2
 675.998046875 289.999023438 l 1
 674.998046875 287.999023438 l 1
 609.998046875 4.9990234375 l 2
 608.665039062 1.666015625 606.665039062 -0.0009765625 603.998046875 -0.0009765625 c 2
 476.998046875 -0.0009765625 l 2
 474.331054688 -0.0009765625 472.998046875 1.666015625 472.998046875 4.9990234375 c 2
 470.998046875 72.9990234375 l 1
 460.998046875 72.9990234375 l 1
 438.998046875 48.33203125 413.831054688 28.33203125 385.498046875 12.9990234375 c 0
 357.165039062 -2.333984375 322.33203125 -10.0009765625 280.999023438 -10.0009765625 c 0
 224.33203125 -10.0009765625 179.83203125 2.9990234375 147.499023438 28.9990234375 c 0
 115.166015625 54.9990234375 98.9990234375 95.666015625 98.9990234375 150.999023438 c 0
 98.9990234375 173.666015625 102.666015625 201.333007812 109.999023438 234 c 2
 164.999023438 470 l 2
 184.33203125 554 223.33203125 616.166992188 281.999023438 656.5 c 0
 340.666015625 696.833007812 413.333007812 717 500 717 c 0
 575.333007812 717 633.5 704.666992188 674.5 680 c 0
EndSplineSet
EndChar

StartChar: H
Encoding: 72 72 41
Width: 764
GlyphClass: 2
Flags: W
AnchorPoint: "Anchor-5" 462 558 basechar 0
AnchorPoint: "Anchor-4" 497 708 basechar 0
AnchorPoint: "Anchor-3" 0 0 basechar 0
AnchorPoint: "Anchor-2" 333 0 basechar 0
LayerCount: 2
Fore
SplineSet
759 703 m 2
 597 5 l 2
 595.666992188 1.6669921875 593.666992188 0 591 0 c 2
 431 0 l 2
 427 0 425.666992188 1.6669921875 427 5 c 2
 494 294 l 1
 308 294 l 1
 241 5 l 2
 239.666992188 1.6669921875 237.666992188 0 235 0 c 2
 75 0 l 2
 71 0 69.6669921875 1.6669921875 71 5 c 2
 233 703 l 2
 233 706.333007812 235 708 239 708 c 2
 399 708 l 2
 401.666992188 708 403 706.333007812 403 703 c 2
 338 425 l 1
 524 425 l 1
 589 703 l 2
 589 706.333007812 591 708 595 708 c 2
 755 708 l 2
 757.666992188 708 759 706.333007812 759 703 c 2
EndSplineSet
EndChar

StartChar: I
Encoding: 73 73 42
Width: 414
GlyphClass: 2
Flags: W
AnchorPoint: "Anchor-5" 0 0 basechar 0
AnchorPoint: "Anchor-4" 319 708 basechar 0
AnchorPoint: "Anchor-3" 164 3 basechar 0
AnchorPoint: "Anchor-2" 155 0 basechar 0
LayerCount: 2
Fore
SplineSet
71 5 m 2
 233 703 l 2
 233 706.333007812 235 708 239 708 c 2
 399 708 l 2
 401.666992188 708 403 706.333007812 403 703 c 2
 241 5 l 2
 239.666992188 1.6669921875 237.666992188 0 235 0 c 2
 75 0 l 2
 71 0 69.6669921875 1.6669921875 71 5 c 2
EndSplineSet
EndChar

StartChar: J
Encoding: 74 74 43
Width: 725
GlyphClass: 2
Flags: W
AnchorPoint: "Anchor-5" 0 0 basechar 0
AnchorPoint: "Anchor-4" 594 708 basechar 0
AnchorPoint: "Anchor-3" 0 0 basechar 0
AnchorPoint: "Anchor-2" 308 0 basechar 0
LayerCount: 2
Fore
SplineSet
72 131 m 0
 72 150.333007812 74.3330078125 169.666015625 79 188.999023438 c 2
 117 354.999023438 l 2
 118.333007812 358.33203125 120.333007812 359.999023438 123 359.999023438 c 2
 283 359.999023438 l 2
 287 359.999023438 288.333007812 358.33203125 287 354.999023438 c 2
 250 195.999023438 l 2
 248 187.999023438 247 180.666015625 247 173.999023438 c 0
 247 141.999023438 268.666992188 125.999023438 312 125.999023438 c 0
 341.333007812 125.999023438 363.333007812 132.83203125 378 146.499023438 c 0
 392.666992188 160.166015625 404 184.333007812 412 219 c 2
 524 703 l 2
 524 706.333007812 526 708 530 708 c 2
 690 708 l 2
 692.666992188 708 694 706.333007812 694 703 c 2
 577 197 l 2
 560.333007812 123.666992188 527.333007812 71.1669921875 478 39.5 c 0
 428.666992188 7.8330078125 362.666992188 -8 280 -8 c 0
 141.333007812 -8 72 38.3330078125 72 131 c 0
EndSplineSet
EndChar

StartChar: K
Encoding: 75 75 44
Width: 787
GlyphClass: 2
Flags: W
AnchorPoint: "Anchor-5" 0 0 basechar 0
AnchorPoint: "Anchor-4" 481 708 basechar 0
AnchorPoint: "Anchor-3" 0 0 basechar 0
AnchorPoint: "Anchor-2" 318 0 basechar 0
LayerCount: 2
Fore
SplineSet
233 703 m 2
 233 706.333007812 235 707.999023438 239 707.999023438 c 2
 399 707.999023438 l 2
 401.666992188 707.999023438 403 706.33203125 403 702.999023438 c 2
 338 422.999023438 l 1
 389 422.999023438 l 1
 401 446.999023438 l 2
 421 486.999023438 439 519.33203125 455 543.999023438 c 2
 575 702.999023438 l 2
 576.333007812 706.33203125 578.333007812 707.999023438 581 707.999023438 c 2
 758 707.999023438 l 2
 759.333007812 707.999023438 760.333007812 707.33203125 761 705.999023438 c 0
 761.666992188 704.666015625 761.666992188 703.333007812 761 702 c 2
 505 361 l 1
 608 5 l 2
 608 1.6669921875 606 0 602 0 c 2
 423 0 l 2
 421 0 419.333007812 1.6669921875 418 5 c 2
 366 172 l 2
 362 194.666992188 359.333007812 223 358 257 c 2
 357 284 l 1
 306 284 l 1
 241 5 l 2
 239.666992188 1.6669921875 237.666992188 0 235 0 c 2
 75 0 l 2
 71 0 69.6669921875 1.6669921875 71 5 c 2
 233 703 l 2
EndSplineSet
EndChar

StartChar: L
Encoding: 76 76 45
Width: 592
GlyphClass: 2
Flags: W
AnchorPoint: "Anchor-5" 251 357 basechar 0
AnchorPoint: "Anchor-4" 318 708 basechar 0
AnchorPoint: "Anchor-3" 0 0 basechar 0
AnchorPoint: "Anchor-2" 278 0 basechar 0
LayerCount: 2
Fore
SplineSet
533.5 131.5 m 0
 534.5 129.833007812 534.666992188 128 534 126 c 2
 506 8 l 2
 504.666992188 2.6669921875 502.666992188 0 500 0 c 2
 75 0 l 2
 71 0 69.6669921875 1.6669921875 71 5 c 2
 233 703 l 2
 233 706.333007812 235 708 239 708 c 2
 399 708 l 2
 401.666992188 708 403 706.333007812 403 703 c 2
 271 134 l 1
 530 134 l 2
 531.333007812 134 532.5 133.166992188 533.5 131.5 c 0
EndSplineSet
EndChar

StartChar: M
Encoding: 77 77 46
Width: 813
GlyphClass: 2
Flags: W
AnchorPoint: "Anchor-5" 0 0 basechar 0
AnchorPoint: "Anchor-4" 570 708 basechar 0
AnchorPoint: "Anchor-3" 0 0 basechar 0
AnchorPoint: "Anchor-2" 407 0 basechar 0
LayerCount: 2
Fore
SplineSet
71 5 m 2
 232.998046875 703 l 2
 232.998046875 706.333007812 234.998046875 708 238.998046875 708 c 2
 434.998046875 708 l 2
 437.665039062 708 438.998046875 706.666992188 438.998046875 704 c 2
 460.998046875 422 l 2
 462.331054688 395.333007812 462.998046875 374.666015625 462.998046875 359.999023438 c 0
 462.998046875 299.999023438 458.998046875 249.999023438 450.998046875 209.999023438 c 1
 459.998046875 209.999023438 l 1
 467.331054688 235.999023438 479.1640625 269.33203125 495.497070312 309.999023438 c 0
 511.830078125 350.666015625 529.330078125 388.333007812 547.997070312 423 c 2
 698.997070312 704 l 2
 700.330078125 706.666992188 702.330078125 708 704.997070312 708 c 2
 900.997070312 708 l 2
 903.6640625 708 904.997070312 706.333007812 904.997070312 703 c 2
 743.997070312 5 l 2
 742.6640625 1.6669921875 740.6640625 0 737.997070312 0 c 2
 583.997070312 0 l 2
 579.997070312 0 578.6640625 1.6669921875 579.997070312 5 c 2
 619.997070312 178 l 2
 644.6640625 286.666992188 671.331054688 377.666992188 699.998046875 451 c 1
 690.998046875 451 l 1
 467.998046875 4 l 2
 467.331054688 1.3330078125 465.331054688 0 461.998046875 0 c 2
 350.998046875 0 l 2
 347.665039062 -0 346.33203125 1.3330078125 346.999023438 4 c 2
 329.999023438 451 l 1
 320.999023438 451 l 1
 315.666015625 379.666992188 300.333007812 288.666992188 275 178 c 2
 235 5 l 2
 233.666992188 1.6669921875 231.666992188 0 229 0 c 2
 75 0 l 2
 71 0 69.6669921875 1.6669921875 71 5 c 2
EndSplineSet
EndChar

StartChar: N
Encoding: 78 78 47
Width: 656
GlyphClass: 2
Flags: W
AnchorPoint: "Anchor-5" 0 0 basechar 0
AnchorPoint: "Anchor-4" 509 708 basechar 0
AnchorPoint: "Anchor-3" 0 0 basechar 0
AnchorPoint: "Anchor-2" 336 0 basechar 0
LayerCount: 2
Fore
SplineSet
71 5 m 2
 233 703 l 2
 233 706.333007812 235 708 239 708 c 2
 416 708 l 2
 418 708 419 706.666992188 419 704 c 2
 489 255 l 1
 497 255 l 1
 505 349 518.666992188 438.333007812 538 523 c 2
 580 703 l 2
 580 706.333007812 582 708 586 708 c 2
 745 708 l 2
 747.666992188 708 749 706.333007812 749 703 c 2
 587 5 l 2
 585.666992188 1.6669921875 583.666992188 0 581 0 c 2
 403 0 l 2
 400.333007812 -0 399 1.3330078125 399 4 c 2
 328 449 l 1
 320 449 l 1
 315.333007812 363.666992188 303.333007812 279 284 195 c 2
 240 5 l 2
 238.666992188 1.6669921875 236.666992188 0 234 0 c 2
 75 0 l 2
 71 0 69.6669921875 1.6669921875 71 5 c 2
EndSplineSet
EndChar

StartChar: O
Encoding: 79 79 48
Width: 663
GlyphClass: 2
Flags: W
AnchorPoint: "Anchor-5" 413 354 basechar 0
AnchorPoint: "Anchor-4" 495 708 basechar 0
AnchorPoint: "Anchor-3" 401 8 basechar 0
AnchorPoint: "Anchor-2" 331 0 basechar 0
LayerCount: 2
Fore
SplineSet
160 33.5 m 0
 119.333007812 62.5 99 106.665039062 99 165.998046875 c 0
 99 186.665039062 102 209.998046875 108 235.998046875 c 2
 163 471.998046875 l 2
 181.666992188 553.998046875 220.5 615.331054688 279.5 655.998046875 c 0
 338.5 696.665039062 410.666992188 716.998046875 496 716.998046875 c 0
 570 716.998046875 627 702.831054688 667 674.498046875 c 0
 707 646.165039062 727 602.998046875 727 544.998046875 c 0
 727 523.665039062 724 499.33203125 718 471.999023438 c 2
 663 235.999023438 l 2
 644.333007812 152.666015625 606 90.8330078125 548 50.5 c 0
 490 10.1669921875 416.666992188 -10 328 -10 c 0
 256.666992188 -10 200.666992188 4.5 160 33.5 c 0
495 241.998046875 m 2
 546 465.999023438 l 2
 550 481.999023438 552 496.666015625 552 509.999023438 c 0
 552 558.666015625 523.333007812 582.999023438 466 582.999023438 c 0
 394.666992188 582.999023438 349.666992188 543.999023438 331 465.999023438 c 2
 280 241.999023438 l 2
 276.666992188 225.33203125 275 211.665039062 275 200.998046875 c 0
 275 150.331054688 303.333007812 124.998046875 360 124.998046875 c 0
 432 124.998046875 477 163.998046875 495 241.998046875 c 2
EndSplineSet
Substitution2: "Single Substitution lookup 25 subtable" ordmasculine
Substitution2: "'aalt' Access All Alternates in Latin lookup 0 subtable" ordmasculine
EndChar

StartChar: P
Encoding: 80 80 49
Width: 620
GlyphClass: 2
Flags: W
AnchorPoint: "Anchor-5" 0 0 basechar 0
AnchorPoint: "Anchor-4" 474 708 basechar 0
AnchorPoint: "Anchor-3" 0 0 basechar 0
AnchorPoint: "Anchor-2" 310 0 basechar 0
LayerCount: 2
Fore
SplineSet
657.5 676 m 0
 694.5 654.666992188 713 619.999023438 713 571.999023438 c 0
 713 552.666015625 710.666992188 533.333007812 706 514 c 2
 685 423 l 2
 669.666992188 355 637 306.333007812 587 277 c 0
 537 247.666992188 468 233 380 233 c 2
 294 233 l 1
 241 5 l 2
 239.666992188 1.6669921875 237.666992188 0 235 0 c 2
 75 0 l 2
 71 0 69.6669921875 1.6669921875 71 5 c 2
 233 703 l 2
 233 706.333007812 235 708 239 708 c 2
 489 708 l 2
 564.333007812 708 620.5 697.333007812 657.5 676 c 0
538 530.999023438 m 0
 538 546.999023438 531.83203125 558.166015625 519.499023438 564.499023438 c 0
 507.166015625 570.83203125 487.333007812 573.999023438 460 573.999023438 c 2
 373 573.999023438 l 1
 324 364.999023438 l 1
 411 364.999023438 l 2
 445 364.999023438 469.666992188 369.499023438 485 378.499023438 c 0
 500.333007812 387.499023438 511 404.666015625 517 429.999023438 c 2
 535 507.999023438 l 2
 537 517.33203125 538 524.999023438 538 530.999023438 c 0
EndSplineSet
EndChar

StartChar: Q
Encoding: 81 81 50
Width: 663
GlyphClass: 2
Flags: W
AnchorPoint: "Anchor-5" 0 0 basechar 0
AnchorPoint: "Anchor-4" 495 708 basechar 0
AnchorPoint: "Anchor-3" 0 0 basechar 0
AnchorPoint: "Anchor-2" 331 0 basechar 0
LayerCount: 2
Fore
SplineSet
244 -153 m 2
 277.999023438 -7.0009765625 l 1
 221.33203125 -0.333984375 177.33203125 17.3330078125 145.999023438 46 c 0
 114.666015625 74.6669921875 98.9990234375 114.666992188 98.9990234375 166 c 0
 98.9990234375 186.666992188 101.999023438 210 107.999023438 236 c 2
 162.999023438 472 l 2
 181.666015625 554 220.499023438 615.333007812 279.499023438 656 c 0
 338.499023438 696.666992188 410.666015625 717 495.999023438 717 c 0
 569.999023438 717 626.999023438 702.833007812 666.999023438 674.5 c 0
 706.999023438 646.166992188 726.999023438 603 726.999023438 545 c 0
 726.999023438 523.666992188 723.999023438 499.333984375 717.999023438 472.000976562 c 2
 662.999023438 236.000976562 l 2
 648.33203125 170.000976562 618.999023438 118.16796875 574.999023438 80.5009765625 c 0
 530.999023438 42.833984375 475.999023438 18.6669921875 409.999023438 8 c 1
 407.999023438 0 l 1
 415.33203125 -3.3330078125 421.165039062 -8.8330078125 425.498046875 -16.5 c 0
 429.831054688 -24.1669921875 434.331054688 -35.333984375 438.998046875 -50.0009765625 c 2
 465.998046875 -152.000976562 l 2
 466.665039062 -153.333984375 466.33203125 -154.666992188 464.999023438 -156 c 0
 463.666015625 -157.333007812 462.333007812 -158 461 -158 c 2
 248 -158 l 2
 245.333007812 -158 244 -156.333007812 244 -153 c 2
494.999023438 241.999023438 m 2
 545.999023438 466 l 2
 549.999023438 482 551.999023438 496.666992188 551.999023438 510 c 0
 551.999023438 558.666992188 523.33203125 583 465.999023438 583 c 0
 394.666015625 583 349.666015625 544 330.999023438 466 c 2
 279.999023438 242 l 2
 276.666015625 225.333007812 274.999023438 211.666015625 274.999023438 200.999023438 c 0
 274.999023438 150.33203125 303.33203125 124.999023438 359.999023438 124.999023438 c 0
 431.999023438 124.999023438 476.999023438 163.999023438 494.999023438 241.999023438 c 2
EndSplineSet
EndChar

StartChar: R
Encoding: 82 82 51
Width: 638
GlyphClass: 2
Flags: W
AnchorPoint: "Anchor-5" 0 0 basechar 0
AnchorPoint: "Anchor-4" 483 708 basechar 0
AnchorPoint: "Anchor-3" 0 0 basechar 0
AnchorPoint: "Anchor-2" 327 0 basechar 0
LayerCount: 2
Fore
SplineSet
670 681.5 m 0
 700 663.833007812 715.002929688 635.333007812 715.002929688 596 c 0
 715.002929688 582 713.002929688 566 709.002929688 548 c 2
 695.002929688 485 l 2
 685.669921875 445.666992188 669.169921875 413.666992188 645.502929688 389 c 0
 621.8359375 364.333007812 594.668945312 350 564.001953125 346 c 1
 562.001953125 339 l 1
 587.334960938 335.666992188 607.16796875 326.833984375 621.500976562 312.500976562 c 0
 635.833984375 298.16796875 643.000976562 279.000976562 643.000976562 255.000976562 c 0
 643.000976562 245.66796875 642.000976562 236.000976562 640.000976562 226.000976562 c 2
 610.000976562 96.0009765625 l 2
 602.000976562 62.66796875 598.000976562 38.3349609375 598.000976562 23.001953125 c 0
 598.000976562 15.6689453125 598.333984375 10.001953125 599.000976562 6.001953125 c 0
 600.333984375 2.001953125 598.666992188 0.001953125 594 0.001953125 c 2
 430 0.001953125 l 2
 426.666992188 0.001953125 425 1.001953125 425 3.001953125 c 0
 423.666992188 7.001953125 423 11.001953125 423 15.001953125 c 0
 423 20.3349609375 423.666992188 26.66796875 425 34.0009765625 c 0
 426.333007812 41.333984375 427.333007812 46.333984375 428 49.0009765625 c 2
 465 208.000976562 l 2
 467 218.000976562 468 226.333984375 468 233.000976562 c 0
 468 248.333984375 463.166992188 259.166992188 453.5 265.5 c 0
 443.833007812 271.833007812 428.333007812 275 407 275 c 2
 303 275 l 1
 241 5 l 2
 239.666992188 1.6669921875 237.666992188 0 235 0 c 2
 75 0 l 2
 71 0 69.6669921875 1.6669921875 71 5 c 2
 233 703 l 2
 233 706.333007812 235 708 239 708 c 2
 532 708 l 2
 594 708 640 699.166992188 670 681.5 c 0
538.002929688 540 m 0
 538.002929688 552.666992188 533.834960938 561.833007812 525.501953125 567.5 c 0
 517.168945312 573.166992188 504.001953125 576 486.001953125 576 c 2
 373.001953125 576 l 1
 333.001953125 403 l 1
 449.001953125 403 l 2
 469.001953125 403 484.834960938 407.166992188 496.501953125 415.5 c 0
 508.168945312 423.833007812 516.3359375 438 521.002929688 458 c 2
 536.002929688 521 l 2
 537.3359375 525.666992188 538.002929688 532 538.002929688 540 c 0
EndSplineSet
EndChar

StartChar: S
Encoding: 83 83 52
Width: 625
GlyphClass: 2
Flags: W
AnchorPoint: "Anchor-5" 0 0 basechar 0
AnchorPoint: "Anchor-4" 476 708 basechar 0
AnchorPoint: "Anchor-3" 0 0 basechar 0
AnchorPoint: "Anchor-2" 315 0 basechar 0
LayerCount: 2
Fore
SplineSet
137.5 21.5 m 0
 100.5 42.5 82 76.6669921875 82 124 c 0
 82 141.333007812 84.6669921875 161.666015625 90 184.999023438 c 2
 107 257.999023438 l 2
 108.333007812 261.33203125 110.666015625 262.999023438 113.999023438 262.999023438 c 2
 273.999023438 262.999023438 l 2
 277.33203125 262.999023438 278.33203125 261.33203125 276.999023438 257.999023438 c 2
 260.999023438 187.999023438 l 2
 258.33203125 175.999023438 256.999023438 168.33203125 256.999023438 164.999023438 c 0
 256.999023438 150.33203125 263.166015625 139.499023438 275.499023438 132.499023438 c 0
 287.83203125 125.499023438 307.999023438 121.999023438 335.999023438 121.999023438 c 0
 371.33203125 121.999023438 396.499023438 125.499023438 411.499023438 132.499023438 c 0
 426.499023438 139.499023438 436.666015625 152.999023438 441.999023438 172.999023438 c 2
 452.999023438 221.999023438 l 2
 454.33203125 228.666015625 454.999023438 232.999023438 454.999023438 234.999023438 c 0
 454.999023438 251.666015625 445.999023438 264.833007812 427.999023438 274.5 c 0
 409.999023438 284.166992188 380.999023438 295.333984375 340.999023438 308.000976562 c 0
 299.666015625 320.000976562 267.333007812 330.66796875 244 340.000976562 c 0
 220.666992188 349.333984375 200.666992188 362.333984375 184 379.000976562 c 0
 167.333007812 395.66796875 159 417.334960938 159 444.001953125 c 0
 159 454.001953125 160.666992188 466.334960938 164 481.001953125 c 2
 179 545.001953125 l 2
 208.333007812 659.668945312 309 717.001953125 481 717.001953125 c 0
 555.666992188 717.001953125 611.833984375 706.501953125 649.500976562 685.501953125 c 0
 687.16796875 664.501953125 706.000976562 630.668945312 706.000976562 584.001953125 c 0
 706.000976562 568.001953125 703.333984375 548.668945312 698.000976562 526.001953125 c 2
 682.000976562 460.001953125 l 2
 680.66796875 456.668945312 678.66796875 455.001953125 676.000976562 455.001953125 c 2
 517.000976562 455.001953125 l 2
 513.000976562 455.001953125 511.66796875 456.668945312 513.000976562 460.001953125 c 2
 528.000976562 523.001953125 l 2
 530.000976562 530.334960938 531.000976562 537.001953125 531.000976562 543.001953125 c 0
 531.000976562 557.668945312 524.66796875 568.668945312 512.000976562 576.001953125 c 0
 499.333984375 583.334960938 478.666992188 587.001953125 450 587.001953125 c 0
 418 587.001953125 394 583.168945312 378 575.501953125 c 0
 362 567.834960938 352 555.66796875 348 539.000976562 c 2
 338 498.000976562 l 2
 337.333007812 496.000976562 337 492.66796875 337 488.000976562 c 0
 337 472.66796875 345.666992188 460.500976562 363 451.500976562 c 0
 380.333007812 442.500976562 409.333007812 431.66796875 450 419.000976562 c 0
 490.666992188 406.333984375 523 395.166992188 547 385.5 c 0
 571 375.833007812 591.5 362.333007812 608.5 345 c 0
 625.5 327.666992188 634 306 634 280 c 0
 634 270.666992188 632.333007812 258.666992188 629 244 c 2
 610 166 l 2
 593.333007812 103.333007812 559.5 58.3330078125 508.5 31 c 0
 457.5 3.6669921875 389.666992188 -10 305 -10 c 0
 230.333007812 -10 174.5 0.5 137.5 21.5 c 0
EndSplineSet
EndChar

StartChar: T
Encoding: 84 84 53
Width: 559
GlyphClass: 2
Flags: W
AnchorPoint: "Anchor-5" 355 327 basechar 0
AnchorPoint: "Anchor-4" 443 708 basechar 0
AnchorPoint: "Anchor-3" 0 0 basechar 0
AnchorPoint: "Anchor-2" 279 0 basechar 0
LayerCount: 2
Fore
SplineSet
712 699 m 2
 684.999023438 582 l 2
 683.666015625 576.666992188 681.333007812 574 678 574 c 2
 497 574 l 1
 366 5 l 2
 364.666992188 1.6669921875 362.666992188 0 360 0 c 2
 200 0 l 2
 196 0 194.666992188 1.6669921875 196 5 c 2
 327 574 l 1
 147 574 l 2
 143 574 141.666992188 576.666992188 143 582 c 2
 170 699 l 2
 171.333007812 705 174 708 178 708 c 2
 709 708 l 2
 712.333007812 708 713.333007812 705 712 699 c 2
EndSplineSet
EndChar

StartChar: U
Encoding: 85 85 54
Width: 646
GlyphClass: 2
Flags: W
AnchorPoint: "Anchor-5" 0 0 basechar 0
AnchorPoint: "Anchor-4" 487 708 basechar 0
AnchorPoint: "Anchor-3" 392 5 basechar 0
AnchorPoint: "Anchor-2" 323 0 basechar 0
LayerCount: 2
Fore
SplineSet
155.5 25.5 m 0
 117.833007812 47.8330078125 98.9990234375 84.3310546875 98.9990234375 134.998046875 c 0
 98.9990234375 151.665039062 101.666015625 172.33203125 106.999023438 196.999023438 c 2
 223.999023438 702.999023438 l 2
 223.999023438 706.33203125 225.999023438 707.999023438 229.999023438 707.999023438 c 2
 389.999023438 707.999023438 l 2
 392.666015625 707.999023438 393.999023438 706.33203125 393.999023438 702.999023438 c 2
 281.999023438 218.999023438 l 2
 278.666015625 206.33203125 276.999023438 192.999023438 276.999023438 178.999023438 c 0
 276.999023438 159.666015625 282.83203125 145.999023438 294.499023438 137.999023438 c 0
 306.166015625 129.999023438 325.333007812 125.999023438 352 125.999023438 c 0
 387.333007812 125.999023438 413.166015625 132.83203125 429.499023438 146.499023438 c 0
 445.83203125 160.166015625 457.999023438 184.333007812 465.999023438 219 c 2
 577.999023438 703 l 2
 577.999023438 706.333007812 579.999023438 708 583.999023438 708 c 2
 743.999023438 708 l 2
 746.666015625 708 747.999023438 706.333007812 747.999023438 703 c 2
 629.999023438 197 l 2
 613.33203125 123 579.83203125 70.3330078125 529.499023438 39 c 0
 479.166015625 7.6669921875 409.333007812 -8 320 -8 c 0
 248 -8 193.166992188 3.1669921875 155.5 25.5 c 0
EndSplineSet
EndChar

StartChar: V
Encoding: 86 86 55
Width: 611
GlyphClass: 2
Flags: W
AnchorPoint: "Anchor-5" 0 0 basechar 0
AnchorPoint: "Anchor-4" 469 708 basechar 0
AnchorPoint: "Anchor-3" 0 0 basechar 0
AnchorPoint: "Anchor-2" 305 0 basechar 0
LayerCount: 2
Fore
SplineSet
183 5 m 2
 171.000976562 703 l 2
 170.333984375 704.333007812 170.833984375 705.5 172.500976562 706.5 c 0
 174.16796875 707.5 175.66796875 708 177.000976562 708 c 2
 341.000976562 708 l 2
 343.66796875 708 345.000976562 706.333007812 345.000976562 703 c 2
 351.000976562 382 l 2
 350.333984375 344 348.166992188 299.833007812 344.5 249.5 c 0
 340.833007812 199.166992188 336.333007812 161.666992188 331 137 c 1
 344 137 l 1
 350.666992188 161.666992188 363.5 199 382.5 249 c 0
 401.5 299 419.333007812 343.666992188 436 383 c 2
 591 703 l 2
 591 706.333007812 593 708 597 708 c 2
 761 708 l 2
 764.333007812 708 765.333007812 706.333007812 764 703 c 2
 430 5 l 2
 428 1.6669921875 426 0 424 0 c 2
 188 0 l 2
 184.666992188 0 183 1.6669921875 183 5 c 2
EndSplineSet
EndChar

StartChar: W
Encoding: 87 87 56
Width: 905
GlyphClass: 2
Flags: W
AnchorPoint: "Anchor-5" 0 0 basechar 0
AnchorPoint: "Anchor-4" 616 708 basechar 0
AnchorPoint: "Anchor-3" 0 0 basechar 0
AnchorPoint: "Anchor-2" 453 0 basechar 0
LayerCount: 2
Fore
SplineSet
174 5 m 2
 170.998046875 703.001953125 l 2
 170.331054688 704.334960938 170.831054688 705.501953125 172.498046875 706.501953125 c 0
 174.165039062 707.501953125 175.665039062 708.001953125 176.998046875 708.001953125 c 2
 345.998046875 708.001953125 l 2
 347.998046875 708.001953125 349.165039062 707.334960938 349.498046875 706.001953125 c 0
 349.831054688 704.668945312 349.998046875 703.668945312 349.998046875 703.001953125 c 2
 346.998046875 446.001953125 l 2
 346.331054688 398.001953125 342.831054688 342.334960938 336.498046875 279.001953125 c 0
 330.165039062 215.668945312 324.33203125 171.3359375 318.999023438 146.002929688 c 1
 329.999023438 146.002929688 l 1
 337.33203125 174.669921875 350.999023438 220.502929688 370.999023438 283.502929688 c 0
 390.999023438 346.502929688 409.999023438 401.002929688 427.999023438 447.002929688 c 2
 524.999023438 703.002929688 l 2
 524.999023438 706.3359375 526.999023438 708.002929688 530.999023438 708.002929688 c 2
 701.999023438 708.002929688 l 2
 703.999023438 708.002929688 705.166015625 707.3359375 705.499023438 706.002929688 c 0
 705.83203125 704.669921875 705.999023438 703.669921875 705.999023438 703.002929688 c 2
 684.999023438 446.002929688 l 2
 680.999023438 398.002929688 674.499023438 342.502929688 665.499023438 279.502929688 c 0
 656.499023438 216.502929688 648.999023438 172.002929688 642.999023438 146.002929688 c 1
 653.999023438 146.002929688 l 1
 660.666015625 172.669921875 675.833007812 218.169921875 699.5 282.502929688 c 0
 723.166992188 346.8359375 745.333984375 401.668945312 766.000976562 447.001953125 c 2
 880.000976562 703.001953125 l 2
 881.333984375 706.334960938 883.333984375 708.001953125 886.000976562 708.001953125 c 2
 1055.00097656 708.001953125 l 2
 1059.00097656 708.001953125 1060.33398438 706.334960938 1059.00097656 703.001953125 c 2
 734.000976562 5.001953125 l 2
 732.000976562 1.6689453125 730.000976562 0.001953125 728.000976562 0.001953125 c 2
 524.000976562 0.001953125 l 2
 521.333984375 0.001953125 520.000976562 1.6689453125 520.000976562 5.001953125 c 2
 526.000976562 165.001953125 l 2
 528.66796875 210.334960938 535.16796875 267.66796875 545.500976562 337.000976562 c 0
 555.833984375 406.333984375 565.666992188 460.666992188 575 500 c 1
 564 500 l 1
 553.333007812 458.666992188 537 403.5 515 334.5 c 0
 493 265.5 473.333007812 209 456 165 c 2
 388 5 l 2
 386 1.6669921875 384 0 382 0 c 2
 178 0 l 2
 175.333007812 0 174 1.6669921875 174 5 c 2
EndSplineSet
EndChar

StartChar: X
Encoding: 88 88 57
Width: 613
GlyphClass: 2
Flags: W
AnchorPoint: "Anchor-5" 0 0 basechar 0
AnchorPoint: "Anchor-4" 470 708 basechar 0
AnchorPoint: "Anchor-3" 0 0 basechar 0
AnchorPoint: "Anchor-2" 307 0 basechar 0
LayerCount: 2
Fore
SplineSet
9.5 1.5 m 0
 8.5 2.5 8.3310546875 3.6689453125 8.998046875 5.001953125 c 2
 278.998046875 358.001953125 l 1
 173.998046875 702.001953125 l 2
 173.331054688 703.334960938 173.6640625 704.66796875 174.997070312 706.000976562 c 0
 176.330078125 707.333984375 177.997070312 708.000976562 179.997070312 708.000976562 c 2
 365.997070312 708.000976562 l 2
 367.997070312 708.000976562 369.6640625 706.333984375 370.997070312 703.000976562 c 2
 394.997070312 618.000976562 l 2
 405.6640625 575.333984375 410.997070312 535.666992188 410.997070312 499 c 0
 410.997070312 487 409.6640625 471 406.997070312 451 c 1
 413.997070312 451 l 1
 430.6640625 501.666992188 460.6640625 557.666992188 503.997070312 619 c 2
 566.997070312 703 l 2
 568.997070312 706.333007812 571.330078125 708 573.997070312 708 c 2
 759.997070312 708 l 2
 761.330078125 708 762.497070312 707.333007812 763.497070312 706 c 0
 764.497070312 704.666992188 764.6640625 703.333984375 763.997070312 702.000976562 c 2
 499.997070312 358.000976562 l 1
 605.997070312 5.0009765625 l 2
 606.6640625 3.66796875 606.331054688 2.5009765625 604.998046875 1.5009765625 c 0
 603.665039062 0.5009765625 602.33203125 0.0009765625 600.999023438 0.0009765625 c 2
 413.999023438 0.0009765625 l 2
 411.33203125 0.0009765625 409.999023438 1.66796875 409.999023438 5.0009765625 c 2
 383.999023438 98.0009765625 l 2
 373.33203125 140.66796875 367.999023438 180.000976562 367.999023438 216.000976562 c 0
 367.999023438 235.333984375 369.33203125 251.666992188 371.999023438 265 c 1
 364.999023438 265 l 1
 348.999023438 217 318.999023438 161.333007812 274.999023438 98 c 2
 205.999023438 5 l 2
 202.666015625 1.6669921875 200.333007812 0 199 0 c 2
 13 0 l 2
 11.6669921875 0 10.5 0.5 9.5 1.5 c 0
EndSplineSet
EndChar

StartChar: Y
Encoding: 89 89 58
Width: 600
GlyphClass: 2
Flags: W
AnchorPoint: "Anchor-5" 0 0 basechar 0
AnchorPoint: "Anchor-4" 464 708 basechar 0
AnchorPoint: "Anchor-3" 0 0 basechar 0
AnchorPoint: "Anchor-2" 300 0 basechar 0
LayerCount: 2
Fore
SplineSet
756 703 m 2
 429 189 l 1
 386 5 l 2
 384.666992188 1.6669921875 382.666992188 0 380 0 c 2
 220 0 l 2
 216 0 214.666992188 1.6669921875 216 5 c 2
 259 188 l 1
 169 703 l 2
 168.333007812 704.333007812 168.833007812 705.5 170.5 706.5 c 0
 172.166992188 707.5 173.666992188 708 175 708 c 2
 342 708 l 2
 344 708 345.666992188 706.333007812 347 703 c 2
 372 511 l 2
 376.666992188 484.333007812 379 452.666015625 379 415.999023438 c 0
 379 379.999023438 376.333007812 348.666015625 371 321.999023438 c 1
 379 321.999023438 l 1
 385.666992188 347.33203125 398 379.83203125 416 419.499023438 c 0
 434 459.166015625 450.666992188 490.333007812 466 513 c 2
 579 703 l 2
 580.333007812 706.333007812 582.333007812 708 585 708 c 2
 752 708 l 2
 756 708 757.333007812 706.333007812 756 703 c 2
EndSplineSet
EndChar

StartChar: Z
Encoding: 90 90 59
Width: 531
GlyphClass: 2
Flags: W
AnchorPoint: "Anchor-5" 0 0 basechar 0
AnchorPoint: "Anchor-4" 436 708 basechar 0
AnchorPoint: "Anchor-3" 0 0 basechar 0
AnchorPoint: "Anchor-2" 266 0 basechar 0
LayerCount: 2
Fore
SplineSet
665 699 m 2
 638.999023438 587.999023438 l 2
 638.33203125 585.33203125 636.999023438 583.33203125 634.999023438 581.999023438 c 2
 256.999023438 133.999023438 l 1
 533.999023438 133.999023438 l 2
 535.33203125 133.999023438 536.33203125 133.166015625 536.999023438 131.499023438 c 0
 537.666015625 129.83203125 537.666015625 127.999023438 536.999023438 125.999023438 c 2
 509.999023438 7.9990234375 l 2
 508.666015625 2.666015625 506.333007812 -0.0009765625 503 -0.0009765625 c 2
 26 -0.0009765625 l 2
 22.6669921875 -0.0009765625 21.6669921875 2.666015625 23 7.9990234375 c 2
 48 117.999023438 l 2
 49.3330078125 121.33203125 51.3330078125 124.33203125 54 126.999023438 c 2
 433 573.999023438 l 1
 167 573.999023438 l 2
 163 573.999023438 161.666992188 576.666015625 163 581.999023438 c 2
 191 698.999023438 l 2
 191 701.666015625 191.833007812 703.833007812 193.5 705.5 c 0
 195.166992188 707.166992188 196.666992188 708 198 708 c 2
 662 708 l 2
 665.333007812 708 666.333007812 705 665 699 c 2
EndSplineSet
EndChar

StartChar: bracketleft
Encoding: 91 91 60
Width: 382
GlyphClass: 2
Flags: W
LayerCount: 2
Fore
SplineSet
30 -174 m 2
 259.998046875 820 l 2
 259.998046875 823.333007812 261.998046875 825 265.998046875 825 c 2
 524.998046875 825 l 2
 527.665039062 825 528.998046875 823.333007812 528.998046875 820 c 2
 501.998046875 701 l 2
 500.665039062 697.666992188 498.33203125 696 494.999023438 696 c 2
 387.999023438 695 l 1
 215.999023438 -50 l 1
 322.999023438 -50 l 2
 326.999023438 -50 328.33203125 -51.6669921875 326.999023438 -55 c 2
 299.999023438 -174 l 2
 298.666015625 -177.333007812 296.333007812 -179 293 -179 c 2
 34 -179 l 2
 30 -179 28.6669921875 -177.333007812 30 -174 c 2
EndSplineSet
EndChar

StartChar: backslash
Encoding: 92 92 61
Width: 519
GlyphClass: 2
Flags: W
LayerCount: 2
Fore
SplineSet
406 -120 m 2
 404 -120 402 -118.333007812 400 -115 c 2
 -174 795 l 2
 -175.333007812 798.333007812 -174.333007812 800 -171 800 c 2
 -45 800 l 2
 -42.3330078125 800 -40.3330078125 798.333007812 -39 795 c 2
 535 -115 l 2
 537 -118.333007812 536.333007812 -120 533 -120 c 2
 406 -120 l 2
EndSplineSet
EndChar

StartChar: bracketright
Encoding: 93 93 62
Width: 382
GlyphClass: 2
Flags: W
LayerCount: 2
Fore
SplineSet
6 -179 m 2
 2.6669921875 -179 1.6669921875 -177.333007812 3 -174 c 2
 30 -55 l 2
 31.3330078125 -51.6669921875 33.3330078125 -50 36 -50 c 2
 144 -50 l 1
 315 695 l 1
 208 696 l 2
 204.666992188 696 203.666992188 697.666992188 205 701 c 2
 232 820 l 2
 232 823.333007812 234 825 238 825 c 2
 498 825 l 2
 500.666992188 825 502 823.333007812 502 820 c 2
 272 -174 l 2
 270.666992188 -177.333007812 268.666992188 -179 266 -179 c 2
 6 -179 l 2
EndSplineSet
EndChar

StartChar: asciicircum
Encoding: 94 94 63
Width: 440
GlyphClass: 2
Flags: W
LayerCount: 2
Fore
SplineSet
500 356 m 2
 500 354 499.333007812 352 498 350 c 0
 496.666992188 348 495 347 493 347 c 2
 369 347 l 2
 367 347 366 347.666992188 366 349 c 2
 344 542 l 1
 236 349 l 1
 232 347 l 1
 108 347 l 2
 105.333007812 347 104 348 104 350 c 0
 104 352 104.666992188 354 106 356 c 2
 323 706 l 1
 326 707 l 1
 443 707 l 2
 444.333007812 707 445 706.666992188 445 706 c 2
 500 356 l 2
EndSplineSet
EndChar

StartChar: underscore
Encoding: 95 95 64
Width: 459
GlyphClass: 2
Flags: W
LayerCount: 2
Fore
SplineSet
-29 -125 m 2
 -3.0009765625 -13 l 2
 -3.0009765625 -9.6669921875 -1.0009765625 -8 2.9990234375 -8 c 2
 451.999023438 -8 l 2
 454.666015625 -8 455.999023438 -9.6669921875 455.999023438 -13 c 2
 430.999023438 -125 l 2
 429.666015625 -128.333007812 427.333007812 -130 424 -130 c 2
 -25 -130 l 2
 -29 -130 -30.3330078125 -128.333007812 -29 -125 c 2
EndSplineSet
EndChar

StartChar: grave
Encoding: 96 96 65
Width: 327
GlyphClass: 2
Flags: W
LayerCount: 2
Fore
SplineSet
298 564 m 1
 294.999023438 564.999023438 l 1
 186.999023438 714.999023438 l 2
 186.33203125 715.666015625 185.999023438 716.999023438 185.999023438 718.999023438 c 0
 185.999023438 721.666015625 186.83203125 723.833007812 188.499023438 725.5 c 0
 190.166015625 727.166992188 192.333007812 728 195 728 c 2
 378 728 l 1
 382 726 l 1
 433 573 l 1
 433 571 l 2
 433 569 432.166992188 567.333007812 430.5 566 c 0
 428.833007812 564.666992188 427 564 425 564 c 2
 298 564 l 1
EndSplineSet
EndChar

StartChar: a
Encoding: 97 97 66
Width: 559
GlyphClass: 2
Flags: W
AnchorPoint: "Anchor-5" 0 0 basechar 0
AnchorPoint: "Anchor-4" 389 508 basechar 0
AnchorPoint: "Anchor-3" 451 3 basechar 0
AnchorPoint: "Anchor-2" 279 0 basechar 0
LayerCount: 2
Fore
SplineSet
531 141 m 2
 529.666992188 135.666992188 528.998046875 131.997070312 528.998046875 129.997070312 c 0
 528.998046875 126.6640625 530.165039062 124.331054688 532.498046875 122.998046875 c 0
 534.831054688 121.665039062 538.998046875 120.998046875 544.998046875 120.998046875 c 2
 561.998046875 120.998046875 l 2
 565.998046875 120.998046875 567.331054688 119.331054688 565.998046875 115.998046875 c 2
 539.998046875 4.998046875 l 2
 538.665039062 1.6650390625 536.665039062 -0.001953125 533.998046875 -0.001953125 c 2
 432.998046875 -0.001953125 l 2
 404.998046875 -0.001953125 384.331054688 4.3310546875 370.998046875 12.998046875 c 0
 357.665039062 21.6650390625 350.998046875 35.33203125 350.998046875 53.9990234375 c 0
 350.998046875 59.33203125 351.331054688 63.33203125 351.998046875 65.9990234375 c 1
 344.998046875 65.9990234375 l 1
 312.998046875 15.9990234375 257.665039062 -9.0009765625 178.998046875 -9.0009765625 c 0
 136.331054688 -9.0009765625 105.331054688 -2.66796875 85.998046875 9.9990234375 c 0
 66.6650390625 22.666015625 56.998046875 42.3330078125 56.998046875 69 c 0
 56.998046875 79 58.6650390625 92.3330078125 61.998046875 109 c 2
 74.998046875 167 l 2
 82.998046875 201.666992188 97.498046875 228.5 118.498046875 247.5 c 0
 139.498046875 266.5 170.998046875 279 212.998046875 285 c 2
 349.998046875 305 l 2
 370.665039062 307.666992188 385.665039062 311 394.998046875 315 c 0
 404.331054688 319 410.331054688 325.666992188 412.998046875 335 c 1
 411.998046875 328 l 1
 418.998046875 359 l 2
 420.331054688 365.666992188 420.998046875 370 420.998046875 372 c 0
 420.998046875 382 416.331054688 389.333007812 406.998046875 394 c 0
 397.665039062 398.666992188 382.33203125 401 360.999023438 401 c 0
 335.666015625 401 317.333007812 397.333007812 306 390 c 0
 294.666992188 382.666992188 287.666992188 372.666992188 285 360 c 2
 277 329 l 2
 277 325.666992188 275 324 271 324 c 2
 119 324 l 2
 115 324 113.666992188 325.666992188 115 329 c 2
 122 360 l 2
 134 411.333007812 161.333007812 450.5 204 477.5 c 0
 246.666992188 504.5 308 518 388 518 c 0
 456 518 505.666992188 507.5 537 486.5 c 0
 568.333007812 465.5 584 434.333007812 584 393 c 0
 584 375.666992188 581.666992188 357.666992188 577 339 c 2
 531 141 l 2
376.998046875 177.997070312 m 2
 388.999023438 228.998046875 l 1
 382.33203125 224.331054688 369.665039062 220.998046875 350.998046875 218.998046875 c 2
 290.998046875 211.998046875 l 2
 274.331054688 209.331054688 262.331054688 204.998046875 254.998046875 198.998046875 c 0
 247.665039062 192.998046875 242.665039062 184.665039062 239.998046875 173.998046875 c 2
 233.998046875 144.998046875 l 2
 232.665039062 139.665039062 231.998046875 135.665039062 231.998046875 132.998046875 c 0
 231.998046875 124.331054688 235.665039062 118.1640625 242.998046875 114.497070312 c 0
 250.331054688 110.830078125 261.998046875 108.997070312 277.998046875 108.997070312 c 0
 333.331054688 108.997070312 366.331054688 131.997070312 376.998046875 177.997070312 c 2
EndSplineSet
Substitution2: "Single Substitution lookup 25 subtable" ordfeminine
Substitution2: "'ss01' Style Set 1 in Latin lookup 22 subtable" a.ss01
Substitution2: "'salt' Stylistic Alternatives in Latin lookup 21 subtable" a.ss01
AlternateSubs2: "'aalt' Access All Alternates in Latin lookup 1 subtable" a.ss01 ordfeminine
EndChar

StartChar: b
Encoding: 98 98 67
Width: 573
GlyphClass: 2
Flags: W
AnchorPoint: "Anchor-5" 0 0 basechar 0
AnchorPoint: "Anchor-4" 481 858 basechar 0
AnchorPoint: "Anchor-3" 0 0 basechar 0
AnchorPoint: "Anchor-2" 283 0 basechar 0
LayerCount: 2
Fore
SplineSet
614 407 m 0
 614 390.333007812 611.333007812 370.333007812 606 347 c 2
 564 164 l 2
 551.333007812 110 528.333007812 67.8330078125 495 37.5 c 0
 461.666992188 7.1669921875 417.666992188 -8 363 -8 c 0
 288.333007812 -8 245.333007812 17.3330078125 234 68 c 1
 223 68 l 1
 189 5 l 2
 187 1.6669921875 185 0 183 0 c 2
 63 0 l 2
 59 0 57.6669921875 1.6669921875 59 5 c 2
 220 703 l 2
 220 706.333007812 222 708 226 708 c 2
 379 708 l 2
 381.666992188 708 383 706.333007812 383 703 c 2
 323 443 l 1
 331 443 l 1
 364.333007812 492.333007812 417.333007812 517 490 517 c 0
 572.666992188 517 614 480.333007812 614 407 c 0
442 349 m 0
 442 381 422.666992188 397 384 397 c 0
 339.333007812 397 310 374.333007812 296 329 c 2
 263 185 l 2
 261.666992188 175.666992188 261 169 261 165 c 0
 261 130.333007812 280 113 318 113 c 0
 366 113 395.666992188 138.333007812 407 189 c 2
 439 325 l 2
 441 334.333007812 442 342.333007812 442 349 c 0
EndSplineSet
EndChar

StartChar: c
Encoding: 99 99 68
Width: 542
GlyphClass: 2
Flags: W
AnchorPoint: "Anchor-5" 0 0 basechar 0
AnchorPoint: "Anchor-4" 389 508 basechar 0
AnchorPoint: "Anchor-3" 0 0 basechar 0
AnchorPoint: "Anchor-2" 272 0 basechar 0
LayerCount: 2
Fore
SplineSet
124.5 24.5 m 0
 92.1669921875 47.5 75.998046875 81.0009765625 75.998046875 125.000976562 c 0
 75.998046875 143.000976562 78.3310546875 161.333984375 82.998046875 180.000976562 c 2
 114.998046875 322.000976562 l 2
 145.665039062 452.000976562 238.998046875 517.000976562 394.998046875 517.000976562 c 0
 460.331054688 517.000976562 509.1640625 506.333984375 541.497070312 485.000976562 c 0
 573.830078125 463.66796875 589.997070312 432.66796875 589.997070312 392.000976562 c 0
 589.997070312 377.333984375 587.997070312 362.000976562 583.997070312 346.000976562 c 2
 572.997070312 296.000976562 l 2
 572.997070312 292.66796875 570.997070312 291.000976562 566.997070312 291.000976562 c 2
 413.997070312 291.000976562 l 2
 411.330078125 291.000976562 409.997070312 292.66796875 409.997070312 296.000976562 c 2
 421.997070312 346.000976562 l 2
 423.330078125 351.333984375 423.997070312 355.666992188 423.997070312 359 c 0
 423.997070312 370.333007812 419.497070312 379.5 410.497070312 386.5 c 0
 401.497070312 393.5 386.997070312 397 366.997070312 397 c 0
 342.330078125 397 322.497070312 390 307.497070312 376 c 0
 292.497070312 362 282.6640625 344 277.997070312 322 c 2
 245.997070312 186 l 2
 243.997070312 178 242.997070312 170 242.997070312 162 c 0
 242.997070312 146 247.6640625 133.333007812 256.997070312 124 c 0
 266.330078125 114.666992188 280.997070312 110 300.997070312 110 c 0
 324.997070312 110 343.330078125 115 355.997070312 125 c 0
 368.6640625 135 376.331054688 147.333007812 378.998046875 162 c 2
 390.998046875 212 l 2
 392.331054688 215.333007812 394.331054688 217 396.998046875 217 c 2
 549.998046875 217 l 2
 552.665039062 217 553.998046875 215.333007812 553.998046875 212 c 2
 540.998046875 157 l 2
 528.998046875 103.666992188 500.331054688 62.5 454.998046875 33.5 c 0
 409.665039062 4.5 348.33203125 -10 270.999023438 -10 c 0
 205.666015625 -10 156.833007812 1.5 124.5 24.5 c 0
EndSplineSet
EndChar

StartChar: d
Encoding: 100 100 69
Width: 572
GlyphClass: 2
Flags: W
AnchorPoint: "Anchor-5" 554 593 basechar 0
AnchorPoint: "Anchor-4" 487 858 basechar 0
AnchorPoint: "Anchor-3" 0 0 basechar 0
AnchorPoint: "Anchor-2" 289 0 basechar 0
LayerCount: 2
Fore
SplineSet
677 703 m 2
 515 5 l 2
 513.666992188 1.6669921875 511.666992188 0 509 0 c 2
 357 0 l 2
 353 0 351.666992188 1.6669921875 353 5 c 2
 367 66 l 1
 359 66 l 1
 325 16 270.666992188 -9 196 -9 c 0
 156 -9 126 0.5 106 19.5 c 0
 86 38.5 76 66 76 102 c 0
 76 120 78.6669921875 140.666992188 84 164 c 2
 126 345 l 2
 138 398.333007812 160.833007812 440.333007812 194.5 471 c 0
 228.166992188 501.666992188 273 517 329 517 c 0
 397 517 436 492.666992188 446 444 c 1
 454 444 l 1
 514 703 l 2
 514 706.333007812 516 708 520 708 c 2
 673 708 l 2
 675.666992188 708 677 706.333007812 677 703 c 2
427 326 m 2
 428.333007812 335.333007812 429 341.666992188 429 345 c 0
 429 361 424.333007812 373.666992188 415 383 c 0
 405.666992188 392.333007812 391 397 371 397 c 0
 323.666992188 397 294 371.666992188 282 321 c 2
 251 184 l 2
 249 175.333007812 248 167.333007812 248 160 c 0
 248 127.333007812 267 111 305 111 c 0
 353.666992188 111 384 138.333007812 396 193 c 2
 427 326 l 2
EndSplineSet
EndChar

StartChar: e
Encoding: 101 101 70
Width: 547
GlyphClass: 2
Flags: W
AnchorPoint: "Anchor-5" 0 0 basechar 0
AnchorPoint: "Anchor-4" 390 508 basechar 0
AnchorPoint: "Anchor-3" 342 8 basechar 0
AnchorPoint: "Anchor-2" 273 0 basechar 0
LayerCount: 2
Fore
SplineSet
540.5 482.5 m 0
 572.166992188 459.5 587.998046875 427.33203125 587.998046875 385.999023438 c 0
 587.998046875 371.33203125 585.998046875 355.33203125 581.998046875 337.999023438 c 2
 573.998046875 303.999023438 l 1
 573.998046875 300.999023438 l 1
 557.998046875 230.999023438 l 2
 556.665039062 226.999023438 554.33203125 224.999023438 550.999023438 224.999023438 c 2
 254.999023438 224.999023438 l 1
 244.999023438 181.999023438 l 2
 242.33203125 168.666015625 240.999023438 159.333007812 240.999023438 154 c 0
 240.999023438 120 260.666015625 103 299.999023438 103 c 0
 341.999023438 103 366.999023438 118 374.999023438 148 c 2
 383.999023438 189 l 2
 385.33203125 192.333007812 387.33203125 194 389.999023438 194 c 2
 542.999023438 194 l 2
 545.666015625 194 546.999023438 192.333007812 546.999023438 189 c 2
 536.999023438 146 l 2
 525.666015625 98 497.999023438 60 453.999023438 32 c 0
 409.999023438 4 348.999023438 -10 270.999023438 -10 c 0
 204.999023438 -10 155.999023438 1.8330078125 123.999023438 25.5 c 0
 91.9990234375 49.1669921875 75.9990234375 83 75.9990234375 127 c 0
 75.9990234375 145 78.33203125 163.333007812 82.9990234375 182 c 2
 113.999023438 321 l 2
 144.666015625 451.666992188 238.333007812 517 395 517 c 0
 460.333007812 517 508.833007812 505.5 540.5 482.5 c 0
272.998046875 305.999023438 m 1
 412.998046875 306.999023438 l 1
 419.998046875 337.999023438 l 2
 421.998046875 347.33203125 422.998046875 355.33203125 422.998046875 361.999023438 c 0
 422.998046875 375.999023438 418.831054688 386.666015625 410.498046875 393.999023438 c 0
 402.165039062 401.33203125 388.665039062 404.999023438 369.998046875 404.999023438 c 0
 344.665039062 404.999023438 324.498046875 397.999023438 309.498046875 383.999023438 c 0
 294.498046875 369.999023438 283.998046875 350.666015625 277.998046875 325.999023438 c 2
 272.998046875 305.999023438 l 1
EndSplineSet
EndChar

StartChar: f
Encoding: 102 102 71
Width: 395
GlyphClass: 2
Flags: W
AnchorPoint: "Anchor-5" 0 0 basechar 0
AnchorPoint: "Anchor-4" 396 858 basechar 0
AnchorPoint: "Anchor-3" 0 0 basechar 0
AnchorPoint: "Anchor-2" 198 0 basechar 0
LayerCount: 2
Fore
SplineSet
543 703 m 2
 517 592.000976562 l 2
 515.666992188 588.66796875 513.666992188 587.000976562 511 587.000976562 c 2
 436 587.000976562 l 2
 420 587.000976562 408.333007812 583.66796875 401 577.000976562 c 0
 393.666992188 570.333984375 388 558.333984375 384 541.000976562 c 2
 376 508.000976562 l 1
 492 508.000976562 l 2
 494.666992188 508.000976562 496 506.333984375 496 503.000976562 c 2
 470 391.000976562 l 2
 468.666992188 387.66796875 466.666992188 386.000976562 464 386.000976562 c 2
 348 386.000976562 l 1
 260 5.0009765625 l 2
 258.666992188 1.66796875 256.666992188 0.0009765625 254 0.0009765625 c 2
 102 0.0009765625 l 2
 98 0.0009765625 96.6669921875 1.66796875 98 5.0009765625 c 2
 186 386.000976562 l 1
 103 386.000976562 l 2
 100.333007812 386.000976562 99 387.66796875 99 391.000976562 c 2
 125 503.000976562 l 2
 125 506.333984375 127 508.000976562 131 508.000976562 c 2
 214 508.000976562 l 1
 231 582.000976562 l 2
 240.333007812 623.333984375 259.5 654.666992188 288.5 676 c 0
 317.5 697.333007812 353.666992188 708 397 708 c 2
 539 708 l 2
 541.666992188 708 543 706.333007812 543 703 c 2
EndSplineSet
EndChar

StartChar: g
Encoding: 103 103 72
Width: 566
GlyphClass: 2
Flags: W
AnchorPoint: "Anchor-5" 0 0 basechar 0
AnchorPoint: "Anchor-4" 398 508 basechar 0
AnchorPoint: "Anchor-3" 0 0 basechar 0
AnchorPoint: "Anchor-2" 245 -158 basechar 0
LayerCount: 2
Fore
SplineSet
624 503 m 2
 511.998046875 16 l 2
 498.665039062 -43.3330078125 469.83203125 -88.666015625 425.499023438 -119.999023438 c 0
 381.166015625 -151.33203125 317.666015625 -166.999023438 234.999023438 -166.999023438 c 0
 167.666015625 -166.999023438 118.166015625 -157.999023438 86.4990234375 -139.999023438 c 0
 54.83203125 -121.999023438 38.9990234375 -95.666015625 38.9990234375 -60.9990234375 c 0
 38.9990234375 -48.9990234375 40.33203125 -37.666015625 42.9990234375 -26.9990234375 c 2
 48.9990234375 -1.9990234375 l 2
 50.33203125 2.0009765625 52.33203125 4.0009765625 54.9990234375 4.0009765625 c 2
 207.999023438 4.0009765625 l 2
 211.999023438 4.0009765625 213.33203125 2.0009765625 211.999023438 -1.9990234375 c 2
 206.999023438 -18.9990234375 l 2
 206.33203125 -20.9990234375 205.999023438 -24.33203125 205.999023438 -28.9990234375 c 0
 205.999023438 -37.666015625 209.83203125 -44.3330078125 217.499023438 -49 c 0
 225.166015625 -53.6669921875 238.999023438 -56 258.999023438 -56 c 0
 288.33203125 -56 309.499023438 -49.8330078125 322.499023438 -37.5 c 0
 335.499023438 -25.1669921875 344.33203125 -8.6669921875 348.999023438 12 c 2
 367.999023438 93 l 1
 358.999023438 93 l 1
 326.999023438 45.6669921875 273.33203125 22 197.999023438 22 c 0
 115.999023438 22 74.9990234375 56.6669921875 74.9990234375 126 c 0
 74.9990234375 141.333007812 77.666015625 161.333007812 82.9990234375 186 c 2
 121.999023438 353 l 2
 133.999023438 407 155.83203125 447.666992188 187.499023438 475 c 0
 219.166015625 502.333007812 262.333007812 516 317 516 c 0
 389 516 430.666992188 492.666992188 442 446 c 1
 449 446 l 1
 462 503 l 2
 462 506.333007812 464 508 468 508 c 2
 621 508 l 2
 624.333007812 508 625.333007812 506.333007812 624 503 c 2
420.998046875 325 m 2
 422.998046875 334.333007812 424 342.33203125 424 348.999023438 c 0
 424 380.999023438 404.333007812 396.999023438 365 396.999023438 c 0
 339.666992188 396.999023438 320.166992188 391.33203125 306.5 379.999023438 c 0
 292.833007812 368.666015625 283.333007812 352.333007812 278 331 c 2
 249 205 l 2
 247 197 246 190 246 184 c 0
 246 155.333007812 266 141 306 141 c 0
 331.333007812 141 351.166015625 147 365.499023438 159 c 0
 379.83203125 171 389.665039062 189 394.998046875 213 c 2
 420.998046875 325 l 2
EndSplineSet
Substitution2: "'ss01' Style Set 1 in Latin lookup 22 subtable" g.ss01
Substitution2: "'salt' Stylistic Alternatives in Latin lookup 21 subtable" g.ss01
Substitution2: "'aalt' Access All Alternates in Latin lookup 0 subtable" g.ss01
EndChar

StartChar: h
Encoding: 104 104 73
Width: 568
GlyphClass: 2
Flags: W
AnchorPoint: "Anchor-5" 289 594 basechar 0
AnchorPoint: "Anchor-4" 297 697 basechar 0
AnchorPoint: "Anchor-3" 0 0 basechar 0
AnchorPoint: "Anchor-2" 284 0 basechar 0
LayerCount: 2
Fore
SplineSet
584 494.5 m 0
 602.666992188 479.5 611.998046875 456.666992188 611.998046875 426 c 0
 611.998046875 410.666992188 609.331054688 391.333984375 603.998046875 368.000976562 c 2
 519.998046875 5.0009765625 l 2
 518.665039062 1.66796875 516.665039062 0.0009765625 513.998046875 0.0009765625 c 2
 361.998046875 0.0009765625 l 2
 357.998046875 0.0009765625 356.665039062 1.66796875 357.998046875 5.0009765625 c 2
 433.998046875 335.000976562 l 2
 435.998046875 344.333984375 436.998046875 352.333984375 436.998046875 359.000976562 c 0
 436.998046875 372.333984375 432.831054688 382.166992188 424.498046875 388.5 c 0
 416.165039062 394.833007812 402.33203125 398 382.999023438 398 c 0
 338.33203125 398 309.999023438 377 297.999023438 335 c 2
 220.999023438 5 l 2
 219.666015625 1.6669921875 217.666015625 0 214.999023438 0 c 2
 62.9990234375 0 l 2
 58.9990234375 0 57.666015625 1.6669921875 58.9990234375 5 c 2
 219.999023438 703 l 2
 219.999023438 706.333007812 221.999023438 708 225.999023438 708 c 2
 378.999023438 708 l 2
 381.666015625 708 382.999023438 706.333007812 382.999023438 703 c 2
 323.999023438 447 l 1
 331.999023438 447 l 1
 345.33203125 465 364.83203125 481.166992188 390.499023438 495.5 c 0
 416.166015625 509.833007812 451.333007812 517 496 517 c 0
 536 517 565.333007812 509.5 584 494.5 c 0
EndSplineSet
EndChar

StartChar: i
Encoding: 105 105 74
Width: 278
GlyphClass: 2
Flags: W
AnchorPoint: "Anchor-5" 0 0 basechar 0
AnchorPoint: "Anchor-4" 0 0 basechar 0
AnchorPoint: "Anchor-3" 0 0 basechar 0
AnchorPoint: "Anchor-2" 139 0 basechar 0
LayerCount: 2
Fore
SplineSet
189 569 m 2
 218.000976562 696 l 2
 219.333984375 699.333007812 221.666992188 701 225 701 c 2
 377 701 l 2
 379.666992188 701 381 699.333007812 381 696 c 2
 351 569 l 2
 351 565.666992188 349 564 345 564 c 2
 193 564 l 2
 189 564 187.666992188 565.666992188 189 569 c 2
59.0009765625 5 m 2
 174.000976562 503 l 2
 174.000976562 506.333007812 176.000976562 508 180.000976562 508 c 2
 333.000976562 508 l 2
 336.333984375 508 337.333984375 506.333007812 336.000976562 503 c 2
 221.000976562 5 l 2
 219.66796875 1.6669921875 217.66796875 0 215.000976562 0 c 2
 63.0009765625 0 l 2
 59.0009765625 0 57.66796875 1.6669921875 59.0009765625 5 c 2
EndSplineSet
Substitution2: "Single Substitution lookup 23 subtable" dotlessi
Substitution2: "'locl' Localized Forms in Latin lookup 10 subtable" i.loclTRK
Substitution2: "'locl' Localized Forms in Latin lookup 9 subtable" i.loclTRK
Substitution2: "'locl' Localized Forms in Latin lookup 8 subtable" i.loclTRK
Substitution2: "'locl' Localized Forms in Latin lookup 7 subtable" i.loclTRK
Substitution2: "'locl' Localized Forms in Latin lookup 6 subtable" i.loclTRK
AlternateSubs2: "'aalt' Access All Alternates in Latin lookup 1 subtable" dotlessi i.loclTRK
EndChar

StartChar: j
Encoding: 106 106 75
Width: 282
GlyphClass: 2
Flags: W
LayerCount: 2
Fore
SplineSet
193 569 m 2
 222.000976562 696 l 2
 223.333984375 699.333007812 225.666992188 701 229 701 c 2
 381 701 l 2
 383.666992188 701 385 699.333007812 385 696 c 2
 355 569 l 2
 355 565.666992188 353 564 349 564 c 2
 197 564 l 2
 193 564 191.666992188 565.666992188 193 569 c 2
-52.9990234375 -153 m 2
 -27.998046875 -43.9990234375 l 2
 -26.6650390625 -40.666015625 -24.6650390625 -38.9990234375 -21.998046875 -38.9990234375 c 2
 11.001953125 -38.9990234375 l 2
 27.001953125 -38.9990234375 38.6689453125 -35.666015625 46.001953125 -28.9990234375 c 0
 53.3349609375 -22.33203125 59.001953125 -10.33203125 63.001953125 7.0009765625 c 2
 178.001953125 503.000976562 l 2
 178.001953125 506.333984375 180.001953125 508.000976562 184.001953125 508.000976562 c 2
 337.001953125 508.000976562 l 2
 340.334960938 508.000976562 341.334960938 506.333984375 340.001953125 503.000976562 c 2
 217.001953125 -31.9990234375 l 2
 207.668945312 -72.666015625 188.668945312 -103.833007812 160.001953125 -125.5 c 0
 131.334960938 -147.166992188 95.66796875 -158 53.0009765625 -158 c 2
 -48.9990234375 -158 l 2
 -51.666015625 -158 -52.9990234375 -156.333007812 -52.9990234375 -153 c 2
EndSplineSet
Substitution2: "Single Substitution lookup 23 subtable" uni0237
Substitution2: "'aalt' Access All Alternates in Latin lookup 0 subtable" uni0237
EndChar

StartChar: k
Encoding: 107 107 76
Width: 532
GlyphClass: 2
Flags: W
AnchorPoint: "Anchor-5" 0 0 basechar 0
AnchorPoint: "Anchor-4" 466 858 basechar 0
AnchorPoint: "Anchor-3" 0 0 basechar 0
AnchorPoint: "Anchor-2" 277 0 basechar 0
LayerCount: 2
Fore
SplineSet
220 703 m 2
 220 706.333007812 222 708 226 708 c 2
 379 708 l 2
 381.666992188 708 383 706.333007812 383 703 c 2
 294 322 l 1
 336 322 l 1
 342 337.333007812 352 355.833007812 366 377.5 c 0
 380 399.166992188 392.666992188 417 404 431 c 2
 464 503 l 2
 465.333007812 506.333007812 468 508 472 508 c 2
 638 508 l 2
 639.333007812 508 640.333007812 507.5 641 506.5 c 0
 641.666992188 505.5 641.666992188 504.333007812 641 503 c 2
 444 265 l 1
 533 5 l 2
 533.666992188 3.6669921875 533.166992188 2.5 531.5 1.5 c 0
 529.833007812 0.5 528.333007812 0 527 0 c 2
 358 0 l 2
 354 0 352 1.6669921875 352 5 c 2
 324 92 l 2
 320 106.666992188 316.166992188 125.166992188 312.5 147.5 c 0
 308.833007812 169.833007812 307.333007812 188.333007812 308 203 c 1
 267 203 l 1
 221 5 l 2
 219.666992188 1.6669921875 217.666992188 0 215 0 c 2
 63 0 l 2
 59 0 57.6669921875 1.6669921875 59 5 c 2
 220 703 l 2
EndSplineSet
EndChar

StartChar: l
Encoding: 108 108 77
Width: 278
GlyphClass: 2
Flags: W
AnchorPoint: "Anchor-5" 206 289 basechar 0
AnchorPoint: "Anchor-4" 311 745 basechar 0
AnchorPoint: "Anchor-3" 0 0 basechar 0
AnchorPoint: "Anchor-2" 139 0 basechar 0
LayerCount: 2
Fore
SplineSet
59 5 m 2
 220 703 l 2
 220 706.333007812 222 708 226 708 c 2
 379 708 l 2
 381.666992188 708 383 706.333007812 383 703 c 2
 221 5 l 2
 219.666992188 1.6669921875 217.666992188 0 215 0 c 2
 63 0 l 2
 59 0 57.6669921875 1.6669921875 59 5 c 2
EndSplineSet
EndChar

StartChar: m
Encoding: 109 109 78
Width: 846
GlyphClass: 2
Flags: W
AnchorPoint: "Anchor-5" 0 0 basechar 0
AnchorPoint: "Anchor-4" 541 508 basechar 0
AnchorPoint: "Anchor-3" 0 0 basechar 0
AnchorPoint: "Anchor-2" 423 0 basechar 0
LayerCount: 2
Fore
SplineSet
861 495 m 0
 879.666992188 479.666992188 889.000976562 456.337890625 889.000976562 425.004882812 c 0
 889.000976562 407.004882812 886.66796875 388.337890625 882.000976562 369.004882812 c 2
 798.000976562 5.0048828125 l 2
 796.66796875 1.671875 794.66796875 0.0048828125 792.000976562 0.0048828125 c 2
 640.000976562 0.0048828125 l 2
 636.000976562 0.0048828125 634.66796875 1.671875 636.000976562 5.0048828125 c 2
 713.000976562 336.004882812 l 2
 715.000976562 345.337890625 716.000976562 353.337890625 716.000976562 360.004882812 c 0
 716.000976562 373.337890625 712.16796875 383.170898438 704.500976562 389.50390625 c 0
 696.833984375 395.836914062 684.333984375 399.00390625 667.000976562 399.00390625 c 0
 627.000976562 399.00390625 600.66796875 379.670898438 588.000976562 341.00390625 c 2
 510.000976562 5.00390625 l 2
 508.66796875 1.6708984375 506.66796875 0.00390625 504.000976562 0.00390625 c 2
 351.000976562 0.00390625 l 2
 347.000976562 0.00390625 345.66796875 1.6708984375 347.000976562 5.00390625 c 2
 424.000976562 336.00390625 l 2
 426.000976562 345.336914062 427.000976562 353.669921875 427.000976562 361.002929688 c 0
 427.000976562 373.669921875 423.16796875 383.169921875 415.500976562 389.502929688 c 0
 407.833984375 395.8359375 395.333984375 399.002929688 378.000976562 399.002929688 c 0
 334.000976562 399.002929688 306.66796875 375.002929688 296.000976562 327.002929688 c 1
 295.000976562 327.002929688 l 1
 221.000976562 5.0029296875 l 2
 219.66796875 1.669921875 217.66796875 0.0029296875 215.000976562 0.0029296875 c 2
 63.0009765625 0.0029296875 l 2
 59.0009765625 0.0029296875 57.66796875 1.669921875 59.0009765625 5.0029296875 c 2
 174.000976562 503.002929688 l 2
 174.000976562 506.3359375 176.000976562 508.002929688 180.000976562 508.002929688 c 2
 333.000976562 508.002929688 l 2
 336.333984375 508.002929688 337.333984375 506.3359375 336.000976562 503.002929688 c 2
 323.000976562 446.002929688 l 1
 332.000976562 446.002929688 l 1
 345.333984375 465.3359375 364.666992188 482.168945312 390 496.501953125 c 0
 415.333007812 510.834960938 449 518.001953125 491 518.001953125 c 0
 525 518.001953125 551 512.168945312 569 500.501953125 c 0
 587 488.834960938 597.666992188 470.66796875 601 446.000976562 c 1
 608 446.000976562 l 1
 622 465.333984375 642 482.166992188 668 496.5 c 0
 694 510.833007812 729 518 773 518 c 0
 813 518 842.333007812 510.333007812 861 495 c 0
EndSplineSet
EndChar

StartChar: n
Encoding: 110 110 79
Width: 568
GlyphClass: 2
Flags: W
AnchorPoint: "Anchor-5" 0 0 basechar 0
AnchorPoint: "Anchor-4" 423 508 basechar 0
AnchorPoint: "Anchor-3" 0 0 basechar 0
AnchorPoint: "Anchor-2" 289 0 basechar 0
LayerCount: 2
Fore
SplineSet
584 495 m 0
 602.666992188 479.666992188 611.998046875 456.333984375 611.998046875 425.000976562 c 0
 611.998046875 409.66796875 609.331054688 390.334960938 603.998046875 367.001953125 c 2
 519.998046875 5.001953125 l 2
 518.665039062 1.6689453125 516.665039062 0.001953125 513.998046875 0.001953125 c 2
 361.998046875 0.001953125 l 2
 357.998046875 0.001953125 356.665039062 1.6689453125 357.998046875 5.001953125 c 2
 433.998046875 334.001953125 l 2
 435.998046875 343.334960938 436.998046875 351.66796875 436.998046875 359.000976562 c 0
 436.998046875 372.333984375 432.831054688 382.333984375 424.498046875 389.000976562 c 0
 416.165039062 395.66796875 402.33203125 399.000976562 382.999023438 399.000976562 c 0
 358.33203125 399.000976562 338.83203125 392.66796875 324.499023438 380.000976562 c 0
 310.166015625 367.333984375 300.666015625 349.666992188 295.999023438 327 c 1
 294.999023438 327 l 1
 220.999023438 5 l 2
 219.666015625 1.6669921875 217.666015625 0 214.999023438 0 c 2
 62.9990234375 0 l 2
 58.9990234375 0 57.666015625 1.6669921875 58.9990234375 5 c 2
 173.999023438 503 l 2
 173.999023438 506.333007812 175.999023438 508 179.999023438 508 c 2
 332.999023438 508 l 2
 336.33203125 508 337.33203125 506.333007812 335.999023438 503 c 2
 323.999023438 449 l 1
 331.999023438 449 l 1
 344.666015625 467 363.833007812 483 389.5 497 c 0
 415.166992188 511 450.666992188 518 496 518 c 0
 536 518 565.333007812 510.333007812 584 495 c 0
EndSplineSet
EndChar

StartChar: o
Encoding: 111 111 80
Width: 549
GlyphClass: 2
Flags: W
AnchorPoint: "Anchor-5" 333 254 basechar 0
AnchorPoint: "Anchor-4" 392 508 basechar 0
AnchorPoint: "Anchor-3" 325 5 basechar 0
AnchorPoint: "Anchor-2" 275 0 basechar 0
LayerCount: 2
Fore
SplineSet
125 26.5 m 0
 92.3330078125 50.8330078125 75.998046875 85.3330078125 75.998046875 130 c 0
 75.998046875 146.666992188 77.998046875 164.333984375 81.998046875 183.000976562 c 2
 113.998046875 319.000976562 l 2
 128.665039062 382.333984375 159.33203125 431.166992188 205.999023438 465.5 c 0
 252.666015625 499.833007812 315.333007812 517 394 517 c 0
 460 517 509.166992188 505 541.5 481 c 0
 573.833007812 457 590 422.333007812 590 377 c 0
 590 363 587.666992188 343.666992188 583 319 c 2
 551 183 l 2
 537 122.333007812 506.833007812 75 460.5 41 c 0
 414.166992188 7 351.666992188 -10 273 -10 c 0
 207 -10 157.666992188 2.1669921875 125 26.5 c 0
388.998046875 186 m 2
 420.998046875 321.999023438 l 2
 422.998046875 331.33203125 423.998046875 340.33203125 423.998046875 348.999023438 c 0
 423.998046875 380.999023438 404.665039062 396.999023438 365.998046875 396.999023438 c 0
 339.998046875 396.999023438 319.831054688 389.83203125 305.498046875 375.499023438 c 0
 291.165039062 361.166015625 281.665039062 343.333007812 276.998046875 322 c 2
 245.998046875 186 l 2
 243.331054688 174 241.998046875 165.333007812 241.998046875 160 c 0
 241.998046875 145.333007812 246.498046875 133.5 255.498046875 124.5 c 0
 264.498046875 115.5 279.331054688 111 299.998046875 111 c 0
 347.998046875 111 377.665039062 136 388.998046875 186 c 2
EndSplineSet
Substitution2: "Single Substitution lookup 25 subtable" ordmasculine
Substitution2: "'aalt' Access All Alternates in Latin lookup 0 subtable" ordmasculine
EndChar

StartChar: p
Encoding: 112 112 81
Width: 573
GlyphClass: 2
Flags: W
AnchorPoint: "Anchor-5" 0 0 basechar 0
AnchorPoint: "Anchor-4" 401 508 basechar 0
AnchorPoint: "Anchor-3" 0 0 basechar 0
AnchorPoint: "Anchor-2" 283 0 basechar 0
LayerCount: 2
Fore
SplineSet
614 409 m 0
 614 392.333007812 611.333984375 371.666992188 606.000976562 347 c 2
 563.000976562 163 l 2
 551.000976562 109 528.333984375 66.6669921875 495.000976562 36 c 0
 461.66796875 5.3330078125 417.66796875 -10 363.000976562 -10 c 0
 292.333984375 -10 251.000976562 14.3330078125 239.000976562 63 c 1
 235.000976562 63 l 1
 185.000976562 -153 l 2
 185.000976562 -156.333007812 183.000976562 -158 179.000976562 -158 c 2
 26.0009765625 -158 l 2
 23.333984375 -158 22.0009765625 -156.333007812 22.0009765625 -153 c 2
 174.000976562 503 l 2
 174.000976562 506.333007812 176.000976562 508 180.000976562 508 c 2
 333.000976562 508 l 2
 336.333984375 508 337.333984375 506.333007812 336.000976562 503 c 2
 322.000976562 443 l 1
 331.000976562 443 l 1
 364.333984375 492.333007812 418.666992188 517 494 517 c 0
 574 517 614 481 614 409 c 0
442.000976562 348.000976562 m 0
 442.000976562 380.66796875 422.66796875 397.000976562 384.000976562 397.000976562 c 0
 335.333984375 397.000976562 305.000976562 369.66796875 293.000976562 315.000976562 c 2
 265.000976562 194.000976562 l 2
 262.333984375 180.66796875 261.000976562 171.000976562 261.000976562 165.000976562 c 0
 261.000976562 149.000976562 265.66796875 136.333984375 275.000976562 127.000976562 c 0
 284.333984375 117.66796875 299.000976562 113.000976562 319.000976562 113.000976562 c 0
 366.333984375 113.000976562 396.000976562 138.333984375 408.000976562 189.000976562 c 2
 439.000976562 324.000976562 l 2
 441.000976562 333.333984375 442.000976562 341.333984375 442.000976562 348.000976562 c 0
EndSplineSet
EndChar

StartChar: q
Encoding: 113 113 82
Width: 601
GlyphClass: 2
Flags: W
AnchorPoint: "Anchor-5" 0 0 basechar 0
AnchorPoint: "Anchor-4" 407 508 basechar 0
AnchorPoint: "Anchor-3" 0 0 basechar 0
AnchorPoint: "Anchor-2" 289 0 basechar 0
LayerCount: 2
Fore
SplineSet
630 503 m 2
 478.999023438 -153.000976562 l 2
 478.999023438 -156.333984375 476.999023438 -158.000976562 472.999023438 -158.000976562 c 2
 319.999023438 -158.000976562 l 2
 317.33203125 -158.000976562 315.999023438 -156.333984375 315.999023438 -153.000976562 c 2
 365.999023438 63.9990234375 l 1
 358.999023438 63.9990234375 l 1
 344.999023438 43.9990234375 325.83203125 26.666015625 301.499023438 11.9990234375 c 0
 277.166015625 -2.66796875 242.333007812 -10.0009765625 197 -10.0009765625 c 0
 156.333007812 -10.0009765625 126 -0.5009765625 106 18.4990234375 c 0
 86 37.4990234375 76 64.9990234375 76 100.999023438 c 0
 76 117.666015625 78.6669921875 138.333007812 84 163 c 2
 126 346 l 2
 138.666992188 400 161.666992188 442 195 472 c 0
 228.333007812 502 272.333007812 517 327 517 c 0
 401.666992188 517 444.666992188 492 456 442 c 1
 467 442 l 1
 500 503 l 2
 501.333007812 506.333007812 503.333007812 508 506 508 c 2
 627 508 l 2
 630.333007812 508 631.333007812 506.333007812 630 503 c 2
425.999023438 319.999023438 m 2
 427.999023438 329.33203125 428.999023438 337.33203125 428.999023438 343.999023438 c 0
 428.999023438 379.33203125 409.666015625 396.999023438 370.999023438 396.999023438 c 0
 323.666015625 396.999023438 293.999023438 371.666015625 281.999023438 320.999023438 c 2
 249.999023438 182.999023438 l 2
 247.999023438 174.33203125 246.999023438 166.33203125 246.999023438 158.999023438 c 0
 246.999023438 126.33203125 266.33203125 109.999023438 304.999023438 109.999023438 c 0
 353.666015625 109.999023438 383.999023438 137.33203125 395.999023438 191.999023438 c 2
 425.999023438 319.999023438 l 2
EndSplineSet
EndChar

StartChar: r
Encoding: 114 114 83
Width: 507
GlyphClass: 2
Flags: W
AnchorPoint: "Anchor-5" 0 0 basechar 0
AnchorPoint: "Anchor-4" 392 508 basechar 0
AnchorPoint: "Anchor-3" 0 0 basechar 0
AnchorPoint: "Anchor-2" 139 0 basechar 0
LayerCount: 2
Fore
SplineSet
555.5 497 m 0
 571.833007812 483 580 461.666992188 580 433 c 0
 580 416.333007812 577.333007812 395.333007812 572 370 c 2
 544 247 l 2
 542.666992188 243.666992188 540.333984375 242 537.000976562 242 c 2
 385.000976562 242 l 2
 381.66796875 242 380.66796875 243.666992188 382.000976562 247 c 2
 403.000976562 341 l 2
 405.66796875 353 407.000976562 361 407.000976562 365 c 0
 407.000976562 387 393.66796875 398 367.000976562 398 c 0
 349.66796875 398 335.000976562 392.5 323.000976562 381.5 c 0
 311.000976562 370.5 302.333984375 354 297.000976562 332 c 2
 221.000976562 5 l 2
 219.66796875 1.6669921875 217.66796875 0 215.000976562 0 c 2
 63.0009765625 0 l 2
 59.0009765625 0 57.66796875 1.6669921875 59.0009765625 5 c 2
 174.000976562 503 l 2
 174.000976562 506.333007812 176.000976562 508 180.000976562 508 c 2
 333.000976562 508 l 2
 336.333984375 508 337.333984375 506.333007812 336.000976562 503 c 2
 323.000976562 446 l 1
 332.000976562 446 l 1
 364.000976562 494 412.66796875 518 478.000976562 518 c 0
 513.333984375 518 539.166992188 511 555.5 497 c 0
EndSplineSet
EndChar

StartChar: s
Encoding: 115 115 84
Width: 535
GlyphClass: 2
Flags: W
AnchorPoint: "Anchor-5" 0 0 basechar 0
AnchorPoint: "Anchor-4" 385 508 basechar 0
AnchorPoint: "Anchor-3" 0 0 basechar 0
AnchorPoint: "Anchor-2" 268 0 basechar 0
LayerCount: 2
Fore
SplineSet
110.5 18 m 0
 78.8330078125 36.6669921875 62.9990234375 64.666015625 62.9990234375 101.999023438 c 0
 62.9990234375 111.999023438 64.666015625 124.666015625 67.9990234375 139.999023438 c 2
 78.9990234375 182.999023438 l 2
 78.9990234375 186.33203125 80.9990234375 187.999023438 84.9990234375 187.999023438 c 2
 236.999023438 187.999023438 l 2
 240.999023438 187.999023438 242.33203125 186.33203125 240.999023438 182.999023438 c 2
 231.999023438 144.999023438 l 2
 231.33203125 142.33203125 230.999023438 138.33203125 230.999023438 132.999023438 c 0
 230.999023438 122.999023438 235.166015625 115.499023438 243.499023438 110.499023438 c 0
 251.83203125 105.499023438 267.33203125 102.999023438 289.999023438 102.999023438 c 0
 315.999023438 102.999023438 334.33203125 105.999023438 344.999023438 111.999023438 c 0
 355.666015625 117.999023438 362.666015625 127.33203125 365.999023438 139.999023438 c 2
 370.999023438 161.999023438 l 2
 373.666015625 173.999023438 368.499023438 182.999023438 355.499023438 188.999023438 c 0
 342.499023438 194.999023438 317.666015625 201.999023438 280.999023438 209.999023438 c 0
 240.999023438 217.33203125 209.666015625 224.33203125 186.999023438 230.999023438 c 0
 164.33203125 237.666015625 146.165039062 247.166015625 132.498046875 259.499023438 c 0
 118.831054688 271.83203125 111.998046875 288.665039062 111.998046875 309.998046875 c 0
 111.998046875 319.998046875 113.331054688 329.998046875 115.998046875 339.998046875 c 2
 123.998046875 374.998046875 l 2
 146.665039062 470.331054688 234.998046875 517.998046875 388.998046875 517.998046875 c 0
 457.665039062 517.998046875 507.83203125 508.498046875 539.499023438 489.498046875 c 0
 571.166015625 470.498046875 586.999023438 442.998046875 586.999023438 406.998046875 c 0
 586.999023438 395.665039062 585.33203125 382.33203125 581.999023438 366.999023438 c 2
 572.999023438 328.999023438 l 2
 571.666015625 325.666015625 569.333007812 323.999023438 566 323.999023438 c 2
 414 323.999023438 l 2
 411.333007812 323.999023438 410 325.666015625 410 328.999023438 c 2
 418 361.999023438 l 2
 419.333007812 368.666015625 420 373.333007812 420 376 c 0
 420 385.333007812 415.833007812 392.5 407.5 397.5 c 0
 399.166992188 402.5 384 405 362 405 c 0
 335.333007812 405 316.5 401.833007812 305.5 395.5 c 0
 294.5 389.166992188 287.666992188 379.666992188 285 367 c 2
 280 348 l 2
 277.333007812 336.666992188 282.833007812 328.166992188 296.5 322.5 c 0
 310.166992188 316.833007812 333.666992188 310.333007812 367 303 c 0
 405.666992188 297 436.833984375 290.666992188 460.500976562 284 c 0
 484.16796875 277.333007812 503.16796875 267.333007812 517.500976562 254 c 0
 531.833984375 240.666992188 539.000976562 222.666992188 539.000976562 200 c 0
 539.000976562 189.333007812 537.66796875 179 535.000976562 169 c 2
 526.000976562 130 l 2
 515.333984375 84.6669921875 488.666992188 50 446 26 c 0
 403.333007812 2 342 -10 262 -10 c 0
 192.666992188 -10 142.166992188 -0.6669921875 110.5 18 c 0
EndSplineSet
EndChar

StartChar: t
Encoding: 116 116 85
Width: 401
GlyphClass: 2
Flags: W
AnchorPoint: "Anchor-5" 252 259 basechar 0
AnchorPoint: "Anchor-4" 318 508 basechar 0
AnchorPoint: "Anchor-3" 0 0 basechar 0
AnchorPoint: "Anchor-2" 216 0 basechar 0
LayerCount: 2
Fore
SplineSet
492 503 m 2
 467.000976562 391 l 2
 465.66796875 387.666992188 463.66796875 386 461.000976562 386 c 2
 345.000976562 386 l 1
 295.000976562 168 l 2
 293.000976562 159.333007812 292.000976562 152 292.000976562 146 c 0
 292.000976562 137.333007812 294.66796875 131 300.000976562 127 c 0
 305.333984375 123 314.000976562 121 326.000976562 121 c 2
 400.000976562 121 l 2
 404.000976562 121 405.333984375 119.333007812 404.000976562 116 c 2
 378.000976562 5 l 2
 376.66796875 1.6669921875 374.66796875 0 372.000976562 0 c 2
 231.000976562 0 l 2
 194.333984375 0 166.333984375 7.5 147.000976562 22.5 c 0
 127.66796875 37.5 118.000976562 59.3330078125 118.000976562 88 c 0
 118.000976562 98 119.66796875 110.666992188 123.000976562 126 c 2
 183.000976562 386 l 1
 101.000976562 386 l 2
 97.0009765625 386 95.66796875 387.666992188 97.0009765625 391 c 2
 122.000976562 503 l 2
 123.333984375 506.333007812 125.666992188 508 129 508 c 2
 211 508 l 1
 241 636 l 2
 241 639.333007812 243 641 247 641 c 2
 399 641 l 2
 403 641 404.333007812 639.333007812 403 636 c 2
 373 508 l 1
 489 508 l 2
 492.333007812 508 493.333007812 506.333007812 492 503 c 2
EndSplineSet
EndChar

StartChar: u
Encoding: 117 117 86
Width: 568
GlyphClass: 2
Flags: W
AnchorPoint: "Anchor-5" 0 0 basechar 0
AnchorPoint: "Anchor-4" 381 508 basechar 0
AnchorPoint: "Anchor-3" 444 0 basechar 0
AnchorPoint: "Anchor-2" 260 0 basechar 0
LayerCount: 2
Fore
SplineSet
627 503 m 2
 512.002929688 5.001953125 l 2
 510.669921875 1.6689453125 508.336914062 0.001953125 505.00390625 0.001953125 c 2
 353.00390625 0.001953125 l 2
 350.336914062 0.001953125 349.00390625 1.6689453125 349.00390625 5.001953125 c 2
 361.00390625 59.001953125 l 1
 353.00390625 59.001953125 l 1
 340.336914062 41.001953125 321.169921875 25.001953125 295.502929688 11.001953125 c 0
 269.8359375 -2.998046875 234.668945312 -9.998046875 190.001953125 -9.998046875 c 0
 150.001953125 -9.998046875 120.668945312 -2.3310546875 102.001953125 13.001953125 c 0
 83.3349609375 28.3349609375 74.001953125 51.66796875 74.001953125 83.0009765625 c 0
 74.001953125 98.333984375 76.6689453125 117.666992188 82.001953125 141 c 2
 165.001953125 503 l 2
 166.334960938 506.333007812 168.334960938 508 171.001953125 508 c 2
 324.001953125 508 l 2
 328.001953125 508 329.334960938 506.333007812 328.001953125 503 c 2
 251.001953125 174 l 2
 249.001953125 165.333007812 248.001953125 157.333007812 248.001953125 150 c 0
 248.001953125 136.666992188 252.168945312 126.5 260.501953125 119.5 c 0
 268.834960938 112.5 282.66796875 109 302.000976562 109 c 0
 345.333984375 109 373.666992188 129 387 169 c 1
 464 503 l 2
 465.333007812 506.333007812 467.333007812 508 470 508 c 2
 623 508 l 2
 627 508 628.333007812 506.333007812 627 503 c 2
EndSplineSet
EndChar

StartChar: v
Encoding: 118 118 87
Width: 496
GlyphClass: 2
Flags: W
AnchorPoint: "Anchor-5" 0 0 basechar 0
AnchorPoint: "Anchor-4" 366 508 basechar 0
AnchorPoint: "Anchor-3" 0 0 basechar 0
AnchorPoint: "Anchor-2" 248 0 basechar 0
LayerCount: 2
Fore
SplineSet
143 5 m 2
 119.999023438 503 l 2
 119.999023438 506.333007812 121.999023438 508 125.999023438 508 c 2
 282.999023438 508 l 2
 284.999023438 508 285.999023438 506.333007812 285.999023438 503 c 2
 291.999023438 329 l 2
 292.666015625 303.666992188 290.999023438 271.333984375 286.999023438 232.000976562 c 0
 282.999023438 192.66796875 278.999023438 163.000976562 274.999023438 143.000976562 c 1
 286.999023438 143.000976562 l 1
 291.666015625 161.000976562 301.333007812 190.16796875 316 230.500976562 c 0
 330.666992188 270.833984375 343.666992188 303.666992188 355 329 c 2
 443 503 l 2
 443 506.333007812 445 508 449 508 c 2
 605 508 l 2
 609 508 610.333007812 506.333007812 609 503 c 2
 356 5 l 2
 354 1.6669921875 351.666992188 0 349 0 c 2
 147 0 l 2
 144.333007812 0 143 1.6669921875 143 5 c 2
EndSplineSet
EndChar

StartChar: w
Encoding: 119 119 88
Width: 774
GlyphClass: 2
Flags: W
AnchorPoint: "Anchor-5" 0 0 basechar 0
AnchorPoint: "Anchor-4" 504 508 basechar 0
AnchorPoint: "Anchor-3" 0 0 basechar 0
AnchorPoint: "Anchor-2" 387 0 basechar 0
LayerCount: 2
Fore
SplineSet
140 5 m 2
 120.001953125 502.999023438 l 2
 120.001953125 506.33203125 122.001953125 507.999023438 126.001953125 507.999023438 c 2
 282.001953125 507.999023438 l 2
 284.668945312 507.999023438 286.001953125 506.33203125 286.001953125 502.999023438 c 2
 293.001953125 328.999023438 l 2
 293.001953125 301.666015625 290.668945312 269.333007812 286.001953125 232 c 0
 281.334960938 194.666992188 276.66796875 165 272.000976562 143 c 1
 284.000976562 143 l 1
 288.66796875 160.333007812 297.66796875 188.333007812 311.000976562 227 c 0
 324.333984375 265.666992188 337.666992188 301.666992188 351 335 c 2
 424 503 l 2
 425.333007812 506.333007812 427.333007812 508 430 508 c 2
 579 508 l 2
 581 508 582 506.333007812 582 503 c 2
 577 336 l 2
 575 303.333007812 571.666992188 267.5 567 228.5 c 0
 562.333007812 189.5 558.333007812 161 555 143 c 1
 567 143 l 1
 572.333007812 165 581.5 194.833007812 594.5 232.5 c 0
 607.5 270.166992188 620 302.333984375 632 329.000976562 c 2
 720 503.000976562 l 2
 721.333007812 506.333984375 723.333007812 508.000976562 726 508.000976562 c 2
 883 508.000976562 l 2
 886.333007812 508.000976562 887.333007812 506.333984375 886 503.000976562 c 2
 635 5.0009765625 l 2
 633.666992188 1.66796875 631.666992188 0.0009765625 629 0.0009765625 c 2
 448 0.0009765625 l 2
 445.333007812 0.0009765625 444 1.66796875 444 5.0009765625 c 2
 442 120.000976562 l 2
 442.666992188 144.000976562 446.166992188 178.833984375 452.5 224.500976562 c 0
 458.833007812 270.16796875 465.666015625 311.000976562 472.999023438 347.000976562 c 1
 461.999023438 347.000976562 l 1
 453.33203125 312.333984375 441.33203125 272.166992188 425.999023438 226.5 c 0
 410.666015625 180.833007812 397.333007812 145 386 119 c 2
 332 5 l 2
 330 1.6669921875 328 0 326 0 c 2
 144 0 l 2
 141.333007812 0 140 1.6669921875 140 5 c 2
EndSplineSet
EndChar

StartChar: x
Encoding: 120 120 89
Width: 499
GlyphClass: 2
Flags: W
AnchorPoint: "Anchor-5" 0 0 basechar 0
AnchorPoint: "Anchor-4" 367 508 basechar 0
AnchorPoint: "Anchor-3" 0 0 basechar 0
AnchorPoint: "Anchor-2" 250 0 basechar 0
LayerCount: 2
Fore
SplineSet
5.5 1.5 m 0
 4.5 2.5 4.33203125 3.6640625 4.9990234375 4.9970703125 c 2
 194.999023438 258.997070312 l 1
 122.999023438 502.997070312 l 2
 122.33203125 504.330078125 122.83203125 505.497070312 124.499023438 506.497070312 c 0
 126.166015625 507.497070312 127.666015625 507.997070312 128.999023438 507.997070312 c 2
 293.999023438 507.997070312 l 2
 295.999023438 507.997070312 297.999023438 506.330078125 299.999023438 502.997070312 c 2
 311.999023438 458.997070312 l 2
 315.33203125 446.997070312 317.999023438 431.830078125 319.999023438 413.497070312 c 0
 321.999023438 395.1640625 322.999023438 377.331054688 322.999023438 359.998046875 c 0
 322.999023438 343.998046875 322.33203125 332.998046875 320.999023438 326.998046875 c 1
 327.999023438 326.998046875 l 1
 333.999023438 344.331054688 344.166015625 366.498046875 358.499023438 393.498046875 c 0
 372.83203125 420.498046875 385.999023438 441.998046875 397.999023438 457.998046875 c 2
 431.999023438 502.998046875 l 2
 433.999023438 506.331054688 436.666015625 507.998046875 439.999023438 507.998046875 c 2
 604.999023438 507.998046875 l 2
 606.33203125 507.998046875 607.33203125 507.498046875 607.999023438 506.498046875 c 0
 608.666015625 505.498046875 608.666015625 504.331054688 607.999023438 502.998046875 c 2
 423.999023438 258.998046875 l 1
 495.999023438 4.998046875 l 2
 496.666015625 3.6650390625 496.166015625 2.498046875 494.499023438 1.498046875 c 0
 492.83203125 0.498046875 491.33203125 -0.001953125 489.999023438 -0.001953125 c 2
 324.999023438 -0.001953125 l 2
 322.33203125 -0.001953125 320.33203125 1.6650390625 318.999023438 4.998046875 c 2
 304.999023438 55.998046875 l 2
 302.33203125 66.6650390625 299.999023438 80.998046875 297.999023438 98.998046875 c 0
 295.999023438 116.998046875 294.999023438 134.665039062 294.999023438 151.998046875 c 0
 294.999023438 167.998046875 295.999023438 181.331054688 297.999023438 191.998046875 c 1
 289.999023438 191.998046875 l 1
 284.666015625 174.665039062 274.333007812 151.83203125 259 123.499023438 c 0
 243.666992188 95.166015625 230 72.3330078125 218 55 c 2
 182 5 l 2
 178.666992188 1.6669921875 176 0 174 0 c 2
 9 0 l 2
 7.6669921875 0 6.5 0.5 5.5 1.5 c 0
EndSplineSet
EndChar

StartChar: y
Encoding: 121 121 90
Width: 496
GlyphClass: 2
Flags: W
AnchorPoint: "Anchor-5" 0 0 basechar 0
AnchorPoint: "Anchor-4" 366 508 basechar 0
AnchorPoint: "Anchor-3" 0 0 basechar 0
AnchorPoint: "Anchor-2" 248 0 basechar 0
LayerCount: 2
Fore
SplineSet
609 503 m 2
 362.998046875 18 l 1
 362.498046875 17.5 l 1
 361.998046875 17 l 1
 330.998046875 -49 l 2
 310.998046875 -87 287.165039062 -114.166992188 259.498046875 -130.5 c 0
 231.831054688 -146.833007812 198.331054688 -155 158.998046875 -155 c 2
 3.998046875 -155 l 2
 -0.001953125 -155 -1.3349609375 -153.333007812 -0.001953125 -150 c 2
 24.998046875 -39 l 2
 26.3310546875 -35.6669921875 28.6640625 -34 31.9970703125 -34 c 2
 144.997070312 -34 l 2
 159.6640625 -34 171.831054688 -31 181.498046875 -25 c 0
 191.165039062 -19 199.33203125 -7.6669921875 205.999023438 9 c 1
 143.999023438 8 l 2
 141.33203125 8 139.999023438 9.6669921875 139.999023438 13 c 2
 119.999023438 503 l 2
 119.999023438 506.333007812 121.999023438 508 125.999023438 508 c 2
 282.999023438 508 l 2
 284.999023438 508 285.999023438 506.333007812 285.999023438 503 c 2
 291.999023438 329 l 2
 292.666015625 303.666992188 290.999023438 271.333984375 286.999023438 232.000976562 c 0
 282.999023438 192.66796875 278.999023438 163.000976562 274.999023438 143.000976562 c 1
 286.999023438 143.000976562 l 1
 291.666015625 161.000976562 301.333007812 190.16796875 316 230.500976562 c 0
 330.666992188 270.833984375 343.666992188 303.666992188 355 329 c 2
 443 503 l 2
 443 506.333007812 445 508 449 508 c 2
 605 508 l 2
 609 508 610.333007812 506.333007812 609 503 c 2
EndSplineSet
EndChar

StartChar: z
Encoding: 122 122 91
Width: 452
GlyphClass: 2
Flags: W
AnchorPoint: "Anchor-5" 0 0 basechar 0
AnchorPoint: "Anchor-4" 344 508 basechar 0
AnchorPoint: "Anchor-3" 0 0 basechar 0
AnchorPoint: "Anchor-2" 226 0 basechar 0
LayerCount: 2
Fore
SplineSet
547 503 m 2
 524.000976562 402 l 2
 523.333984375 399.333007812 521.333984375 396.333007812 518.000976562 393 c 2
 240.000976562 119 l 1
 454.000976562 119 l 2
 458.000976562 119 459.333984375 117.333007812 458.000976562 114 c 2
 433.000976562 5 l 2
 431.66796875 1.6669921875 429.66796875 0 427.000976562 0 c 2
 23.0009765625 0 l 2
 19.0009765625 0 17.66796875 1.6669921875 19.0009765625 5 c 2
 42.0009765625 104 l 2
 42.0009765625 106.666992188 43.66796875 109.666992188 47.0009765625 113 c 2
 324.000976562 389 l 1
 115.000976562 389 l 2
 112.333984375 389 111.000976562 390.666992188 111.000976562 394 c 2
 136.000976562 503 l 2
 137.333984375 506.333007812 139.666992188 508 143 508 c 2
 543 508 l 2
 545.666992188 508 547 506.333007812 547 503 c 2
EndSplineSet
EndChar

StartChar: braceleft
Encoding: 123 123 92
Width: 418
GlyphClass: 2
Flags: W
LayerCount: 2
Fore
SplineSet
149 -153 m 0
 117.666992188 -132.333007812 102 -99.3330078125 102 -54 c 0
 102 -34.6669921875 104.333007812 -15.333984375 109 3.9990234375 c 2
 157 208.999023438 l 2
 158.333007812 213.666015625 159 219.333007812 159 226 c 0
 159 238 154 246.333007812 144 251 c 0
 134 255.666992188 117.333007812 258 94 258 c 0
 90 258 88.6669921875 259.666992188 90 263 c 2
 117 383 l 2
 118.333007812 386.333007812 120.666015625 388 123.999023438 388 c 0
 151.999023438 388 172.166015625 391.5 184.499023438 398.5 c 0
 196.83203125 405.5 205.33203125 418.333007812 209.999023438 437 c 2
 256.999023438 642 l 2
 271.666015625 707.333007812 301.333007812 754.833007812 346 784.5 c 0
 390.666992188 814.166992188 449 829.333984375 521 830.000976562 c 2
 562 830.000976562 l 2
 566 830.000976562 567.333007812 828.333984375 566 825.000976562 c 2
 539 706.000976562 l 2
 537.666992188 702.66796875 535.666992188 701.000976562 533 701.000976562 c 2
 494 701.000976562 l 2
 470.666992188 701.000976562 452.5 695.833984375 439.5 685.500976562 c 0
 426.5 675.16796875 417.666992188 658.66796875 413 636.000976562 c 2
 366 435.000976562 l 2
 352 370.333984375 316 334.333984375 258 327.000976562 c 1
 256 320.000976562 l 1
 298 314.66796875 319 290.66796875 319 248.000976562 c 0
 319 235.333984375 317.666992188 223.333984375 315 212.000976562 c 2
 268 11.0009765625 l 2
 266 1.66796875 265 -6.33203125 265 -12.9990234375 c 0
 265 -27.666015625 269.333007812 -38.3330078125 278 -45 c 0
 286.666992188 -51.6669921875 300 -55 318 -55 c 2
 358 -55 l 2
 360.666992188 -55 362 -56.6669921875 362 -60 c 2
 334 -179 l 2
 334 -182.333007812 332 -184 328 -184 c 2
 286 -184 l 2
 226 -184 180.333007812 -173.666992188 149 -153 c 0
EndSplineSet
EndChar

StartChar: bar
Encoding: 124 124 93
Width: 268
GlyphClass: 2
Flags: W
LayerCount: 2
Fore
SplineSet
43 -115 m 2
 254 795 l 2
 254 798.333007812 256 800 260 800 c 2
 378 800 l 2
 380.666992188 800 382 798.333007812 382 795 c 2
 171 -115 l 2
 171 -118.333007812 169 -120 165 -120 c 2
 47 -120 l 2
 44.3330078125 -120 43 -118.333007812 43 -115 c 2
EndSplineSet
EndChar

StartChar: braceright
Encoding: 125 125 94
Width: 418
GlyphClass: 2
Flags: W
LayerCount: 2
Fore
SplineSet
5 -184 m 2
 2.3330078125 -184 1.0009765625 -182.330078125 1.0009765625 -178.997070312 c 2
 29.0009765625 -59.9970703125 l 2
 29.0009765625 -56.6640625 31.0009765625 -54.9970703125 35.0009765625 -54.9970703125 c 2
 75.0009765625 -54.9970703125 l 2
 97.66796875 -54.9970703125 115.334960938 -49.830078125 128.001953125 -39.4970703125 c 0
 140.668945312 -29.1640625 149.668945312 -12.3310546875 155.001953125 11.001953125 c 2
 201.001953125 212.001953125 l 2
 216.334960938 276.668945312 252.66796875 312.668945312 310.000976562 320.001953125 c 1
 312.000976562 327.001953125 l 1
 269.333984375 333.001953125 248.000976562 356.334960938 248.000976562 397.001953125 c 0
 248.000976562 407.001953125 249.66796875 419.668945312 253.000976562 435.001953125 c 2
 299.000976562 636.001953125 l 2
 301.000976562 645.334960938 302.000976562 653.66796875 302.000976562 661.000976562 c 0
 302.000976562 675.000976562 297.66796875 685.16796875 289.000976562 691.500976562 c 0
 280.333984375 697.833984375 266.666992188 701.000976562 248 701.000976562 c 2
 210 701.000976562 l 2
 206 701.000976562 204.666992188 702.66796875 206 706.000976562 c 2
 233 825.000976562 l 2
 234.333007812 828.333984375 236.333007812 830.000976562 239 830.000976562 c 2
 280 830.000976562 l 2
 340.666992188 829.333984375 386.666992188 818.666992188 418 798 c 0
 449.333007812 777.333007812 465 744.666015625 465 699.999023438 c 0
 465 680.666015625 462.666992188 661.333007812 458 642 c 2
 411 437 l 2
 409.666992188 433 409 427.333007812 409 420 c 0
 409 408 414 399.666992188 424 395 c 0
 434 390.333007812 450.666992188 388 474 388 c 0
 476.666992188 388 478 386.333007812 478 383 c 2
 450 263 l 2
 448.666992188 259.666992188 446.666992188 258 444 258 c 0
 416 258 395.833007812 254.666992188 383.5 248 c 0
 371.166992188 241.333007812 362.666992188 228.333007812 358 209 c 2
 310 4 l 2
 295.333007812 -62 265.833007812 -109.833007812 221.5 -139.5 c 0
 177.166992188 -169.166992188 119 -184 47 -184 c 2
 5 -184 l 2
EndSplineSet
EndChar

StartChar: asciitilde
Encoding: 126 126 95
Width: 576
GlyphClass: 2
Flags: W
LayerCount: 2
Fore
SplineSet
100 197 m 0
 112.666992188 253.666992188 135.16796875 294.833007812 167.500976562 320.5 c 0
 199.833984375 346.166992188 234.333984375 359 271.000976562 359 c 0
 291.000976562 359 308.500976562 356.666992188 323.500976562 352 c 0
 338.500976562 347.333007812 356.000976562 340.333007812 376.000976562 331 c 0
 391.333984375 323.666992188 404.666992188 318 416 314 c 0
 427.333007812 310 439.333007812 308 452 308 c 0
 462.666992188 308 472.333984375 312.333007812 481.000976562 321 c 0
 489.66796875 329.666992188 495.66796875 340.333984375 499.000976562 353.000976562 c 0
 499.000976562 354.333984375 499.500976562 355.500976562 500.500976562 356.500976562 c 0
 501.500976562 357.500976562 502.66796875 358.000976562 504.000976562 358.000976562 c 2
 600.000976562 358.000976562 l 2
 603.333984375 358.000976562 604.333984375 356.333984375 603.000976562 353.000976562 c 0
 590.333984375 298.333984375 567.666992188 257.666992188 535 231 c 0
 502.333007812 204.333007812 468 191 432 191 c 0
 410 191 390.833007812 193.5 374.5 198.5 c 0
 358.166992188 203.5 340 211 320 221 c 0
 305.333007812 228.333007812 293 233.666015625 283 236.999023438 c 0
 273 240.33203125 262.666992188 241.999023438 252 241.999023438 c 0
 241.333007812 241.999023438 231.5 237.83203125 222.5 229.499023438 c 0
 213.5 221.166015625 207.333007812 210.333007812 204 197 c 0
 204 195.666992188 203.5 194.666992188 202.5 194 c 0
 201.5 193.333007812 200.333007812 193 199 193 c 2
 103 193 l 2
 99.6669921875 193 98.6669921875 194.333007812 100 197 c 0
EndSplineSet
EndChar

StartChar: exclamdown
Encoding: 161 161 96
Width: 278
GlyphClass: 2
Flags: W
LayerCount: 2
Fore
SplineSet
332 508 m 2
 334 508 335 506.333007812 335 503 c 2
 301 354 l 2
 300.333007812 351.333007812 298.333007812 350 295 350 c 2
 144 350 l 2
 141.333007812 350 140.333007812 351.333007812 141 354 c 2
 175 503 l 2
 175 506.333007812 177 508 181 508 c 2
 332 508 l 2
266 311 m 2
 268.666992188 311 270 309.666992188 270 307 c 2
 235 65 l 1
 175 -195 l 2
 175 -198.333007812 173 -200 169 -200 c 2
 16 -200 l 2
 14.6669921875 -200 13.6669921875 -199.5 13 -198.5 c 0
 12.3330078125 -197.5 12.3330078125 -196.333007812 13 -195 c 2
 72 65 l 1
 149 307 l 2
 150.333007812 309.666992188 152.333007812 311 155 311 c 2
 266 311 l 2
EndSplineSet
EndChar

StartChar: cent
Encoding: 162 162 97
Width: 541
GlyphClass: 2
Flags: W
LayerCount: 2
Fore
SplineSet
613 492 m 0
 613 477.333007812 611.000976562 462 607.000976562 446 c 2
 595.000976562 396 l 2
 595.000976562 392.666992188 593.000976562 391 589.000976562 391 c 2
 437.000976562 391 l 2
 433.000976562 391 431.66796875 392.666992188 433.000976562 396 c 2
 444.000976562 446 l 2
 445.333984375 451.333007812 446.000976562 455.666015625 446.000976562 458.999023438 c 0
 446.000976562 484.33203125 427.333984375 496.999023438 390.000976562 496.999023438 c 0
 364.66796875 496.999023438 344.500976562 489.999023438 329.500976562 475.999023438 c 0
 314.500976562 461.999023438 304.66796875 443.999023438 300.000976562 421.999023438 c 2
 268.000976562 285.999023438 l 2
 266.000976562 277.999023438 265.000976562 269.999023438 265.000976562 261.999023438 c 0
 265.000976562 246.666015625 269.66796875 234.166015625 279.000976562 224.499023438 c 0
 288.333984375 214.83203125 303.000976562 209.999023438 323.000976562 209.999023438 c 0
 347.000976562 209.999023438 365.333984375 214.999023438 378.000976562 224.999023438 c 0
 390.66796875 234.999023438 398.66796875 247.33203125 402.000976562 261.999023438 c 2
 414.000976562 311.999023438 l 2
 414.000976562 315.33203125 416.000976562 316.999023438 420.000976562 316.999023438 c 2
 572.000976562 316.999023438 l 2
 576.000976562 316.999023438 577.333984375 315.33203125 576.000976562 311.999023438 c 2
 563.000976562 256.999023438 l 2
 552.333984375 211.666015625 529.833984375 174.999023438 495.500976562 146.999023438 c 0
 461.16796875 118.999023438 414.66796875 101.33203125 356.000976562 93.9990234375 c 1
 336.000976562 4.9990234375 l 2
 334.66796875 1.666015625 332.66796875 -0.0009765625 330.000976562 -0.0009765625 c 2
 218.000976562 -0.0009765625 l 2
 214.000976562 -0.0009765625 212.66796875 1.666015625 214.000976562 4.9990234375 c 2
 235.000976562 93.9990234375 l 1
 189.66796875 99.9990234375 155.500976562 114.33203125 132.500976562 136.999023438 c 0
 109.500976562 159.666015625 98.0009765625 189.333007812 98.0009765625 226 c 0
 98.0009765625 240 100.333984375 258 105.000976562 280 c 2
 138.000976562 422 l 2
 163.333984375 533.333007812 235.666992188 597 355 613 c 1
 376 702 l 2
 376 705.333007812 378 707 382 707 c 2
 493 707 l 2
 495.666992188 707 497 705.333007812 497 702 c 2
 476 613 l 1
 567.333007812 601 613 560.666992188 613 492 c 0
EndSplineSet
EndChar

StartChar: sterling
Encoding: 163 163 98
Width: 629
GlyphClass: 2
Flags: W
LayerCount: 2
Fore
SplineSet
651.5 684.5 m 0
 688.5 662.833007812 706.998046875 628.333984375 706.998046875 581.000976562 c 0
 706.998046875 563.000976562 704.665039062 544.66796875 699.998046875 526.000976562 c 2
 684.998046875 460.000976562 l 2
 683.665039062 456.66796875 681.665039062 455.000976562 678.998046875 455.000976562 c 2
 518.998046875 455.000976562 l 2
 514.998046875 455.000976562 513.665039062 456.66796875 514.998046875 460.000976562 c 2
 529.998046875 523.000976562 l 2
 531.331054688 527.66796875 531.998046875 534.000976562 531.998046875 542.000976562 c 0
 531.998046875 556.66796875 526.498046875 567.66796875 515.498046875 575.000976562 c 0
 504.498046875 582.333984375 486.665039062 586.000976562 461.998046875 586.000976562 c 0
 435.331054688 586.000976562 413.6640625 580.333984375 396.997070312 569.000976562 c 0
 380.330078125 557.66796875 369.663085938 542.000976562 364.99609375 522.000976562 c 2
 354.99609375 480.000976562 l 2
 351.663085938 466.66796875 349.663085938 451.66796875 348.99609375 435.000976562 c 0
 348.329101562 418.333984375 347.99609375 402.000976562 347.99609375 386.000976562 c 1
 505.99609375 386.000976562 l 2
 509.99609375 386.000976562 511.329101562 384.333984375 509.99609375 381.000976562 c 2
 487.99609375 285.000976562 l 2
 486.663085938 281.66796875 484.663085938 280.000976562 481.99609375 280.000976562 c 2
 341.99609375 280.000976562 l 1
 338.99609375 265.000976562 l 2
 324.99609375 205.000976562 290.663085938 156.66796875 235.99609375 120.000976562 c 1
 238.99609375 113.000976562 l 2
 242.329101562 114.333984375 250.49609375 117.000976562 263.49609375 121.000976562 c 0
 276.49609375 125.000976562 290.663085938 128.16796875 305.99609375 130.500976562 c 0
 321.329101562 132.833984375 338.329101562 134.000976562 356.99609375 134.000976562 c 2
 596.99609375 134.000976562 l 2
 598.329101562 134.000976562 599.329101562 133.16796875 599.99609375 131.500976562 c 0
 600.663085938 129.833984375 600.663085938 128.000976562 599.99609375 126.000976562 c 2
 572.99609375 8.0009765625 l 2
 571.663085938 2.66796875 569.330078125 0.0009765625 565.997070312 0.0009765625 c 2
 52.9970703125 0.0009765625 l 2
 49.6640625 0.0009765625 48.6640625 2.66796875 49.9970703125 8.0009765625 c 2
 76.9970703125 126.000976562 l 2
 78.330078125 130.66796875 80.330078125 133.334960938 82.9970703125 134.001953125 c 0
 105.6640625 146.001953125 123.831054688 162.668945312 137.498046875 184.001953125 c 0
 151.165039062 205.334960938 160.33203125 226.66796875 164.999023438 248.000976562 c 0
 166.999023438 254.66796875 168.33203125 260.66796875 168.999023438 266.000976562 c 0
 169.666015625 271.333984375 170.333007812 276.000976562 171 280.000976562 c 1
 103 280.000976562 l 2
 100.333007812 280.000976562 99 281.66796875 99 285.000976562 c 2
 122 381.000976562 l 2
 122 384.333984375 124 386.000976562 128 386.000976562 c 2
 175 386.000976562 l 1
 176.333007812 425.333984375 180.333007812 458.666992188 187 486 c 2
 198 536 l 2
 211.333007812 594 244 638.666992188 296 670 c 0
 348 701.333007812 411.333007812 717 486 717 c 0
 559.333007812 717 614.5 706.166992188 651.5 684.5 c 0
EndSplineSet
EndChar

StartChar: yen
Encoding: 165 165 99
Width: 600
GlyphClass: 2
Flags: W
AnchorPoint: "Anchor-1" 464 708 basechar 0
AnchorPoint: "Anchor-0" 300 0 basechar 0
LayerCount: 2
Fore
SplineSet
756 703 m 2
 506.999023438 311 l 1
 578.999023438 311 l 2
 581.666015625 311 582.999023438 309.333007812 582.999023438 306 c 2
 561.999023438 213 l 2
 560.666015625 209.666992188 558.666015625 208 555.999023438 208 c 2
 440.999023438 208 l 1
 428.999023438 189 l 1
 423.999023438 167 l 1
 545.999023438 167 l 2
 548.666015625 167 549.999023438 165.333007812 549.999023438 162 c 2
 528.999023438 69 l 2
 527.666015625 65.6669921875 525.333007812 64 522 64 c 2
 400 64 l 1
 386 5 l 2
 384.666992188 1.6669921875 382.666992188 0 380 0 c 2
 220 0 l 2
 216 0 214.666992188 1.6669921875 216 5 c 2
 230 64 l 1
 108 64 l 2
 104 64 102.666992188 65.6669921875 104 69 c 2
 126 162 l 2
 126 165.333007812 128 167 132 167 c 2
 254 167 l 1
 259 188 l 1
 255 208 l 1
 141 208 l 2
 137 208 135.666992188 209.666992188 137 213 c 2
 159 306 l 2
 159 309.333007812 161 311 165 311 c 2
 237 311 l 1
 169 703 l 2
 168.333007812 704.333007812 168.833007812 705.5 170.5 706.5 c 0
 172.166992188 707.5 173.666992188 708 175 708 c 2
 342 708 l 2
 344 708 345.666992188 706.333007812 347 703 c 2
 372 511 l 2
 376.666992188 484.333007812 379 452.666015625 379 415.999023438 c 0
 379 379.999023438 376.333007812 348.666015625 371 321.999023438 c 1
 379 321.999023438 l 1
 385.666992188 347.33203125 398 379.83203125 416 419.499023438 c 0
 434 459.166015625 450.666992188 490.333007812 466 513 c 2
 579 703 l 2
 580.333007812 706.333007812 582.333007812 708 585 708 c 2
 752 708 l 2
 756 708 757.333007812 706.333007812 756 703 c 2
EndSplineSet
EndChar

StartChar: brokenbar
Encoding: 166 166 100
Width: 340
GlyphClass: 2
Flags: W
LayerCount: 2
Fore
SplineSet
160 388 m 2
 254 795 l 2
 254 798.333007812 256 800 260 800 c 2
 378 800 l 2
 380.666992188 800 382 798.333007812 382 795 c 2
 287 388 l 2
 285.666992188 384.666992188 283.666992188 383 281 383 c 2
 164 383 l 2
 160 383 158.666992188 384.666992188 160 388 c 2
43 -115 m 2
 138 293 l 2
 138 296.333007812 140 298 144 298 c 2
 261 298 l 2
 265 298 266.333007812 296.333007812 265 293 c 2
 171 -115 l 2
 171 -118.333007812 169 -120 165 -120 c 2
 47 -120 l 2
 44.3330078125 -120 43 -118.333007812 43 -115 c 2
EndSplineSet
EndChar

StartChar: section
Encoding: 167 167 101
Width: 623
GlyphClass: 2
Flags: W
LayerCount: 2
Fore
SplineSet
646 685 m 0
 684 663.666992188 703.002929688 630 703.002929688 584 c 0
 703.002929688 569.333007812 701.002929688 553.333007812 697.002929688 536 c 2
 684.002929688 482 l 2
 684.002929688 478.666992188 682.002929688 477 678.002929688 477 c 2
 518.002929688 477 l 2
 515.3359375 477 514.002929688 478.666992188 514.002929688 482 c 2
 526.002929688 533 l 2
 527.3359375 539.666992188 528.002929688 545 528.002929688 549 c 0
 528.002929688 577 501.3359375 591 448.002929688 591 c 0
 414.669921875 591 390.002929688 587.166992188 374.002929688 579.5 c 0
 358.002929688 571.833007812 348.3359375 560.333007812 345.002929688 545 c 2
 341.002929688 528 l 2
 340.3359375 526 340.002929688 522.666992188 340.002929688 518 c 0
 340.002929688 503.333007812 349.169921875 491.833007812 367.502929688 483.5 c 0
 385.8359375 475.166992188 417.668945312 465.333984375 463.001953125 454.000976562 c 0
 505.668945312 444.000976562 539.668945312 434.333984375 565.001953125 425.000976562 c 0
 590.334960938 415.66796875 610.001953125 403.16796875 624.001953125 387.500976562 c 0
 638.001953125 371.833984375 645.001953125 352.000976562 645.001953125 328.000976562 c 0
 645.001953125 313.333984375 643.334960938 299.666992188 640.001953125 287 c 2
 632.001953125 250 l 2
 622.001953125 208 597.001953125 175 557.001953125 151 c 1
 577.668945312 131.666992188 588.001953125 107.666992188 588.001953125 79 c 0
 588.001953125 68.3330078125 586.334960938 55.3330078125 583.001953125 40 c 2
 575.001953125 3 l 2
 561.668945312 -55 529.168945312 -98 477.501953125 -126 c 0
 425.834960938 -154 358.001953125 -168 274.001953125 -168 c 0
 198.001953125 -168 141.001953125 -157.5 103.001953125 -136.5 c 0
 65.001953125 -115.5 46.001953125 -81.6669921875 46.001953125 -35 c 0
 46.001953125 -19.6669921875 48.001953125 -3 52.001953125 15 c 2
 66.001953125 75 l 2
 67.3349609375 78.3330078125 69.3349609375 80 72.001953125 80 c 2
 232.001953125 80 l 2
 236.001953125 80 237.334960938 78.3330078125 236.001953125 75 c 2
 223.001953125 18 l 2
 221.668945312 10 221.001953125 4 221.001953125 0 c 0
 221.001953125 -14 227.168945312 -24.3330078125 239.501953125 -31 c 0
 251.834960938 -37.6669921875 272.66796875 -41 302.000976562 -41 c 0
 335.333984375 -41 360.000976562 -37.1669921875 376.000976562 -29.5 c 0
 392.000976562 -21.8330078125 402.000976562 -9.3330078125 406.000976562 8 c 2
 411.000976562 31 l 2
 411.66796875 33.6669921875 412.000976562 37 412.000976562 41 c 0
 412.000976562 56.3330078125 404.000976562 68.166015625 388.000976562 76.4990234375 c 0
 372.000976562 84.83203125 344.333984375 94.9990234375 305.000976562 106.999023438 c 0
 259.000976562 117.666015625 222.333984375 127.833007812 195.000976562 137.5 c 0
 167.66796875 147.166992188 146.16796875 160 130.500976562 176 c 0
 114.833984375 192 107.000976562 212.666992188 107.000976562 238 c 0
 107.000976562 249.333007812 108.333984375 260.333007812 111.000976562 271 c 2
 118.000976562 301 l 2
 129.333984375 347.666992188 158.666992188 382.666992188 206 406 c 1
 178 426.666992188 164 453 164 485 c 0
 164 494.333007812 165.666992188 506.333007812 169 521 c 2
 176 551 l 2
 188.666992188 607 221 648.666992188 273 676 c 0
 325 703.333007812 392.666992188 717 476 717 c 0
 551.333007812 717 608 706.333007812 646 685 c 0
470.002929688 280 m 0
 470.002929688 296.666992188 461.8359375 309.497070312 445.502929688 318.497070312 c 0
 429.169921875 327.497070312 401.002929688 337.997070312 361.002929688 349.997070312 c 2
 323.002929688 358.997070312 l 1
 303.669921875 345.6640625 291.669921875 328.331054688 287.002929688 306.998046875 c 2
 283.002929688 286.998046875 l 2
 282.3359375 284.331054688 282.002929688 280.998046875 282.002929688 276.998046875 c 0
 282.002929688 260.998046875 291.169921875 248.998046875 309.502929688 240.998046875 c 0
 327.8359375 232.998046875 360.3359375 222.998046875 407.002929688 210.998046875 c 2
 441.002929688 202.998046875 l 1
 450.3359375 211.665039062 457.3359375 224.33203125 462.002929688 240.999023438 c 2
 468.002929688 265.999023438 l 2
 469.3359375 272.666015625 470.002929688 277.333007812 470.002929688 280 c 0
EndSplineSet
EndChar

StartChar: dieresis
Encoding: 168 168 102
Width: 388
GlyphClass: 2
Flags: W
LayerCount: 2
Fore
SplineSet
156 566 m 2
 185.999023438 696 l 2
 185.999023438 699.333007812 187.999023438 701 191.999023438 701 c 2
 321.999023438 701 l 2
 324.666015625 701 325.999023438 699.333007812 325.999023438 696 c 2
 295.999023438 566 l 2
 294.666015625 562.666992188 292.333007812 561 289 561 c 2
 159 561 l 2
 155.666992188 561 154.666992188 562.666992188 156 566 c 2
352.999023438 566 m 2
 382.999023438 696 l 2
 384.33203125 699.333007812 386.33203125 701 388.999023438 701 c 2
 518.999023438 701 l 2
 522.999023438 701 524.33203125 699.333007812 522.999023438 696 c 2
 492.999023438 566 l 2
 492.999023438 562.666992188 490.999023438 561 486.999023438 561 c 2
 356.999023438 561 l 2
 354.33203125 561 352.999023438 562.666992188 352.999023438 566 c 2
EndSplineSet
EndChar

StartChar: copyright
Encoding: 169 169 103
Width: 766
GlyphClass: 2
Flags: W
LayerCount: 2
Fore
SplineSet
183 48.5 m 0
 134.333007812 82.8330078125 109.998046875 135.33203125 109.998046875 205.999023438 c 0
 109.998046875 230.666015625 113.665039062 259.333007812 120.998046875 292 c 2
 148.998046875 414 l 2
 172.331054688 514 219.331054688 588.166992188 289.998046875 636.5 c 0
 360.665039062 684.833007812 446.998046875 709 548.998046875 709 c 0
 634.331054688 709 700.498046875 692.333007812 747.498046875 659 c 0
 794.498046875 625.666992188 817.998046875 574 817.998046875 504 c 0
 817.998046875 474 814.331054688 444 806.998046875 414 c 2
 778.998046875 292 l 2
 755.665039062 192 709.33203125 117.833007812 639.999023438 69.5 c 0
 570.666015625 21.1669921875 485.333007812 -3 384 -3 c 0
 298.666992188 -3 231.666992188 14.1669921875 183 48.5 c 0
582.498046875 133.499023438 m 0
 630.831054688 166.499023438 663.333007812 218.665039062 680 289.998046875 c 2
 709 415.998046875 l 2
 714.333007812 440.665039062 717 461.998046875 717 479.998046875 c 0
 717 529.998046875 700.333007812 566.331054688 667 588.998046875 c 0
 633.666992188 611.665039062 587.666992188 622.998046875 529 622.998046875 c 0
 458.333007812 622.998046875 398.166015625 606.498046875 348.499023438 573.498046875 c 0
 298.83203125 540.498046875 265.665039062 487.998046875 248.998046875 415.998046875 c 2
 219.998046875 289.998046875 l 2
 214.665039062 266.665039062 211.998046875 246.33203125 211.998046875 228.999023438 c 0
 211.998046875 178.999023438 229.331054688 142.33203125 263.998046875 118.999023438 c 0
 298.665039062 95.666015625 345.665039062 83.9990234375 404.998046875 83.9990234375 c 0
 474.998046875 83.9990234375 534.165039062 100.499023438 582.498046875 133.499023438 c 0
328 190.998046875 m 0
 305.333007812 206.998046875 294.00390625 231.330078125 294.00390625 263.997070312 c 0
 294.00390625 276.6640625 295.336914062 288.6640625 298.00390625 299.997070312 c 2
 323.00390625 406.997070312 l 2
 333.670898438 451.6640625 355.50390625 484.831054688 388.50390625 506.498046875 c 0
 421.50390625 528.165039062 461.336914062 538.998046875 508.00390625 538.998046875 c 0
 548.00390625 538.998046875 579.670898438 531.665039062 603.00390625 516.998046875 c 0
 626.336914062 502.331054688 638.00390625 481.331054688 638.00390625 453.998046875 c 0
 638.00390625 447.331054688 637.00390625 439.331054688 635.00390625 429.998046875 c 2
 626.00390625 389.998046875 l 2
 626.00390625 387.998046875 624.670898438 386.998046875 622.00390625 386.998046875 c 2
 525.00390625 386.998046875 l 2
 523.670898438 386.998046875 523.00390625 387.998046875 523.00390625 389.998046875 c 2
 530.00390625 418.998046875 l 2
 530.670898438 420.998046875 531.00390625 423.998046875 531.00390625 427.998046875 c 0
 531.00390625 446.665039062 517.336914062 455.998046875 490.00390625 455.998046875 c 0
 472.00390625 455.998046875 457.670898438 451.665039062 447.00390625 442.998046875 c 0
 436.336914062 434.331054688 428.669921875 420.331054688 424.002929688 400.998046875 c 2
 402.002929688 305.998046875 l 2
 400.002929688 297.998046875 399.002929688 290.998046875 399.002929688 284.998046875 c 0
 399.002929688 261.665039062 413.3359375 249.998046875 442.002929688 249.998046875 c 0
 475.3359375 249.998046875 494.668945312 262.998046875 500.001953125 288.998046875 c 2
 508.001953125 322.998046875 l 2
 508.001953125 324.998046875 509.001953125 325.998046875 511.001953125 325.998046875 c 2
 608.001953125 325.998046875 l 2
 610.001953125 325.998046875 611.001953125 324.998046875 611.001953125 322.998046875 c 2
 600.001953125 276.998046875 l 2
 591.334960938 240.998046875 571.16796875 213.665039062 539.500976562 194.998046875 c 0
 507.833984375 176.331054688 468.666992188 166.998046875 422 166.998046875 c 0
 382 166.998046875 350.666992188 174.998046875 328 190.998046875 c 0
EndSplineSet
EndChar

StartChar: ordfeminine
Encoding: 170 170 104
Width: 491
GlyphClass: 2
Flags: W
LayerCount: 2
Fore
SplineSet
532 475 m 1
 529.99609375 463.00390625 l 2
 529.99609375 460.336914062 530.829101562 458.669921875 532.49609375 458.002929688 c 0
 534.163085938 457.3359375 537.330078125 457.002929688 541.997070312 457.002929688 c 2
 547.997070312 457.002929688 l 2
 551.330078125 457.002929688 552.330078125 455.3359375 550.997070312 452.002929688 c 2
 528.997070312 357.002929688 l 2
 528.997070312 353.669921875 526.997070312 352.002929688 522.997070312 352.002929688 c 2
 448.997070312 352.002929688 l 2
 425.6640625 352.002929688 408.831054688 356.169921875 398.498046875 364.502929688 c 0
 388.165039062 372.8359375 383.33203125 386.002929688 383.999023438 404.002929688 c 1
 378.999023438 404.002929688 l 1
 359.666015625 364.669921875 313.333007812 345.002929688 240 345.002929688 c 0
 204.666992188 345.002929688 179.166992188 349.8359375 163.5 359.502929688 c 0
 147.833007812 369.169921875 140 384.002929688 140 404.002929688 c 0
 140 409.3359375 141.333007812 418.668945312 144 432.001953125 c 2
 150 459.001953125 l 2
 156.666992188 486.334960938 168.5 507.16796875 185.5 521.500976562 c 0
 202.5 535.833984375 230.666992188 545.000976562 270 549.000976562 c 2
 388 563.000976562 l 2
 400 564.333984375 408.666992188 566.500976562 414 569.500976562 c 0
 419.333007812 572.500976562 422.666015625 577.333984375 423.999023438 584.000976562 c 1
 422.999023438 575.000976562 l 1
 424.999023438 585.000976562 l 2
 425.666015625 587.000976562 425.999023438 590.000976562 425.999023438 594.000976562 c 0
 425.999023438 600.66796875 422.166015625 605.834960938 414.499023438 609.501953125 c 0
 406.83203125 613.168945312 392.999023438 615.001953125 372.999023438 615.001953125 c 0
 335.666015625 615.001953125 315.333007812 605.001953125 312 585.001953125 c 2
 309 575.001953125 l 2
 309 571.668945312 307 570.001953125 303 570.001953125 c 2
 181 570.001953125 l 2
 178.333007812 570.001953125 177 571.668945312 177 575.001953125 c 2
 181 591.001953125 l 2
 200.333007812 675.001953125 271.333007812 717.001953125 394 717.001953125 c 0
 453.333007812 717.001953125 496 708.668945312 522 692.001953125 c 0
 548 675.334960938 561 651.66796875 561 621.000976562 c 0
 561 608.333984375 559.666992188 596.666992188 557 586 c 2
 532 475 l 1
371.49609375 443.50390625 m 0
 385.163085938 449.170898438 394.329101562 458.670898438 398.99609375 472.00390625 c 2
 405.99609375 505.00390625 l 1
 401.329101562 502.336914062 393.99609375 500.669921875 383.99609375 500.002929688 c 2
 322.99609375 495.002929688 l 2
 310.99609375 493.669921875 302.163085938 491.336914062 296.49609375 488.00390625 c 0
 290.829101562 484.670898438 286.99609375 479.00390625 284.99609375 471.00390625 c 2
 281.99609375 458.00390625 l 2
 279.99609375 450.00390625 281.329101562 444.170898438 285.99609375 440.50390625 c 0
 290.663085938 436.836914062 300.663085938 435.00390625 315.99609375 435.00390625 c 0
 339.329101562 435.00390625 357.829101562 437.836914062 371.49609375 443.50390625 c 0
512.995117188 284.00390625 m 2
 489.995117188 187.00390625 l 2
 489.995117188 183.670898438 487.995117188 182.00390625 483.995117188 182.00390625 c 2
 91.9951171875 182.00390625 l 2
 89.328125 182.00390625 87.9951171875 183.670898438 87.9951171875 187.00390625 c 2
 110.995117188 284.00390625 l 2
 110.995117188 287.336914062 112.995117188 289.00390625 116.995117188 289.00390625 c 2
 508.995117188 289.00390625 l 2
 511.662109375 289.00390625 512.995117188 287.336914062 512.995117188 284.00390625 c 2
EndSplineSet
EndChar

StartChar: guillemotleft
Encoding: 171 171 105
Width: 603
GlyphClass: 2
Flags: W
LayerCount: 2
Fore
SplineSet
353 111 m 1
 354.000976562 106.000976562 l 2
 354.000976562 102.66796875 351.000976562 101.000976562 345.000976562 101.000976562 c 2
 189.000976562 101.000976562 l 2
 185.000976562 101.000976562 182.333984375 102.000976562 181.000976562 104.000976562 c 2
 84.0009765625 266.000976562 l 2
 81.333984375 267.333984375 80.6669921875 268.666992188 82 270 c 0
 82.6669921875 272 84 273.333007812 86 274 c 2
 258 437 l 2
 260 439 263 440 267 440 c 2
 423 440 l 2
 428.333007812 440 430.833007812 438.833007812 430.5 436.5 c 0
 430.166992188 434.166992188 429 432 427 430 c 2
 254 270 l 1
 353 111 l 1
663.500976562 436.500976562 m 0
 663.16796875 434.16796875 662.001953125 432.001953125 660.001953125 430.001953125 c 2
 487.001953125 270.001953125 l 1
 586.001953125 111.001953125 l 1
 587.001953125 106.001953125 l 2
 587.001953125 102.668945312 584.001953125 101.001953125 578.001953125 101.001953125 c 2
 422.001953125 101.001953125 l 2
 418.001953125 101.001953125 415.334960938 102.001953125 414.001953125 104.001953125 c 2
 317.001953125 266.001953125 l 2
 314.334960938 267.334960938 313.66796875 268.66796875 315.000976562 270.000976562 c 0
 315.66796875 272.000976562 317.000976562 273.333984375 319.000976562 274.000976562 c 2
 491.000976562 437.000976562 l 2
 493.000976562 439.000976562 496.000976562 440.000976562 500.000976562 440.000976562 c 2
 656.000976562 440.000976562 l 2
 661.333984375 440.000976562 663.833984375 438.833984375 663.500976562 436.500976562 c 0
EndSplineSet
EndChar

StartChar: registered
Encoding: 174 174 106
Width: 766
GlyphClass: 2
Flags: W
LayerCount: 2
Fore
SplineSet
747.5 659 m 0
 794.5 625.666992188 817.998046875 573.999023438 817.998046875 503.999023438 c 0
 817.998046875 473.999023438 814.331054688 443.999023438 806.998046875 413.999023438 c 2
 778.998046875 291.999023438 l 2
 755.665039062 191.999023438 709.33203125 117.83203125 639.999023438 69.4990234375 c 0
 570.666015625 21.166015625 485.333007812 -3.0009765625 384 -3.0009765625 c 0
 298.666992188 -3.0009765625 231.666992188 14.166015625 183 48.4990234375 c 0
 134.333007812 82.83203125 110 135.33203125 110 205.999023438 c 0
 110 230.666015625 113.666992188 259.333007812 121 292 c 2
 149 414 l 2
 172.333007812 514 219.333007812 588.166992188 290 636.5 c 0
 360.666992188 684.833007812 447 709 549 709 c 0
 634.333007812 709 700.5 692.333007812 747.5 659 c 0
716.998046875 479.999023438 m 0
 716.998046875 529.999023438 700.333007812 566.331054688 667 588.998046875 c 0
 633.666992188 611.665039062 587.666992188 622.998046875 529 622.998046875 c 0
 458.333007812 622.998046875 398.166015625 606.498046875 348.499023438 573.498046875 c 0
 298.83203125 540.498046875 265.665039062 487.998046875 248.998046875 415.998046875 c 2
 219.998046875 289.998046875 l 2
 214.665039062 266.665039062 211.998046875 246.33203125 211.998046875 228.999023438 c 0
 211.998046875 178.999023438 229.331054688 142.33203125 263.998046875 118.999023438 c 0
 298.665039062 95.666015625 345.665039062 83.9990234375 404.998046875 83.9990234375 c 0
 474.998046875 83.9990234375 534.165039062 100.499023438 582.498046875 133.499023438 c 0
 630.831054688 166.499023438 663.331054688 218.666015625 679.998046875 289.999023438 c 2
 708.998046875 415.999023438 l 2
 714.331054688 440.666015625 716.998046875 461.999023438 716.998046875 479.999023438 c 0
610 518.998046875 m 0
 626 509.665039062 634.000976562 494.99609375 634.000976562 474.99609375 c 0
 634.000976562 468.329101562 633.000976562 460.329101562 631.000976562 450.99609375 c 2
 623.000976562 417.99609375 l 2
 618.333984375 397.99609375 610.000976562 381.99609375 598.000976562 369.99609375 c 0
 586.000976562 357.99609375 572.333984375 350.99609375 557.000976562 348.99609375 c 1
 556.000976562 344.99609375 l 1
 568.000976562 343.663085938 577.66796875 339.330078125 585.000976562 331.997070312 c 0
 592.333984375 324.6640625 596.000976562 314.997070312 596.000976562 302.997070312 c 0
 596.000976562 300.330078125 595.333984375 294.997070312 594.000976562 286.997070312 c 2
 579.000976562 221.997070312 l 2
 575.000976562 205.330078125 573.000976562 192.997070312 573.000976562 184.997070312 c 0
 573.000976562 180.997070312 573.333984375 177.997070312 574.000976562 175.997070312 c 0
 574.000976562 173.997070312 573.000976562 172.997070312 571.000976562 172.997070312 c 2
 474.000976562 172.997070312 l 2
 473.333984375 172.997070312 472.333984375 173.6640625 471.000976562 174.997070312 c 2
 470.000976562 178.997070312 l 2
 470.000976562 184.997070312 471.333984375 191.330078125 474.000976562 197.997070312 c 2
 490.000976562 270.997070312 l 2
 491.333984375 277.6640625 492.000976562 282.331054688 492.000976562 284.998046875 c 0
 492.000976562 292.331054688 489.66796875 297.331054688 485.000976562 299.998046875 c 0
 480.333984375 302.665039062 472.666992188 303.998046875 462 303.998046875 c 2
 418 303.998046875 l 1
 389 175.998046875 l 2
 388.333007812 173.998046875 387.333007812 172.998046875 386 172.998046875 c 2
 291 172.998046875 l 2
 289.666992188 172.998046875 289 173.998046875 289 175.998046875 c 2
 371 530.998046875 l 2
 371 532.331054688 372.333007812 532.998046875 375 532.998046875 c 2
 537 532.998046875 l 2
 569.666992188 532.998046875 594 528.331054688 610 518.998046875 c 0
529.000976562 441.99609375 m 0
 529.000976562 447.99609375 526.999023438 451.99609375 522.999023438 453.99609375 c 0
 518.999023438 455.99609375 511.999023438 456.99609375 501.999023438 456.99609375 c 2
 452.999023438 456.99609375 l 1
 434.999023438 377.99609375 l 1
 484.999023438 377.99609375 l 2
 495.666015625 377.99609375 503.833007812 379.829101562 509.5 383.49609375 c 0
 515.166992188 387.163085938 519.333984375 393.99609375 522.000976562 403.99609375 c 2
 528.000976562 432.99609375 l 2
 528.66796875 434.99609375 529.000976562 437.99609375 529.000976562 441.99609375 c 0
EndSplineSet
EndChar

StartChar: macron
Encoding: 175 175 107
Width: 467
GlyphClass: 2
Flags: W
LayerCount: 2
Fore
SplineSet
156 566 m 2
 181.000976562 678 l 2
 182.333984375 681.333007812 184.666992188 683 188 683 c 2
 595 683 l 2
 597.666992188 683 599 681.333007812 599 678 c 2
 573 566 l 2
 573 562.666992188 571 561 567 561 c 2
 159 561 l 2
 155.666992188 561 154.666992188 562.666992188 156 566 c 2
EndSplineSet
EndChar

StartChar: degree
Encoding: 176 176 108
Width: 355
GlyphClass: 2
Flags: W
LayerCount: 2
Fore
SplineSet
188 453.5 m 0
 168.666992188 469.833007812 159 493.66796875 159 525.000976562 c 0
 159 540.333984375 161 556.333984375 165 573.000976562 c 0
 175.666992188 619.000976562 195.833984375 654.66796875 225.500976562 680.000976562 c 0
 255.16796875 705.333984375 294.334960938 718.000976562 343.001953125 718.000976562 c 0
 382.334960938 718.000976562 411.66796875 709.500976562 431.000976562 692.500976562 c 0
 450.333984375 675.500976562 460.000976562 651.333984375 460.000976562 620.000976562 c 0
 460.000976562 606.000976562 458.000976562 590.333984375 454.000976562 573.000976562 c 0
 443.333984375 526.333984375 423.166992188 490.666992188 393.5 466 c 0
 363.833007812 441.333007812 324.666015625 429 275.999023438 429 c 0
 236.666015625 429 207.333007812 437.166992188 188 453.5 c 0
328.5 540.001953125 m 0
 335.5 546.668945312 340.666992188 557.669921875 344 573.002929688 c 0
 346 580.3359375 347 586.668945312 347 592.001953125 c 0
 347 608.001953125 337.666992188 616.001953125 319 616.001953125 c 0
 307 616.001953125 297.666992188 612.668945312 291 606.001953125 c 0
 284.333007812 599.334960938 279.333007812 588.334960938 276 573.001953125 c 0
 274 564.334960938 273 557.334960938 273 552.001953125 c 0
 273 544.001953125 275 538.334960938 279 535.001953125 c 0
 283 531.668945312 290 530.001953125 300 530.001953125 c 0
 312 530.001953125 321.5 533.334960938 328.5 540.001953125 c 0
EndSplineSet
EndChar

StartChar: plusminus
Encoding: 177 177 109
Width: 540
GlyphClass: 2
Flags: W
LayerCount: 2
Fore
SplineSet
586 438 m 2
 560.000976562 327 l 2
 558.66796875 323.666992188 556.66796875 322 554.000976562 322 c 2
 405.000976562 322 l 1
 377.000976562 200 l 2
 375.66796875 196.666992188 373.66796875 195 371.000976562 195 c 2
 260.000976562 195 l 2
 256.66796875 195 255.000976562 196.666992188 255.000976562 200 c 2
 283.000976562 322 l 1
 135.000976562 322 l 2
 131.000976562 322 129.66796875 323.666992188 131.000976562 327 c 2
 157.000976562 438 l 2
 157.000976562 441.333007812 159.000976562 443 163.000976562 443 c 2
 312.000976562 443 l 1
 340.000976562 565 l 2
 340.000976562 567.666992188 342.000976562 569 346.000976562 569 c 2
 457.000976562 569 l 2
 460.333984375 569 461.666992188 567.333007812 461 564 c 2
 433 443 l 1
 582 443 l 2
 584.666992188 443 586 441.333007812 586 438 c 2
516.000976562 136 m 2
 490.000976562 25 l 2
 488.66796875 21.6669921875 486.66796875 20 484.000976562 20 c 2
 65.0009765625 20 l 2
 61.0009765625 20 59.66796875 21.6669921875 61.0009765625 25 c 2
 87.0009765625 136 l 2
 88.333984375 139.333007812 90.333984375 141 93.0009765625 141 c 2
 512.000976562 141 l 2
 516.000976562 141 517.333984375 139.333007812 516.000976562 136 c 2
EndSplineSet
EndChar

StartChar: uni00B2
Encoding: 178 178 110
Width: 412
GlyphClass: 2
Flags: W
LayerCount: 2
Fore
SplineSet
473.5 845.5 m 0
 499.166992188 832.5 511.999023438 812.665039062 511.999023438 785.998046875 c 0
 511.999023438 779.331054688 510.999023438 771.998046875 508.999023438 763.998046875 c 2
 503.999023438 742.998046875 l 2
 497.999023438 714.998046875 482.166015625 692.665039062 456.499023438 675.998046875 c 0
 430.83203125 659.331054688 394.999023438 641.6640625 348.999023438 622.997070312 c 0
 315.666015625 609.6640625 290.166015625 597.831054688 272.499023438 587.498046875 c 0
 254.83203125 577.165039062 244.33203125 564.665039062 240.999023438 549.998046875 c 2
 239.999023438 544.998046875 l 1
 343.999023438 544.998046875 l 1
 356.999023438 602.998046875 l 2
 356.999023438 604.331054688 357.999023438 604.998046875 359.999023438 604.998046875 c 2
 467.999023438 604.998046875 l 2
 469.33203125 604.998046875 469.999023438 604.331054688 469.999023438 602.998046875 c 2
 438.999023438 466.998046875 l 2
 438.33203125 464.998046875 436.999023438 463.998046875 434.999023438 463.998046875 c 2
 105.999023438 463.998046875 l 1
 122.999023438 538.998046875 l 2
 128.33203125 563.665039062 139.83203125 584.998046875 157.499023438 602.998046875 c 0
 175.166015625 620.998046875 194.833007812 635.831054688 216.5 647.498046875 c 0
 238.166992188 659.165039062 265 671.998046875 297 685.998046875 c 0
 326.333007812 698.665039062 348.333007812 709.33203125 363 717.999023438 c 0
 377.666992188 726.666015625 386.333984375 736.666015625 389.000976562 747.999023438 c 2
 392.000976562 760.999023438 l 2
 396.000976562 776.999023438 380.66796875 784.999023438 346.000976562 784.999023438 c 0
 327.333984375 784.999023438 313.666992188 782.33203125 305 776.999023438 c 0
 296.333007812 771.666015625 290.666015625 763.333007812 287.999023438 752 c 2
 280.999023438 720 l 2
 280.33203125 718 278.999023438 717 276.999023438 717 c 2
 166.999023438 717 l 2
 165.666015625 717 164.999023438 718 164.999023438 720 c 2
 174.999023438 761 l 2
 182.999023438 796.333007812 203.666015625 822.5 236.999023438 839.5 c 0
 270.33203125 856.5 312.999023438 865 364.999023438 865 c 0
 411.666015625 865 447.833007812 858.5 473.5 845.5 c 0
EndSplineSet
EndChar

StartChar: uni00B3
Encoding: 179 179 111
Width: 409
GlyphClass: 2
Flags: W
LayerCount: 2
Fore
SplineSet
157.5 476 m 0
 131.833007812 489.333007812 118.999023438 509.333007812 118.999023438 536 c 0
 118.999023438 544.666992188 119.666015625 551.333984375 120.999023438 556.000976562 c 2
 131.999023438 603.000976562 l 2
 131.999023438 605.000976562 133.33203125 606.000976562 135.999023438 606.000976562 c 2
 242.999023438 606.000976562 l 2
 245.666015625 606.000976562 246.333007812 605.000976562 245 603.000976562 c 2
 237 568.000976562 l 2
 236.333007812 566.000976562 236 563.000976562 236 559.000976562 c 0
 236 551.66796875 239.5 546.16796875 246.5 542.500976562 c 0
 253.5 538.833984375 265 537.000976562 281 537.000976562 c 0
 302.333007812 537.000976562 317.5 539.16796875 326.5 543.500976562 c 0
 335.5 547.833984375 341 554.666992188 343 564 c 2
 351 597 l 2
 353 606.333007812 351.333007812 612.833007812 346 616.5 c 0
 340.666992188 620.166992188 330.333984375 622 315.000976562 622 c 2
 262.000976562 622 l 2
 260.66796875 622 260.000976562 623 260.000976562 625 c 2
 277.000976562 698 l 2
 277.000976562 700 278.000976562 701 280.000976562 701 c 2
 331.000976562 701 l 2
 345.66796875 701 356.500976562 702.833007812 363.500976562 706.5 c 0
 370.500976562 710.166992188 375.000976562 716.333984375 377.000976562 725.000976562 c 2
 384.000976562 758.000976562 l 2
 386.000976562 767.333984375 383.833984375 774.000976562 377.500976562 778.000976562 c 0
 371.16796875 782.000976562 357.66796875 784.000976562 337.000976562 784.000976562 c 0
 319.66796875 784.000976562 306.834960938 781.66796875 298.501953125 777.000976562 c 0
 290.168945312 772.333984375 285.001953125 764.666992188 283.001953125 754 c 2
 274.001953125 718 l 2
 274.001953125 716 273.001953125 715 271.001953125 715 c 2
 164.001953125 715 l 2
 162.001953125 715 161.001953125 716 161.001953125 718 c 2
 172.001953125 765 l 2
 180.001953125 798.333007812 200.168945312 823.333007812 232.501953125 840 c 0
 264.834960938 856.666992188 306.334960938 865 357.001953125 865 c 0
 455.668945312 865 505.001953125 840.333007812 505.001953125 791 c 0
 505.001953125 784.333007812 504.001953125 777 502.001953125 769 c 2
 494.001953125 734 l 2
 485.334960938 696.666992188 463.66796875 674.333984375 429.000976562 667.000976562 c 1
 428.000976562 662.000976562 l 1
 455.333984375 657.333984375 469.000976562 642.000976562 469.000976562 616.000976562 c 0
 469.000976562 609.333984375 468.000976562 602.000976562 466.000976562 594.000976562 c 2
 457.000976562 555.000976562 l 2
 449.000976562 520.333984375 429.16796875 495.166992188 397.500976562 479.5 c 0
 365.833984375 463.833007812 322.000976562 456 266.000976562 456 c 0
 219.333984375 456 183.166992188 462.666992188 157.5 476 c 0
EndSplineSet
EndChar

StartChar: acute
Encoding: 180 180 112
Width: 327
GlyphClass: 2
Flags: W
LayerCount: 2
Fore
SplineSet
157 566.5 m 0
 156.333007812 568.166992188 157.000976562 570.333984375 159.000976562 573.000976562 c 2
 281.000976562 727.000976562 l 1
 285.000976562 729.000976562 l 1
 468.000976562 729.000976562 l 2
 472.000976562 729.000976562 474.000976562 727.333984375 474.000976562 724.000976562 c 0
 474.000976562 721.333984375 472.66796875 718.666992188 470.000976562 716 c 2
 293.000976562 565 l 1
 289.000976562 564 l 1
 162.000976562 564 l 2
 159.333984375 564 157.666992188 564.833007812 157 566.5 c 0
EndSplineSet
EndChar

StartChar: paragraph
Encoding: 182 182 113
Width: 750
GlyphClass: 2
Flags: W
LayerCount: 2
Fore
SplineSet
618 703 m 2
 420 -153 l 2
 420 -156.333007812 418 -158 414 -158 c 2
 264 -158 l 2
 261.333007812 -158 260 -156.333007812 260 -153 c 2
 349 233 l 1
 338 233 l 2
 274 233 224.333007812 244 189 266 c 0
 153.666992188 288 136 322.333007812 136 369 c 0
 136 386.333007812 138.333007812 404.333007812 143 423 c 2
 164 514 l 2
 179.333007812 581.333007812 211.5 630.5 260.5 661.5 c 0
 309.5 692.5 372 708 448 708 c 2
 614 708 l 2
 616.666992188 708 618 706.333007812 618 703 c 2
843 703 m 2
 645 -153 l 2
 645 -156.333007812 643 -158 639 -158 c 2
 489 -158 l 2
 486.333007812 -158 485 -156.333007812 485 -153 c 2
 682 701 l 2
 682 702.333007812 682.833007812 703.833007812 684.5 705.5 c 0
 686.166992188 707.166992188 687.666992188 708 689 708 c 2
 839 708 l 2
 841.666992188 708 843 706.333007812 843 703 c 2
379 362 m 1
 428.000976562 576.000976562 l 1
 414.000976562 576.000976562 l 2
 363.333984375 576.000976562 332.666992188 553.333984375 322 508.000976562 c 2
 304 430.000976562 l 2
 302.666992188 425.333984375 302 418.666992188 302 410 c 0
 302 378 322.666992188 362 364 362 c 2
 379 362 l 1
EndSplineSet
EndChar

StartChar: periodcentered
Encoding: 183 183 114
Width: 243
GlyphClass: 2
Flags: W
LayerCount: 2
Fore
SplineSet
78 165 m 2
 113 314 l 2
 113 315.333007812 113.5 316.333007812 114.5 317 c 0
 115.5 317.666992188 116.666992188 318 118 318 c 2
 271 318 l 2
 272.333007812 318 273.5 317.666992188 274.5 317 c 0
 275.5 316.333007812 275.666992188 315.333007812 275 314 c 2
 241 165 l 2
 239.666992188 161.666992188 237.666992188 160 235 160 c 2
 82 160 l 2
 78 160 76.6669921875 161.666992188 78 165 c 2
EndSplineSet
EndChar

StartChar: cedilla
Encoding: 184 184 115
Width: 347
GlyphClass: 2
Flags: W
LayerCount: 2
Fore
SplineSet
-42 -186 m 0
 -42 -179.333007812 -41.0009765625 -172 -39.0009765625 -164 c 2
 -35.0009765625 -147 l 2
 -35.0009765625 -144.333007812 -33.333984375 -143 -30.0009765625 -143 c 2
 75.9990234375 -143 l 2
 78.666015625 -143 79.9990234375 -144.333007812 79.9990234375 -147 c 2
 79.9990234375 -149 l 2
 77.33203125 -161 86.33203125 -167 106.999023438 -167 c 0
 128.33203125 -167 140.999023438 -159 144.999023438 -143 c 2
 148.999023438 -126 l 1
 149.999023438 -120 l 2
 149.999023438 -109.333007812 142.666015625 -104 127.999023438 -104 c 2
 57.9990234375 -104 l 2
 55.33203125 -103.333007812 54.9990234375 -101 56.9990234375 -97 c 2
 105.999023438 8 l 2
 107.33203125 10.6669921875 109.999023438 12 113.999023438 12 c 2
 191.999023438 12 l 2
 195.999023438 12 196.999023438 10.6669921875 194.999023438 8 c 2
 174.999023438 -35 l 1
 199.999023438 -35 l 2
 221.33203125 -35 238.33203125 -39.8330078125 250.999023438 -49.5 c 0
 263.666015625 -59.1669921875 269.999023438 -73.6669921875 269.999023438 -93 c 0
 269.999023438 -99.6669921875 268.999023438 -107 266.999023438 -115 c 2
 255.999023438 -160 l 2
 248.666015625 -192.666992188 230.333007812 -217.166992188 201 -233.5 c 0
 171.666992188 -249.833007812 133.666992188 -258 87 -258 c 0
 1 -258 -42 -234 -42 -186 c 0
EndSplineSet
EndChar

StartChar: uni00B9
Encoding: 185 185 116
Width: 241
GlyphClass: 2
Flags: W
LayerCount: 2
Fore
SplineSet
139 466 m 2
 201 735 l 1
 145 735 l 2
 143 735 142 736 142 738 c 2
 160 814 l 2
 160 816 161 817 163 817 c 2
 188 817 l 2
 209.333007812 817 222 826.666992188 226 846 c 2
 228 854 l 2
 228 856 229.333007812 857 232 857 c 2
 341 857 l 2
 343 857 344 856 344 854 c 2
 254 466 l 2
 253.333007812 464 252 463 250 463 c 2
 141 463 l 2
 139 463 138.333007812 464 139 466 c 2
EndSplineSet
EndChar

StartChar: ordmasculine
Encoding: 186 186 117
Width: 478
GlyphClass: 2
Flags: W
LayerCount: 2
Fore
SplineSet
153 455 m 0
 153 470.333007812 154.666992188 484.666992188 158 498 c 2
 173 564 l 2
 197 666 273.666992188 717 403 717 c 0
 454.333007812 717 494.333007812 708 523 690 c 0
 551.666992188 672 566 644.333007812 566 607 c 0
 566 591.666992188 564.333007812 577.333984375 561 564.000976562 c 2
 546 498.000976562 l 2
 534 445.333984375 508 406.666992188 468 382 c 0
 428 357.333007812 377.666992188 345 317 345 c 0
 207.666992188 345 153 381.666992188 153 455 c 0
387 462.500976562 m 0
 399 469.500976562 407 482.333984375 411 501.000976562 c 2
 425 561.000976562 l 2
 426.333007812 569.000976562 427 574.333984375 427 577.000976562 c 0
 427 599.000976562 410.666992188 610.000976562 378 610.000976562 c 0
 358.666992188 610.000976562 343.166992188 606.500976562 331.5 599.500976562 c 0
 319.833007812 592.500976562 312 579.66796875 308 561.000976562 c 2
 294 501.000976562 l 2
 292.666992188 497.000976562 292 491.333984375 292 484.000976562 c 0
 292 472.000976562 296.333007812 463.66796875 305 459.000976562 c 0
 313.666992188 454.333984375 325.666992188 452.000976562 341 452.000976562 c 0
 359.666992188 452.000976562 375 455.500976562 387 462.500976562 c 0
86 187.000976562 m 2
 109 284.000976562 l 2
 109 287.333984375 111 289.000976562 115 289.000976562 c 2
 497 289.000976562 l 2
 501 289.000976562 502.333007812 287.333984375 501 284.000976562 c 2
 479 187.000976562 l 2
 477.666992188 183.66796875 475.666992188 182.000976562 473 182.000976562 c 2
 90 182.000976562 l 2
 87.3330078125 182.000976562 86 183.66796875 86 187.000976562 c 2
EndSplineSet
EndChar

StartChar: guillemotright
Encoding: 187 187 118
Width: 603
GlyphClass: 2
Flags: W
LayerCount: 2
Fore
SplineSet
595 270 m 0
 595 268.666992188 594.000976562 267.33203125 592.000976562 265.999023438 c 2
 419.000976562 103.999023438 l 2
 417.000976562 101.999023438 414.333984375 100.999023438 411.000976562 100.999023438 c 2
 123.000976562 100.999023438 l 2
 117.66796875 100.999023438 115.16796875 102.166015625 115.500976562 104.499023438 c 0
 115.833984375 106.83203125 117.000976562 108.999023438 119.000976562 110.999023438 c 2
 292.000976562 269.999023438 l 1
 192.000976562 429.999023438 l 1
 191.000976562 433.999023438 l 2
 191.000976562 437.999023438 194.333984375 439.999023438 201.000976562 439.999023438 c 2
 489.000976562 439.999023438 l 2
 492.333984375 439.999023438 494.666992188 438.999023438 496 436.999023438 c 2
 594 273.999023438 l 2
 596 272.666015625 596.333007812 271.333007812 595 270 c 0
EndSplineSet
EndChar

StartChar: onequarter
Encoding: 188 188 119
Width: 801
GlyphClass: 2
Flags: W
LayerCount: 2
Fore
SplineSet
143 316 m 2
 205 585 l 1
 150 585 l 2
 148 585 147 585.666992188 147 587 c 2
 165 664 l 2
 166.333007812 666 167.666015625 667 168.999023438 667 c 2
 193.999023438 667 l 2
 214.666015625 667 226.999023438 676.333007812 230.999023438 695 c 2
 232.999023438 704 l 2
 232.999023438 706 234.33203125 707 236.999023438 707 c 2
 345.999023438 707 l 2
 348.666015625 707 349.333007812 706 348 704 c 2
 259 316 l 2
 259 314 257.666992188 313 255 313 c 2
 146 313 l 2
 144 313 143 314 143 316 c 2
145 1.5 m 0
 144.333007812 2.5 144.333007812 3.6669921875 145 5 c 2
 619 701 l 2
 621 704.333007812 623 706 625 706 c 2
 738 706 l 2
 741.333007812 706 742 704.333007812 740 701 c 2
 266 5 l 2
 264 1.6669921875 262 0 260 0 c 2
 148 0 l 2
 146.666992188 0 145.666992188 0.5 145 1.5 c 0
625 1 m 0
 624.333007812 1.6669921875 624.333007812 2.3330078125 625 3 c 2
 644 84 l 1
 442 84 l 1
 457 150 l 1
 669 391 l 2
 671 393 672.666992188 394 674 394 c 2
 828 394 l 2
 830.666992188 394 831.333984375 393 830.000976562 391 c 2
 778.000976562 163 l 1
 820.000976562 163 l 2
 821.333984375 163 822.000976562 162.333007812 822.000976562 161 c 2
 805.000976562 87 l 2
 805.000976562 85 804.000976562 84 802.000976562 84 c 2
 760.000976562 84 l 1
 741.000976562 3 l 2
 740.333984375 1 739.000976562 0 737.000976562 0 c 2
 627.000976562 0 l 2
 626.333984375 -0 625.666992188 0.3330078125 625 1 c 0
663 163.999023438 m 1
 676.000976562 218.999023438 l 2
 679.333984375 233.666015625 684.166992188 250.499023438 690.5 269.499023438 c 0
 696.833007812 288.499023438 702.333007812 303.33203125 707 313.999023438 c 1
 700 313.999023438 l 1
 573 163.999023438 l 1
 663 163.999023438 l 1
EndSplineSet
EndChar

